<?xml version="1.0" encoding="UTF-8"?>
<svg id="Layer_1" xmlns="http://www.w3.org/2000/svg" version="1.1" viewBox="0 0 76 80">
  <!-- Generator: Adobe Illustrator 30.0.0, SVG Export Plug-In . SVG Version: 2.1.1 Build 123)  -->
  <defs>
    <style>
      .st0 {
        fill: #1a1310;
      }

      .st1, .st2, .st3 {
        stroke: #714b50;
        stroke-width: 4px;
      }

      .st1, .st2, .st4 {
        fill: none;
      }

      .st2, .st4, .st5 {
        stroke-linecap: round;
      }

      .st3 {
        fill: #1a55b0;
      }

      .st6 {
        fill: #fff2e5;
      }

      .st4 {
        stroke: #08439f;
        stroke-width: 2px;
      }

      .st5 {
        fill: #fff;
        stroke: #4f88e0;
        stroke-width: 3px;
      }
    </style>
  </defs>
  <path class="st0" d="M43.2,74c-2-2.6-1.4-6.7-1-8.4.4-1.8,19.7-1.2,20.5,0,.9,1.2.5,6.3-1.4,9-1.9,2.6-16.2,2.1-18.2-.5Z"/>
  <path class="st0" d="M13.2,74.9c-2-2.6-1.4-6.7-1-8.4.4-1.8,19.7-1.2,20.5,0,.9,1.2.5,6.3-1.4,9-1.9,2.6-16.2,2.1-18.2-.5Z"/>
  <path class="st6" d="M42.6,67c-1.9-3.7.2-11.4.6-13.9.4-2.5,18.5-1.7,19.4,0,.8,1.7,1.2,10.3-.6,13.9-1.8,3.6-17.5,3.7-19.4,0Z"/>
  <path class="st6" d="M12.6,68c-1.9-3.7.2-11.4.6-13.9.4-2.5,18.5-1.7,19.4,0,.8,1.7,1.2,10.3-.6,13.9-1.8,3.6-17.5,3.7-19.4,0Z"/>
  <path class="st2" d="M42.6,74.6c-1.3-1.7-.5-13.2,0-18.7,3.2-4.3,17.7-5.9,19.3-2.1,1.6,3.7,1.6,16.6,0,20.9-1.6,4.3-17.7,2.1-19.3,0Z"/>
  <path class="st2" d="M12.6,75.5c-1.3-1.7-.5-13.2,0-18.7,3.2-4.3,17.7-5.9,19.3-2.1,1.6,3.7,1.6,16.6,0,20.9-1.6,4.3-17.7,2.1-19.3,0Z"/>
  <path class="st3" d="M26.8,54.2c-11.2-3.2-12.1-.5-15.3,0-2.5.4-8.9.2-9.3-1.8-.2-.9.8-1.7,1.1-1.9,2.4-2.2,6.6-12.3,13.7-38.9,25,12.4,42.7,22.6,46.5,25.8,1.7,1.5,5,4.3,5.1,7.8,0,.6-.1,1.2.2,2,.8,1.9,3.4,2.3,4.6,4.4,1.6,2.7-6.4,5.9-19.8,2.7-13.4-3.2-15.5,3.2-26.8,0Z"/>
  <path class="st4" d="M22.5,43l-3.2,4.8"/>
  <path class="st4" d="M36.4,44.1c.4,1.9-.5,4.3-2.1,4.3"/>
  <path class="st4" d="M63.2,41.9c.4,1.9.6,3.7-1,4.8"/>
  <path class="st4" d="M51.5,42c0,1.6-.6,3.2-2.2,4.3"/>
  <path class="st5" d="M32.2,43.5c3.2-.5,8-4.3,9.6-6.4,1.6-2.1-1.1-22.5-1.1-22.5-2.2-1-5.7-2.4-10.2-2.8-4.2-.4-8.8-.8-12.6,1.8-7,4.8-6,16.1-5.6,20.2.2,2.5-.2,13,19.8,9.6Z"/>
  <path class="st5" d="M59.4,10.2c-2.3.7-16.7,5.9-16.7,5.9,0,0,1.6,20.4,4,21.6,2.4,1.2,17.8,6,18.3,0,.5-6-3.4-28.2-5.6-27.5Z"/>
  <path class="st5" d="M31.2,26.3s8.1-13.1,8.1-13.1l-22.3-1.6c7.4,12.9,11.6,15.3,14.2,14.7Z"/>
  <path class="st5" d="M41.6,12s10.1,10.8,12.2,10.7c2,0,4.8-11.8,4.8-11.8l-16.9,1.1Z"/>
  <path class="st1" d="M26.8,55.5c-4.4-.8-7-2.3-11.2-1.3-1.7.4-2.7,1.1-4.1,1.3-2.6.4-9,.2-9.4-1.9-.2-.9.9-1.8,1.1-2,2.5-2.3,8.2-39.2,13-41.2,4.8-2.1,11.7,0,20.4-.4,17.1-.9,19-2.5,22.4-.2,10.2,6.9,10,33.6,9.8,36.4,0,.3-.2,1.2.3,2.1.9,1.6,3.2,1.7,4.4,3.8,1.6,2.8-6.3,6.7-19.8,3.4-4.3-1.1-3.7-.7-8.3-.9-10.9-.5-11.6,2.3-18.6.9Z"/>
  <path class="st3" d="M12.6,10.4"/>
</svg>