<svg width="48" height="48" viewBox="0 0 48 48" fill="none" xmlns="http://www.w3.org/2000/svg">
<path d="M25.7777 16.1889C27.721 17.5722 32.1575 17.4029 35.4867 19.1306C39.1359 21.0243 41.683 22.4064 42.0892 25.2685C42.4955 28.1306 39.7958 36.4372 36.2158 36.866C32.6359 37.2949 22.9325 34.4068 18.8684 31.9606C18.0888 31.0484 23.1497 21.0661 25.7777 16.1889Z" fill="#FFF2E5"/>
<path d="M35.4867 19.1306C36.251 21.1084 36.3061 26.6596 33.3538 28.1306M35.4867 19.1306C32.1575 17.4029 27.721 17.5722 25.7777 16.1889C23.1497 21.0661 18.0888 31.0484 18.8684 31.9606C22.9325 34.4068 32.6359 37.2949 36.2158 36.866C39.7958 36.4372 42.4955 28.1306 42.0892 25.2685C41.683 22.4064 39.1359 21.0243 35.4867 19.1306Z" stroke="#714B50" stroke-width="4" stroke-linecap="round"/>
<path d="M17.8555 33.77C13.6465 31.5828 9.07836 29.7433 4.91349 24.728C1.5816 20.7157 4.84353 13.7685 9.64425 10.8179C13.571 8.40443 21.3046 11.3535 26.5576 14.6179L17.8555 33.77Z" fill="#F7F8FA" stroke="#714B50" stroke-width="4" stroke-linecap="round"/>
</svg>
