<svg width="32" height="45" viewBox="0 0 32 45" fill="none" xmlns="http://www.w3.org/2000/svg">
<path d="M21.8136 37.1025C18.6135 39.5025 17.8136 35.6025 15.8136 36.1025C13.8136 36.6025 14.6136 39.1025 11.8136 41.1025C8.31361 43.6025 4.81371 41.1025 2.81347 37.1025C1.21327 33.9025 4.31319 24.8716 6.31335 19.6025C11.4802 19.7692 22.4138 21.0025 24.8136 24.6025C21.8135 31.1025 25.0137 34.7025 21.8136 37.1025Z" fill="#FFF2E5" stroke="#714B50" stroke-width="4"/>
<path d="M6.87072 19.7954C4.68614 20.0469 3.17991 19.9949 2.87048 18.6025C2.07048 15.0025 10.3708 4.55248 16.8705 2.60246C20.8703 1.40246 26.5372 4.43579 28.8707 6.10246C30.7041 16.2691 29.8706 27.1024 24.8707 25.1024C19.0374 22.7311 7.27072 18.3497 6.87072 19.7954Z" fill="#F7F8FA" stroke="#714B50" stroke-width="4"/>
</svg>
