<svg width="34" height="45" viewBox="0 0 34 45" fill="none" xmlns="http://www.w3.org/2000/svg">
<path d="M11.0184 37.5005C14.2895 39.9005 14.3482 36.0005 16.3926 36.5005C18.437 37.0005 19.0304 39.2266 21.8926 41.2266C25.4702 43.7266 28.8482 40.5005 30.8928 36.5005C32.5285 33.3005 28.9072 25.2695 26.8627 20.0005C21.5812 20.1672 10.4049 21.4005 7.95186 25.0005C11.0185 31.5005 7.74734 35.1005 11.0184 37.5005Z" fill="#FFF2E5" stroke="#714B50" stroke-width="4"/>
<path d="M26.2926 20.1933C28.5257 20.4448 30.0653 20.3928 30.3816 19.0004C31.1994 15.4004 22.7148 4.95043 16.0709 3.00041C11.9824 1.80041 6.18969 4.83374 3.80441 6.50041C1.9304 16.6671 2.78232 27.5004 7.89318 25.5004C13.856 23.129 25.8837 18.7476 26.2926 20.1933Z" fill="#F7F8FA" stroke="#714B50" stroke-width="4"/>
</svg>
