<svg width="72" height="82" viewBox="0 0 72 82" fill="none" xmlns="http://www.w3.org/2000/svg">
<path d="M9.67834 75.687C7.38093 72.7816 8.04727 68.3445 8.56256 66.3896C9.07784 64.4346 31.5089 65.0863 32.539 66.3896C33.569 67.6929 33.0965 73.3948 30.8662 76.2681C28.6539 79.1182 11.9758 78.5925 9.67834 75.687Z" fill="#1A1310"/>
<path d="M41.3544 69.5693C39.5165 67.1108 40.0496 63.3564 40.4618 61.7022C40.874 60.048 58.8189 60.5994 59.6429 61.7022C60.467 62.805 60.089 67.6297 58.3047 70.061C56.5349 72.4726 43.1923 72.0277 41.3544 69.5693Z" fill="#1A1310"/>
<path d="M10.0586 67.1558C7.85308 63.5798 10.2559 56.0804 10.7505 53.6743C11.2452 51.2682 32.7791 52.0703 33.7679 53.6743C34.7568 55.2784 35.1998 63.6193 33.0587 67.1558C30.9349 70.6636 12.2641 70.7317 10.0586 67.1558Z" fill="#FFF2E5"/>
<path d="M40.7793 63.1005C39.0459 59.6575 40.9344 52.4369 41.3231 50.1203C41.7119 47.8037 58.6361 48.5759 59.4132 50.1203C60.1904 51.6647 60.5386 59.6956 58.8559 63.1005C57.1867 66.4779 42.5127 66.5435 40.7793 63.1005Z" fill="#FFF2E5"/>
<path d="M8.76249 75.1582C7.26249 70.6582 8.76249 48.6582 8.76249 48.6582H33.7625C34.5958 54.8249 35.5625 68.7582 32.7625 75.1582C29.9625 81.5582 10.2625 79.6582 8.76249 75.1582Z" stroke="#714B50" stroke-width="4" stroke-linecap="round"/>
<path d="M40.7623 70.1606C39.5623 68.5606 40.2623 57.8273 40.7623 52.6606C43.7623 48.6606 57.2623 47.1606 58.7623 50.6606C60.2623 54.1606 60.2623 66.1606 58.7623 70.1606C57.2623 74.1606 42.2623 72.1606 40.7623 70.1606Z" stroke="#714B50" stroke-width="4" stroke-linecap="round"/>
<path d="M26.0591 51.1583C15.5591 48.1583 14.7625 50.6583 11.7625 51.1583C8.76253 51.6583 0.0590582 51.1583 4.05914 47.6606C8.05922 44.163 8.76253 20.9939 11.7625 10.1606C16.2619 10.6606 54.4239 9.32309 57.2631 8.66062C61.5587 7.65833 65.5587 39.1583 65.0587 42.6583C64.5587 46.1583 68.0587 46.1583 69.5587 48.6583C71.0587 51.1583 63.5591 54.1583 51.0591 51.1583C38.5591 48.1583 36.5591 54.1583 26.0591 51.1583Z" fill="#1A55B0" stroke="#714B50" stroke-width="4"/>
<path d="M22.0587 40.6582L19.0587 45.1582" stroke="#08439F" stroke-width="2" stroke-linecap="round"/>
<path d="M35.0147 41.6582C35.4059 43.4764 34.5587 45.6582 33.0587 45.6582" stroke="#08439F" stroke-width="2" stroke-linecap="round"/>
<path d="M60.0147 39.6582C60.4059 41.4764 60.5587 43.1582 59.0587 44.1582" stroke="#08439F" stroke-width="2" stroke-linecap="round"/>
<path d="M49.1188 39.7107C49.1188 41.2108 48.5849 42.7342 47.0585 43.6935" stroke="#08439F" stroke-width="2" stroke-linecap="round"/>
<path d="M31.0592 41.1583C34.059 40.6583 38.5594 37.1583 40.0594 35.1583C41.5594 33.1583 39.0573 14.1584 39.0573 14.1584C39.0573 14.1584 21.9887 7.59784 14.1388 13.1582C10.4673 15.7588 12.7187 28.4937 12.5594 32.1583C12.0594 43.6583 28.0594 41.6583 31.0592 41.1583Z" fill="white" stroke="#4F88E0" stroke-width="3" stroke-linecap="round"/>
<path d="M58.2066 8.35686C55.8361 9.04514 40.941 14.2372 40.941 14.2372C40.941 14.2372 42.5926 34.456 45.1012 35.6381C47.6098 36.8202 63.531 41.6179 64.0587 35.6381C64.5864 29.6584 60.577 7.66858 58.2066 8.35686Z" fill="white" stroke="#4F88E0" stroke-width="3" stroke-linecap="round"/>
<path d="M30.1193 25.0635C33.3308 24.6592 37.6542 12.7992 37.6542 12.7992L14.6388 11.1582C14.6388 11.1582 26.9077 25.4677 30.1193 25.0635Z" fill="white" stroke="#4F88E0" stroke-width="3" stroke-linecap="round"/>
<path d="M40.7433 10.7431C40.7433 10.7431 49.9278 21.8276 51.7437 21.7431C53.5596 21.6585 56.0592 9.65848 56.0592 9.65848L40.7433 10.7431Z" fill="white" stroke="#4F88E0" stroke-width="3" stroke-linecap="round"/>
<path d="M26.0153 52.3466C15.4716 49.2627 14.6718 51.8326 11.6593 52.3466C8.64677 52.8605 -0.0929489 52.3466 3.92379 48.7512C7.94054 45.1557 8.64677 21.3393 11.6593 10.2032C16.1774 10.7172 54.4983 9.34226 57.3494 8.66127C61.6628 7.63097 65.6795 40.0113 65.1774 43.6091C64.6753 47.2069 68.052 46.5885 69.5582 49.1583C71.0645 51.7282 63.6715 55.4304 51.1195 52.3466C38.5674 49.2627 36.5591 55.4304 26.0153 52.3466Z" stroke="#714B50" stroke-width="4"/>
</svg>
