<svg width="76" height="80" viewBox="0 0 76 80" fill="none" xmlns="http://www.w3.org/2000/svg">
<path d="M43.2086 73.9558C41.2397 71.3221 41.8107 67.3001 42.2524 65.5281C42.694 63.756 61.9176 64.3467 62.8003 65.5281C63.6831 66.7094 63.2782 71.8779 61.3668 74.4825C59.4708 77.066 45.1775 76.5894 43.2086 73.9558Z" fill="#1A1310"/>
<path d="M13.2306 74.8889C11.2617 72.2552 11.8327 68.2332 12.2743 66.4612C12.7159 64.6891 31.9396 65.2798 32.8223 66.4612C33.7051 67.6425 33.3002 72.8111 31.3888 75.4156C29.4928 77.9991 15.1995 77.5225 13.2306 74.8889Z" fill="#1A1310"/>
<path d="M42.5925 67.0257C40.7356 63.3373 42.7586 55.6022 43.1751 53.1205C43.5916 50.6388 61.7218 51.466 62.5543 53.1205C63.3869 54.775 63.7599 63.3781 61.9572 67.0257C60.1691 70.6437 44.4494 70.714 42.5925 67.0257Z" fill="#FFF2E5"/>
<path d="M12.6145 67.9593C10.7576 64.2709 12.7806 56.5358 13.1971 54.0541C13.6135 51.5724 31.7437 52.3996 32.5763 54.0541C33.4088 55.7085 33.7819 64.3117 31.9792 67.9593C30.1911 71.5773 14.4714 71.6476 12.6145 67.9593Z" fill="#FFF2E5"/>
<path d="M42.5743 74.5889C41.2888 72.8749 42.0387 61.3767 42.5743 55.8419C45.7881 51.5568 60.2501 49.9499 61.857 53.6993C63.4639 57.4487 63.4639 70.3039 61.857 74.5889C60.2501 78.874 44.1812 76.7314 42.5743 74.5889Z" stroke="#714B50" stroke-width="4" stroke-linecap="round"/>
<path d="M12.5963 75.522C11.3108 73.808 12.0606 62.3098 12.5963 56.775C15.81 52.4899 30.2721 50.883 31.879 54.6324C33.4859 58.3818 33.4859 71.237 31.879 75.522C30.2721 79.8071 14.2032 77.6645 12.5963 75.522Z" stroke="#714B50" stroke-width="4" stroke-linecap="round"/>
<path d="M26.8233 54.2328C15.5751 51.019 14.7218 53.6972 11.508 54.2328C8.29421 54.7684 -1.02948 54.2328 3.25565 50.4859C7.54079 46.739 8.29421 21.9189 11.508 10.3136C16.328 10.8492 57.2094 9.4164 60.251 8.70672C64.8527 7.633 69.1377 41.3777 68.6021 45.1271C68.0665 48.8765 71.8159 48.8765 73.4228 51.5547C75.0297 54.2328 66.9956 57.4466 53.6048 54.2328C40.2141 51.019 38.0715 57.4466 26.8233 54.2328Z" fill="#1A55B0" stroke="#714B50" stroke-width="4"/>
<path d="M22.5379 42.9844L19.3241 47.805" stroke="#08439F" stroke-width="2" stroke-linecap="round"/>
<path d="M36.4172 44.0557C36.8363 46.0034 35.9287 48.3407 34.3218 48.3407" stroke="#08439F" stroke-width="2" stroke-linecap="round"/>
<path d="M63.1987 41.9131C63.6178 43.8608 63.7815 45.6625 62.1746 46.7338" stroke="#08439F" stroke-width="2" stroke-linecap="round"/>
<path d="M51.5263 41.9694C51.5263 43.5763 50.9543 45.2083 49.3192 46.2359" stroke="#08439F" stroke-width="2" stroke-linecap="round"/>
<path d="M32.1797 43.5203C35.3933 42.9847 40.2145 39.2353 41.8213 37.0927C43.4282 34.9502 40.7478 14.5963 40.7478 14.5963C40.7478 14.5963 22.4628 7.56827 14.0536 13.5249C10.1205 16.3108 12.5323 29.9531 12.3617 33.8789C11.826 46.1984 28.9662 44.0559 32.1797 43.5203Z" fill="white" stroke="#4F88E0" stroke-width="3" stroke-linecap="round"/>
<path d="M61.2617 8.38099C58.7223 9.11832 42.7657 14.6804 42.7657 14.6804C42.7657 14.6804 44.5351 36.34 47.2224 37.6063C49.9098 38.8727 66.9656 44.0122 67.5309 37.6063C68.0962 31.2005 63.8011 7.64367 61.2617 8.38099Z" fill="white" stroke="#4F88E0" stroke-width="3" stroke-linecap="round"/>
<path d="M31.1728 26.2781C34.6132 25.845 39.2447 13.1399 39.2447 13.1399L14.5892 11.382C14.5892 11.382 27.7324 26.7112 31.1728 26.2781Z" fill="white" stroke="#4F88E0" stroke-width="3" stroke-linecap="round"/>
<path d="M42.5539 10.9372C42.5539 10.9372 52.3929 22.8117 54.3382 22.7211C56.2836 22.6305 58.9612 9.77534 58.9612 9.77534L42.5539 10.9372Z" fill="white" stroke="#4F88E0" stroke-width="3" stroke-linecap="round"/>
<path d="M26.7765 55.5058C15.4814 52.2022 14.6246 54.9552 11.3974 55.5058C8.17026 56.0564 -1.19225 55.5058 3.11072 51.6541C7.4137 47.8025 8.17026 22.2889 11.3974 10.3592C16.2375 10.9098 57.2892 9.43693 60.3434 8.70742C64.9643 7.6037 69.2672 42.2914 68.7293 46.1456C68.1915 49.9998 71.8087 49.3373 73.4223 52.0903C75.0359 54.8433 67.1161 58.8093 53.6696 55.5058C40.2231 52.2022 38.0716 58.8094 26.7765 55.5058Z" stroke="#714B50" stroke-width="4"/>
</svg>
