<svg width="197" height="194" viewBox="0 0 197 194" fill="none" xmlns="http://www.w3.org/2000/svg">
<path d="M124.217 98.0731C125.229 98.1855 125.976 98.1872 129.241 97.9614C132.279 97.7513 138.13 97.5106 141.819 97.422C145.507 97.3334 146.856 97.4459 149.548 97.8413C152.24 98.2367 156.233 98.9116 158.403 99.2592C160.797 99.6069 161.198 99.7194 161.482 99.9742C161.597 100.116 161.653 100.285 161.711 100.459" stroke="#F6DF8F" stroke-width="4" stroke-linecap="round"/>
<path d="M113.65 95.0051C114.1 94.7801 115.513 94.4955 120.93 94.3805C125.166 94.2905 132.421 94.7154 136.637 94.9446C140.852 95.1738 141.808 95.3425 143.454 95.4857C147.405 95.7413 150.175 95.9697 150.884 96.1401C151.199 96.1981 151.424 96.1981 151.826 96.5389" stroke="#F6DF8F" stroke-width="4" stroke-linecap="round"/>
<path d="M117.57 92.4492C117.964 92.4492 118.358 92.4492 122.272 92.4773C126.187 92.5055 133.611 92.5617 141.26 92.6196" stroke="#F6DF8F" stroke-width="4" stroke-linecap="round"/>
<path d="M115.867 97.2207C115.98 97.1645 116.092 97.1083 121.662 96.3482C127.231 95.588 138.254 94.1258 144.271 93.2881C150.287 92.4505 150.962 92.2818 151.45 92.1948C151.938 92.1079 152.219 92.1079 152.679 91.9375" stroke="#F6DF8F" stroke-width="4" stroke-linecap="round"/>
<path d="M142.794 86.3135C143.471 86.2572 144.723 86.1993 148.27 87.1844C151.593 88.1074 158.003 89.9129 161.559 90.9525C165.642 92.1463 166.424 92.6738 167.187 93.3521C169.433 95.4569 170.458 96.3653 171.054 96.7649C171.197 96.8783 171.31 97.047 171.596 97.2208" stroke="#F6DF8F" stroke-width="4" stroke-linecap="round"/>
<path d="M164.609 89.04C165.005 89.265 165.911 90.1717 166.963 91.1099C168.4 92.3918 169.952 92.4344 173.07 94.8144C174.436 95.8567 175.859 97.5256 175.07 98.3144C174.07 99.3144 177.051 100.796 177.248 101.479C177.674 102.386 178.578 104.873 178.953 106.279C178.981 106.478 179.038 106.703 179.096 107.276" stroke="#F6DF8F" stroke-width="4" stroke-linecap="round"/>
<path d="M155.746 97.5618C154.619 97.5618 152.341 97.4493 151.939 97.3905C151.307 97.2979 154.367 98.5792 156.921 99.4024C158.444 99.8933 160.39 100.623 163.027 101.926C166.706 103.978 167.787 104.83 168.466 105.397C168.864 105.683 169.37 105.964 170.232 106.594" stroke="#F6DF8F" stroke-width="4" stroke-linecap="round"/>
<path d="M156.428 93.3008C157.164 94.037 158.071 94.7187 160.721 95.8188C162.908 96.7267 166.858 98.2125 169.814 99.5572C172.77 100.902 174.626 102.027 175.723 102.719C177.101 103.635 177.671 104.148 178.182 104.631C178.411 104.832 178.58 104.944 178.754 105.06" stroke="#F6DF8F" stroke-width="4" stroke-linecap="round"/>
<path d="M154.725 93.3008C155.4 93.6382 156.141 94.1495 157.722 95.2232C158.909 95.9594 160.877 97.0843 163.438 98.3105C165.998 99.5367 169.092 100.83 172.619 102.504" stroke="#F6DF8F" stroke-width="4" stroke-linecap="round"/>
<path d="M153.02 94.3232C153.756 94.7203 156.575 95.172 160.66 95.7957C163.411 96.2158 165.057 96.7638 166.247 97.1609C167.325 97.4455 168.24 97.7301 168.977 98.0138C169.321 98.1289 169.602 98.1851 169.892 98.2431" stroke="#F6DF8F" stroke-width="4" stroke-linecap="round"/>
<path d="M87.5758 120.74C87.5758 121.302 87.5758 121.873 87.9132 124.633C88.2168 127.116 88.9256 131.78 89.2732 135.703C89.6209 139.626 89.6209 142.663 89.6209 144.115C89.6209 145.567 89.6209 145.342 89.6772 144.861C89.7334 144.379 89.8459 143.648 89.9319 141.5C90.018 139.352 90.0742 135.809 89.5127 130.272C88.9511 124.734 87.7701 117.311 87.2741 118.66C86.7782 120.01 87.0032 130.358 87.2034 136.139C87.4037 141.92 87.5724 142.82 87.6874 143.368C87.8025 143.916 87.8587 144.085 88.1408 143.159C88.4228 142.234 88.929 140.209 89.4991 135.173C90.0691 130.137 90.6878 122.151 91.0346 118.121C91.3814 114.091 91.4377 114.26 91.6072 117.299C91.7768 120.339 92.058 126.244 91.7811 132.661C91.5041 139.077 90.6605 145.826 90.2259 149.162C89.7913 152.499 89.7913 152.217 89.9601 151.735C90.1288 151.253 90.4662 150.578 90.8369 149.583C91.2076 148.589 91.6013 147.295 93.66 142.467C95.7188 137.639 98.5777 127.052 100.63 122.314C103.056 116.716 104.107 117.507 103.995 117.893C103.743 118.756 103.657 121.091 103.176 123.909C102.694 126.728 101.963 129.99 100.63 134.005C99.2978 138.019 97.3856 142.687 96.3724 145.204C95.3592 147.722 95.303 147.946 95.2177 147.922C94.8679 147.82 94.8479 146.932 94.7908 145.999C94.7166 144.784 95.4103 142.007 96.346 138.404C96.7435 136.874 97.1129 135.983 98.2147 133.804C99.3165 131.625 101.172 128.194 102.016 126.595C102.86 124.997 102.635 125.334 102.378 125.846C101.794 127.01 100.82 128.796 98.2215 132.833C96.3236 135.782 93.3737 140.639 91.6976 143.44C89.6743 146.821 89.2255 147.778 88.8565 148.316C88.6899 148.56 88.6563 148.799 88.5992 147.902C88.5421 147.006 88.4859 144.981 88.9631 140.901C89.4403 136.821 90.4526 130.747 91.9864 125.256C93.5203 119.765 95.545 115.04 96.8129 112.213C98.4506 108.561 99.2756 107.45 99.7017 107.276C99.904 107.193 99.8465 108.114 98.7217 112.764C97.5969 117.414 95.3473 126.019 94.104 130.677C92.8607 135.335 92.692 135.785 93.7018 131.124C94.7116 126.462 96.905 116.677 98.063 111.776C99.2211 106.875 99.2773 107.156 99.2782 109.045C99.279 110.933 99.2228 114.42 98.9126 118.016C98.6024 121.612 98.04 125.212 97.3847 128.275C96.7294 131.338 95.9983 133.757 95.6216 134.553C95.245 135.349 95.245 134.449 95.8355 131.511C96.4261 128.572 97.6071 123.623 99.1716 118.768C100.736 113.912 102.648 109.3 103.633 107.009C104.618 104.718 104.618 104.886 104.394 105.761C104.169 106.635 103.719 108.21 102.728 110.849C101.737 113.488 100.218 117.144 99.2671 119.195C98.3161 121.247 97.9787 121.585 97.7767 121.674C97.5747 121.764 97.5185 121.595 97.5176 121.143C97.5154 119.958 98.0247 117.968 99.4648 114.463C100.414 112.152 102.198 108.932 103.911 106.24C105.624 103.547 107.311 101.522 108.293 100.282C109.275 99.0425 109.5 98.6488 109.644 98.5584C109.848 98.4302 109.339 100.275 108.178 102.798C107.627 103.995 106.96 104.927 105.264 106.938C103.567 108.949 100.811 111.986 99.1103 113.804C97.4094 115.622 96.847 116.128 96.5854 115.939C95.6874 115.289 96.7754 112.91 97.596 110.701C98.5623 108.101 100.01 105.64 101.37 103.485C104.213 98.983 107.347 97.0485 106.979 97.5009C106.474 98.121 105.085 100.384 102.198 104.123C100.642 106.138 98.524 108.087 96.9186 109.496C94.3111 111.783 92.6358 112.557 92.0674 112.56C91.3847 112.563 92.4568 110.466 93.5603 108.512C94.1702 107.432 95.0575 106.277 96.5326 104.656C98.0076 103.036 100.089 101.011 102.707 98.7868C105.326 96.5627 108.419 94.2006 110.575 92.6745C113.774 90.4098 115.802 89.611 117.192 89.185C117.784 89.0033 118.188 89.0401 118.447 89.1807C118.706 89.3213 118.818 89.6025 118.68 89.8599C118.541 90.1172 118.147 90.3422 116.735 90.7955C115.323 91.2488 112.905 91.9237 110.562 92.7776C108.22 93.6314 106.026 94.6437 104.953 94.9965C103.879 95.3493 103.991 95.0119 104.555 94.36C106.029 92.6572 108.131 91.1483 110.789 89.7891C112.441 88.9442 114.909 88.205 118.095 87.5173C121.281 86.8297 125.162 86.3235 127.723 86.0627C130.285 85.802 131.41 85.802 132.017 85.8863C132.625 85.9707 132.681 86.1394 132.569 86.367C132.458 86.5945 132.177 86.8757 131.863 87.0768C131.549 87.2779 131.212 87.3904 127.354 88.0951C123.497 88.7998 116.129 90.0933 111.546 90.7878C106.964 91.4823 105.389 91.5386 104.718 91.4832C104.048 91.4278 104.329 91.2591 107.567 90.4129C110.805 89.5667 116.991 88.0482 120.46 87.1535C124.51 86.1085 125.688 85.6333 126.935 85.2651C129.053 84.6396 130.063 84.384 130.891 84.211C130.992 84.1898 130.922 84.4352 130.781 84.6064C130.462 84.9919 129.283 85.514 127.16 86.2792C125.958 86.7126 124.419 86.9882 122.09 87.3307C119.761 87.6733 116.668 88.0107 114.962 88.1846C112.52 88.4334 111.609 88.6413 110.615 88.5868C110.431 88.5767 110.525 88.2493 110.611 88.0491C110.947 87.2581 112.11 86.545 113.221 85.635C113.87 85.1029 114.783 84.8374 117.995 84.4701C120.752 84.155 125.82 83.8216 130.48 83.6469C135.14 83.4722 139.246 83.5285 141.445 83.5856C143.815 83.6471 144.212 83.8131 144.609 83.9827C144.799 84.0636 144.894 84.2647 144.839 84.436C144.5 85.5009 141.784 85.1203 138.194 84.9234C135.782 84.7911 132.187 84.3329 130.051 84.1301C127.916 83.9273 127.353 83.9273 127.148 83.9835C126.943 84.0398 127.111 84.1523 129.279 84.1821C131.447 84.2119 135.609 84.1557 138.737 84.211C141.865 84.2664 143.834 84.4352 145.326 84.6346C147.789 84.9637 149.322 85.5157 150.033 85.8565C150.192 85.9324 149.049 85.5225 146.924 84.2741C144.704 82.9695 142.291 82.3951 140.057 82.1395C136.774 81.7639 134.559 81.9963 133.6 81.9111C130.085 81.599 127.926 82.0526 126.578 82.2503C125.353 82.4299 124.051 83.0172 123.112 83.0752C123.033 83.08 123.928 82.9627 126.72 82.736C128.946 82.5553 132.831 82.5093 136.264 82.5076C139.697 82.5059 142.566 82.6184 145.562 82.9013C148.558 83.1842 151.595 83.6342 153.441 83.9503C156.697 84.5081 157.447 85.2873 159.317 87.1279C161.51 89.2871 161.427 90.2314 161.428 90.4589C161.429 90.683 160.299 90.0098 159.078 89.329C158.339 88.9162 156.277 87.5744 153.268 85.7858C150.769 84.3002 148.256 84.4386 145.853 84.8604C141.9 85.5543 139.277 87.2762 138.454 87.8147C138.076 88.0627 137.801 88.297 137.628 88.5254C137.455 88.7538 137.398 88.9787 137.482 89.2352C137.674 89.8247 138.528 90.2314 140.026 90.5714C141.008 90.7942 142.481 90.9114 146.44 91.1951C150.399 91.4789 156.81 91.8726 159.972 92.1035C163.135 92.3345 162.853 92.3907 159.475 91.9979C156.096 91.605 149.628 90.7614 143.288 90.3549C136.947 89.9485 130.929 90.0047 127.745 90.0618C124.56 90.1189 124.391 90.1751 124.558 90.2322C124.724 90.2893 125.23 90.3456 130.131 90.1496C135.031 89.9536 144.311 89.5037 148.951 89.3844C153.591 89.2651 153.309 89.49 152.883 89.6903C152.457 89.8905 151.895 90.0593 147.05 91.0179C142.204 91.9766 133.093 93.72 128.4 94.5338C123.706 95.3476 123.706 95.1789 123.847 94.9514C124.194 94.3892 125.683 93.4218 128.259 91.9484C133.613 88.8862 135.462 88.5868 135.917 88.5007C136.109 88.4644 135.525 89.0946 131.809 91.4602C128.395 93.6335 121.794 97.6501 117.251 100.777C112.709 103.903 110.403 105.984 109.215 106.887C108.027 107.79 108.027 107.453 108.196 106.998C108.364 106.543 108.702 105.981 111.154 103.469C113.605 100.958 118.161 96.515 117.583 96.9258C117.005 97.3365 111.156 102.736 107.974 105.601C104.792 108.467 104.455 108.636 104.253 108.582C102.885 108.219 105.181 104.39 106.652 101.785C107.482 100.315 108.797 98.7306 110.082 97.2155C111.366 95.7004 112.659 94.3506 114.197 92.9241C115.735 91.4977 117.479 90.0354 118.377 89.4789C119.275 88.9225 119.275 89.3162 117.869 91.4312C116.463 93.5462 113.651 97.3706 111.584 100.016C108.391 104.1 106.723 105.57 106.241 105.741C106.051 105.808 105.927 105.575 105.954 105.207C106.022 104.258 106.941 102.628 109.172 99.6313C110.673 97.615 113.372 94.9471 114.845 93.3025C116.318 91.6579 116.6 91.2079 116.744 90.7793C116.889 90.3507 116.889 89.957 116.833 89.6698C116.777 89.3827 116.664 89.2139 116.522 89.0708C115.78 88.3242 113.099 88.3584 111.609 87.934C110.173 87.5247 107.246 90.3388 105.843 91.1969C105.646 91.3173 105.474 91.3681 105.387 91.3127C105.3 91.2574 105.3 91.0886 105.385 90.9174C106.083 89.4991 108.589 88.5868 109.698 87.992C111.976 86.7699 114.894 86.4837 115.917 86.6524C116.25 86.7073 116.041 87.1586 115.841 87.473C115.063 88.7002 113.77 89.6025 112.831 90.3166C112.253 90.7557 111.608 90.5739 111.324 90.4615C110.972 90.322 111.095 89.4423 111.123 88.6481C111.168 87.3814 113.242 85.9792 114.697 85.0666C116.55 83.9038 118.355 83.5319 119.697 83.105C121.552 82.515 124.545 81.9981 126.708 81.8259C128.349 81.6954 131.186 81.5413 134.167 81.5694C136.207 81.5887 137.221 81.8242 140.171 81.9384C140.355 81.9455 137.647 82.223 134.154 82.1949C132.74 82.1835 131.5 82.0526 129.853 81.9682C129.269 81.9383 129.218 81.7151 131.804 81.6282C134.39 81.5413 139.621 81.5413 142.512 81.5694C145.798 81.6014 147.552 81.7117 149.738 81.7399C151.432 81.7616 152.335 81.9946 153.866 82.3636C154.84 82.5984 155.856 83.1842 156.738 83.8966C157.407 84.4373 158.242 84.834 158.982 85.1757C159.9 85.5993 160.686 86.2553 161.962 86.9634C163.005 87.5422 163.585 87.9596 163.925 88.13C164.086 88.211 164.265 88.188 164.295 88.1036C164.561 87.3735 162.966 86.6575 162.056 85.8335C161.117 84.9837 160.239 83.9307 159.273 83.6154C158.187 83.2613 157.342 83.191 156.601 82.7641C155.861 82.3374 154.448 82.223 153.505 82.3926C152.459 82.581 150.869 82.7888 149.813 82.961C149.613 83.0172 149.444 83.1297 149.245 83.272C149.045 83.4143 148.82 83.583 148.248 84.0977" stroke="#F6DF8F" stroke-width="4" stroke-linecap="round"/>
<path d="M105.641 115.968C105.641 115.406 106.484 113.429 108.016 110.535C108.665 109.307 109.209 108.653 109.808 107.968C110.406 107.283 111.081 106.608 114.156 104.77C117.231 102.932 122.687 99.9515 128.478 96.71" stroke="#F6DF8F" stroke-width="4" stroke-linecap="round"/>
<path d="M11.4285 74.6666C11.4285 74.4392 11.5422 73.8674 11.885 72.951C12.5715 71.1156 14.5222 70.9942 15.9019 69.9624C16.5182 69.5015 17.9638 69.499 19.5709 69.6696C20.1758 69.7338 20.2685 70.1812 20.3271 70.6411C20.575 72.5877 19.4693 74.1981 18.8388 75.4676C18.142 76.8707 15.914 74.7838 14.4774 74.4375C12.7141 74.0126 11.0909 75.2385 9.71114 75.6984C9.36491 75.8138 9.02385 75.9275 9.01868 75.8155C8.95512 74.4385 11.649 74.4392 14.1708 74.0362C19.7398 73.146 22.3286 75.2385 24.1115 75.6984C25.6108 76.0852 26.697 77.4158 28.0164 78.1668C29.7358 79.1455 31.6303 80.3992 32.7844 81.8961C33.7969 83.2093 34.848 84.423 36.1709 85.3997C37.4412 86.3375 37.9485 87.6407 39.0423 88.7862C40.3086 90.1122 41.1662 91.5405 42.1429 93.1493C42.9667 94.5064 44.1496 95.6746 45.4725 97.0543C46.6431 98.2752 47.1399 99.8086 47.6567 101.188C48.2071 102.658 49.3172 103.715 50.0682 104.978C50.8851 106.351 52.1904 107.388 53.3961 108.196C54.713 109.078 55.8628 110.488 56.9566 111.811C58.1509 113.256 59.7695 114.622 61.0321 115.659C62.2951 116.697 63.4419 117.613 64.8217 118.415C65.1813 118.625 65.509 118.874 65.5141 118.877C66.4932 119.53 62.1191 118.631 60.8564 117.937C59.5471 117.217 59.3216 114.981 57.9419 113.658C56.721 112.487 55.1876 111.99 54.378 111.186C53.5433 110.357 56.0902 113.816 57.873 114.684C60.016 115.728 62.7529 117.151 64.1327 117.728C65.5112 118.305 66.887 118.991 68.2667 119.793C69.7568 120.66 71.9232 123.016 72.0971 123.589C72.1664 123.818 71.7027 123.936 71.3564 123.937C69.9348 123.944 67.2453 121.526 66.5476 120.889C64.1693 118.716 72.5093 122.091 75.8389 122.038C77.8263 122.006 78.7173 120.83 79.4631 121.001C80.8456 121.317 80.9015 123.807 81.3614 125.647C81.7946 127.379 82.2795 128.747 82.7394 130.127C83.1993 131.507 83.6575 133.109 84.1174 134.605C84.5677 136.071 84.691 137.704 84.865 142.286C84.9877 145.518 85.38 148.728 85.8968 150.108C86.4472 151.578 86.8752 153.09 87.218 154.587C87.3797 155.293 87.7916 155.966 87.9655 156.313C88.9982 158.368 83.7815 152.415 82.4018 150.981C80.5825 149.092 80.7912 146.565 80.3881 142.505C79.1661 130.196 80.6741 127.397 81.0169 125.314C81.2595 123.84 83.6007 123.817 84.1174 122.437C84.8316 120.53 85.6541 117.603 86.8564 115.937C88.0477 114.287 88.5908 112.686 89.6278 110.617C90.3896 109.098 91.3469 106.609 92.3838 104.358C93.0736 102.86 94.3303 101.318 96.4559 98.6201C98.0194 96.6359 99.8424 95.461 101.053 94.0209C102.048 92.8379 102.833 91.5543 103.124 88.4589C103.222 87.4109 103.411 85.4772 103.298 82.8951C103.205 80.7785 101.234 79.8411 100.257 78.2908C98.8998 76.1357 98.1336 74.6735 97.2138 73.2938C96.2575 71.8594 95.2604 70.5394 94.5146 69.1597C93.7929 67.8246 92.966 66.178 92.103 64.6811C91.3669 63.4042 89.0542 63.317 88.5374 61.9373M75.4531 31.9373C74.1651 30.3048 70.2287 22.9977 69.252 21.618C68.1927 20.1214 67.1281 18.8636 65.9224 17.7698C64.7165 16.676 63.6831 15.4186 62.4773 14.3248C61.2597 13.2202 59.9004 11.1743 58.2864 9.61712C57.1438 8.51478 56.7895 7.49152 56.6173 7.71372C54.2246 10.8003 56.9032 14.3575 57.246 16.44C57.4887 17.9144 58.9633 18.967 60.3431 19.6009C61.7691 20.256 63.0974 21.034 64.1912 22.2966C65.4487 23.7482 66.5425 25.1681 67.5794 26.4307C68.6319 27.7122 69.4156 29.185 70.7919 30.9644C72.4614 33.1227 73.5497 34.3526 74.7555 35.5033C76.1177 36.8032 76.8776 38.714 78.2005 39.9818C79.56 41.2847 80.0953 42.9652 80.6724 44.6309C81.228 46.2348 80.8174 49.516 81.7941 51.5882C84.0795 56.4371 87.3561 62.4901 88.8564 64.6811C89.9908 66.3378 92.4975 67.308 93.0745 68.8049C93.612 70.1991 94.3372 71.5592 95.083 72.9389C95.8047 74.274 96.4042 75.6932 96.921 77.073C97.4714 78.5426 98.1267 80.0547 98.8726 81.8943C99.579 83.6368 100.538 84.9949 100.941 86.6589C101.606 89.4026 98.7193 91.761 96.9278 93.6093C95.6402 94.9378 94.4612 96.7081 93.1383 98.3738C92.0151 99.7879 90.899 101.187 89.6364 103.195C88.422 105.127 87.2266 107.381 85.9037 109.169C84.7538 110.723 84.2363 112.211 83.3767 113.591C82.4092 115.144 80.9083 116 79.3598 117.552C78.2033 118.711 76.2024 117.847 74.8227 117.387C73.3402 116.893 71.7238 116.469 70.0013 115.323C68.2189 114.138 67.1281 112.914 65.9224 111.191C64.7511 109.518 63.6831 108.091 62.4773 106.654C61.1341 105.054 60.0106 103.495 59.2028 102.289C58.1843 100.769 56.6758 99.4779 55.4167 96.9561C53.8194 93.7571 51.8596 92.3604 50.9347 90.9772C50.7532 90.7059 50.3645 90.631 50.132 90.7998C48.3796 92.0719 49.896 95.9019 50.6987 97.4557C51.5727 99.1475 52.7623 100.27 53.8561 101.419C54.9903 102.611 57.1237 103.598 58.3346 105.035C59.6615 106.609 60.6859 107.849 61.4369 109.112C62.3978 110.728 63.218 112.214 63.2197 111.935C63.2472 107.479 59.5628 102.613 57.1392 98.3324C55.915 96.1702 53.6924 93.9658 52.373 92.8152C50.6851 91.3432 49.5584 90.1763 48.3526 89.0825C47.2078 88.044 45.6586 86.8483 44.3339 85.2378C42.6532 83.1943 41.4074 82.1355 40.3704 80.8729C40.1063 80.5513 39.9122 80.1856 39.7951 80.2941C37.7824 82.1588 43.1161 86.6003 44.439 88.955C45.2812 90.454 46.3372 90.8549 46.4526 91.2012C46.9091 92.5706 44.625 87.0826 43.7569 85.0087C42.9529 83.0881 41.6347 81.5636 40.3721 79.9548C39.3065 78.597 37.6178 77.7741 35.8384 76.8525C34.579 76.2002 33.8248 75.1283 33.1943 75.0111C32.8899 74.9546 32.6776 75.5761 32.6173 75.9809C32.3975 77.457 33.9316 78.7938 34.9651 80.1167C35.551 80.8667 36.4603 81.2088 36.7479 81.555C37.4819 82.4384 34.6344 79.3795 33.3098 78.1168C31.3819 76.2792 29.3497 75.1283 27.9699 74.3256C26.3422 73.3786 24.189 70.8908 22.4578 69.5593C21.092 68.5088 19.359 67.3218 17.5228 66.5156C16.9852 66.2796 16.2654 66.3985 15.914 66.1711C15.5626 65.9437 15.5626 65.489 15.6194 65.0842C15.8319 63.5713 16.5961 61.8166 16.9389 60.2026C17.2493 58.7409 18.2015 57.4482 18.6614 56.0117C18.9321 55.166 19.235 54.3443 19.75 53.7706C20.7461 52.6614 22.2184 51.9362 23.481 51.242C24.7555 50.5413 26.2353 50.3239 27.6719 49.9208C29.2859 49.468 31.8508 49.5177 33.8162 49.1749C35.2489 48.9251 36.5705 48.2568 37.8934 47.6832C39.3589 47.0478 39.7882 45.046 40.6512 43.6663C41.0463 43.0346 41.056 41.7181 40.8854 40.2833C40.7121 38.8246 38.9958 37.8114 38.2448 36.4317C37.4672 35.0031 36.6945 33.6774 36.2346 32.2976C36.1192 31.9514 36.0055 31.6103 35.7196 31.4346C35.4336 31.2589 34.9789 31.2589 35.2562 31.2589C37.9544 31.2589 39.3265 31.8308 40.9922 32.2907C41.7443 32.4984 42.999 32.637 44.4338 32.4664C46.142 32.2634 45.8721 29.309 46.966 28.1636C47.6092 27.4899 48.0598 26.7838 48.232 25.9828C48.6473 24.0516 46.8023 22.6532 45.6534 21.5594C44.5331 20.4928 43.8154 19.3184 43.4124 19.1444C42.0595 18.5605 45.8721 21.723 47.8806 22.6429C49.7556 23.5016 51.3842 23.9072 52.764 24.3671C54.2464 24.8613 55.8628 25.2852 57.6439 25.1181C58.0502 25.08 57.9367 24.2655 57.7662 23.9158C57.4636 23.2954 56.5621 23.2216 55.9885 23.2768C53.9435 23.4733 55.2978 27.807 54.4383 29.1867C53.4688 30.743 52.3144 31.9411 51.3377 33.264C50.3707 34.5738 48.9865 35.5033 47.6067 36.4799C45.9163 37.6765 44.5079 39.2928 42.8422 40.4417C42.4579 40.7068 42.0964 40.788 41.807 40.676C41.1661 40.428 41.056 38.9621 41.2265 37.4135C41.3475 36.3146 42.3169 35.6273 42.8319 34.8246C43.8055 33.3072 46.8988 33.4431 48.6299 32.8127C50.5015 32.1311 51.3842 30.4597 52.478 28.8543C53.6517 27.1317 55.4012 25.8709 56.9549 25.0027C58.8883 23.9224 61.3749 24.5962 62.6978 25.1698C63.4038 25.4759 63.5625 26.5461 63.7347 27.633C63.9585 29.0446 63.5659 30.222 63.0509 30.9093C61.7554 32.638 59.0943 33.4362 57.7111 34.9848C56.608 36.2197 56.7895 37.8011 56.5604 38.0905C55.5218 39.4024 57.0134 34.3664 57.5905 32.9866C58.1517 31.6449 58.2812 30.4597 58.1107 30.1117C57.1173 28.0848 55.1876 33.3191 53.8078 34.5851C52.6709 35.6284 51.0535 36.1923 49.7306 37.4549C48.507 38.6227 47.8358 40.2092 46.8592 41.5889C45.7998 43.0854 44.5079 44.5706 43.5278 46.0675C42.7204 47.3006 42.3237 49.0492 40.3756 50.6029C38.4027 52.1763 36.9288 52.7285 34.0625 54.1065C32.1672 55.0177 29.4737 54.6853 27.6254 55.0281C25.2384 55.4708 22.2253 55.7154 21.8239 56.4595C20.9434 58.0922 20.6199 59.846 20.1565 61.2826C19.6259 62.9279 21.9841 64.5519 23.481 65.9351C24.5794 66.9501 26.2353 67.1977 27.9579 68.1744C29.8487 69.2465 31.0584 70.6428 32.4382 71.2767C34.0588 72.0213 35.7644 73.6262 37.2612 74.9491C38.7545 76.2688 41.0422 78.7869 42.4874 80.6317C44.1376 82.7383 45.6448 84.6504 46.9642 86.0301C48.46 87.5943 49.7788 88.7845 51.8993 90.507C53.8273 92.0732 54.9464 93.952 56.5518 95.5609C57.9344 96.9464 59.8797 97.3971 61.8916 99.3487C63.2231 100.64 64.3583 102.675 66.2531 104.401C69.7119 107.552 70.7937 108.766 72.5713 110.717C73.8602 112.132 75.1585 112.79 75.8458 112.964C77.4217 113.362 78.8275 111.418 80.6672 110.957C82.7976 110.422 84.1054 107.408 87.4953 102.647C89.636 99.6408 90.7681 95.1302 92.7249 92.5878C94.2634 90.5888 96.0528 89.3701 97.7788 88.1075C98.1749 87.8177 98.3541 87.4202 98.1302 87.5856C95.8784 89.2484 94.2338 90.3967 92.3373 91.4854C90.2541 92.6812 88.4875 92.6946 87.6279 93.1511C85.322 94.3756 85.2698 97.3971 84.4671 99.1179C83.0054 102.251 82.8582 104.742 82.2846 106.356C82.1456 106.747 81.7145 107.043 81.3114 107.162C80.9083 107.281 80.4536 107.167 80.2193 106.654C79.0025 103.988 80.7843 101.662 81.3045 99.8224C82.2104 96.6189 87.5573 93.6213 88.8234 91.6697C89.6942 90.3273 91.0024 88.9154 92.3821 87.1325C93.5548 85.6172 94.5645 84.3197 94.8574 83.3947C95.9428 79.966 88.4944 89.7008 86.5376 90.9686C83.4088 92.9957 80.7981 98.9887 79.2444 101.817C77.9767 104.125 77.1653 107.388 75.8458 108.196C75.4504 108.438 74.597 107.388 74.1922 107.45C73.7874 107.512 73.4464 107.284 73.2707 106.826C72.4477 104.68 74.6935 102.468 79.8507 93.0201C81.8373 89.3807 83.6506 87.5373 85.4903 86.3264C87.3821 85.0811 88.9353 84.0854 90.8869 83.0536C92.3444 82.2831 93.3036 81.5602 93.5913 80.816C93.7383 80.4359 93.5379 79.9582 93.3088 79.6103C92.8634 78.9338 91.5915 78.8007 90.2152 78.9144C88.3166 79.0712 86.8821 80.8608 85.7883 82.1837C84.5461 83.686 82.2933 86.2489 80.9652 88.4399C79.8245 90.3218 77.7044 92.7945 75.7993 94.2414C73.5208 95.972 71.9581 98.0861 70.3441 99.0662C69.7072 99.4529 69.078 99.8121 68.563 99.9878C66.057 100.843 67.8102 94.772 67.9842 92.9891C68.1885 90.8962 69.7601 88.2264 72.6798 85.1861C73.4748 84.3583 74.3421 83.8649 74.8089 83.7426C75.2757 83.6203 75.3894 83.9614 75.4479 84.4213C75.578 85.4431 74.9381 88.7638 74.0768 94.4895C73.1564 100.608 73.6703 104.404 73.2138 105.15C72.6933 106.001 71.2622 105.672 70.4026 105.445C68.4586 104.93 68.5061 101.779 67.9291 99.5365C67.4483 97.6678 67.4692 96.3739 67.5243 95.6866C67.6713 93.8535 71.4689 92.4844 72.9193 90.178C74.8214 87.1531 75.8441 84.8984 77.3961 81.226C78.2897 79.1116 79.9782 78.0014 81.8144 76.7957C84.0193 75.3478 86.4067 75.5899 92.1375 75.6398C93.1216 75.6484 92.7387 76.4925 92.3924 76.8422C90.9795 78.2692 88.6046 79.0281 86.4256 79.2589C83.4857 79.5703 81.7145 80.4061 79.2478 82.6953C77.5845 84.239 76.6606 86.2592 76.0835 86.7226C74.0485 88.3567 79.2892 82.8314 80.6121 80.8746C82.3567 78.294 84.8013 74.7906 86.1242 73.2938C86.6936 72.6494 87.2162 71.914 87.9035 71.4541C88.4747 71.0719 89.1696 72.4756 91.9153 74.8303C93.2235 75.9521 94.5645 76.1583 94.7988 76.16C97.4824 76.1798 90.2169 74.5564 88.2601 73.8656C86.4122 73.2134 86.5307 70.7737 85.9588 69.1029C85.4137 67.5103 85.4972 63.7871 85.0407 61.1792C84.6916 59.1846 82.5206 57.4551 80.681 54.6388C78.9893 52.049 78.4968 50.5581 77.8629 48.8925C77.2502 47.2824 76.4298 45.7351 75.4531 44.0694C74.4125 42.2946 73.3292 40.5675 71.8375 38.2731C70.7053 36.5316 69.3123 35.1725 68.2185 33.4466C67.2708 31.9512 64.9509 31.0385 63.1112 30.0566C62.0717 29.5018 61.3852 28.62 60.6979 28.3324C60.062 28.0662 59.3182 28.7303 58.6877 29.2453C58.3717 29.5035 58.171 29.874 58.1107 30.2771C58.0504 30.6802 58.1641 31.1349 58.45 31.4829C59.8195 33.1493 63.5453 32.9815 65.9671 34.58C67.6646 35.7003 71.338 40.7535 76.9603 46.9477C81.9652 52.4617 82.7342 55.2503 86.0019 60.7503C87.3104 62.9528 87.7916 64.8964 88.5374 66.4502C89.3731 68.1909 89.9757 69.9503 89.8052 71.0424C89.557 72.6317 85.8554 67.3355 83.7832 64.8586C79.6265 59.8898 75.975 55.96 74.1922 53.9463C72.5518 52.0936 71.6067 50.5581 70.115 48.5497C68.6982 46.6421 67.7 44.7015 66.7836 43.0376C65.0478 39.8857 63.6831 37.5841 62.7064 36.0303C62.4429 35.6111 62.0777 35.1725 61.902 35.2793C60.3352 36.2317 62.87 38.714 65.6691 41.9197C72.7123 49.9857 74.9277 50.5444 76.0767 52.7819C76.9018 54.3889 77.6838 56.7386 78.6604 59.2672C80.2539 63.3929 81.0117 65.8128 81.9918 68.0556C82.7499 69.7903 83.5404 72.1242 84.1174 73.9724C84.2262 74.3208 84.3465 74.6597 84.4619 75.006C84.5773 75.3522 84.691 75.6933 84.2948 75.3005C82.8666 73.8847 80.2331 69.3027 76.8518 63.5115C72.9673 56.8586 70.8074 54.9265 69.426 52.856C67.7078 50.2809 64.1654 46.2243 61.6178 42.6362C59.9631 40.3058 58.6326 38.845 57.2529 37.808C56.5926 37.3117 55.8731 37.0018 55.2427 37.0001C54.9324 36.9993 54.7259 37.4532 54.9499 38.0836C56.0658 41.2253 58.2743 42.1591 59.3664 44.2812C59.8692 45.2582 60.7892 46.8444 63.0199 49.7675C68.5783 57.0513 72.9744 61.6857 74.1199 62.7726C76.4936 65.0249 76.6503 67.308 77.2273 68.8617C77.8677 70.5861 78.3728 72.2482 79.2926 74.8285C80.0215 76.8731 80.5569 78.4493 81.0754 79.4311C81.9472 81.082 77.1326 74.8044 74.8244 72.3188C72.7546 70.09 70.1184 67.2115 68.2822 65.0894C63.5766 59.651 61.2715 56.8764 58.3519 52.5235C55.1516 47.7524 54.4986 44.9358 53.4616 43.3218C52.5298 41.8714 50.8261 40.3401 49.3293 39.2429C49.0167 39.0138 48.642 38.9552 48.4094 39.2377C48.1769 39.5202 48.0632 40.2023 48.1752 40.7811C48.7305 43.6518 51.2671 47.0924 52.2489 48.9941C53.4887 51.3953 54.4848 53.638 55.7508 55.3692C56.6936 56.6583 59.5214 60.3972 62.0071 63.2911C63.4709 64.9954 64.5926 66.3916 66.1411 68.3432C67.4373 69.9768 68.3821 71.5592 70.1029 73.5108C71.2022 74.7575 72.1717 76.0377 73.3775 77.7603C74.6608 79.5936 75.8441 81.5498 76.2541 82.5317C77.5357 85.6012 70.0013 77.4296 68.5664 75.7087C65.8305 72.4277 64.4892 71.2285 63.5091 69.8487C62.6302 68.6114 61.0511 65.9575 59.3768 63.9353C58.0444 62.326 57.1375 60.3214 56.1608 58.7677C55.0156 56.9459 53.8095 54.9265 52.2576 52.7406C51.2885 51.3757 50.5919 49.8691 49.3861 48.7753C48.1802 47.6814 46.9194 46.6514 45.6534 46.4155C43.3573 45.9875 45.6448 51.4607 46.6783 55.0143C47.772 58.775 50.7986 61.3274 52.764 63.6356C54.5076 65.6833 57.2339 69.3612 58.9651 71.3318C60.376 72.9378 61.3749 74.8871 63.3265 77.0127C65.1185 78.9645 66.887 80.8608 67.9239 82.5265C69.0428 84.3238 70.2218 86.3729 70.6817 87.8095C70.8095 88.2088 70.9108 88.6673 70.5146 88.9016C69.3728 89.5768 67.8171 88.7948 66.9008 88.1075C65.0748 86.7381 64.0276 85.0087 62.6513 82.7728C60.8659 79.8724 59.1012 76.6441 57.8248 73.9845C56.9539 72.17 56.3313 70.2018 56.1005 67.9574C55.795 64.9871 55.2978 62.9603 54.8379 61.2378C54.3408 59.376 53.3479 57.7927 52.0853 56.1271C50.8813 54.5387 47.512 53.9963 44.9093 52.7957C44.1387 52.4402 43.4709 52.1601 42.67 51.9878C40.7515 51.5753 39.3403 52.8457 35.6162 54.1634C33.4823 54.9184 32.1057 56.0564 29.8681 57.0934C28.2286 57.8532 26.1389 58.9227 24.5817 60.5936C23.8989 61.3262 23.8307 62.9431 24.0012 64.5502C24.0654 65.1552 24.5128 65.2478 25.2569 65.3064C28.7645 65.5825 31.2789 62.7398 33.0703 61.1775C34.2973 60.1074 35.537 59.0536 36.8599 58.077C37.5146 57.5936 37.952 56.9832 38.9803 56.8109C39.6606 56.697 40.6908 56.7523 41.3316 56.9229C42.3053 57.182 42.6614 58.1269 43.0627 58.8142C43.4384 59.4576 43.4675 60.3076 43.297 61.1672C42.9646 62.8422 40.491 62.8363 38.0794 63.0103C37.0347 63.0857 35.7816 63.2979 34.4621 63.4685C33.5609 63.585 33.3632 64.6725 33.1909 65.4735C32.9743 66.4805 33.246 67.4286 33.5888 68.0022C33.7563 68.2824 34.159 68.3484 34.562 68.3501C36.4321 68.3581 38.1759 66.8601 40.0156 66.0574C42.0027 65.1904 43.4606 63.7596 44.8404 63.0137C46.1754 62.292 47.2536 61.8062 47.9409 61.6908C48.2824 61.6335 48.6282 61.8028 48.9176 62.0887C49.56 62.7235 49.6686 63.9801 49.5549 65.2978C49.3592 67.5663 47.6085 68.5758 46.2287 69.5524C44.7916 70.5697 43.247 71.1044 41.6365 71.8503C40.6675 72.299 39.5677 72.3688 38.8218 72.7116C38.1865 73.0036 38.2999 74.5426 38.4704 75.6932C38.8115 77.9942 39.7882 69.8504 41.1076 68.5275C44.5871 65.039 53.5684 67.5457 54.4279 67.8885C54.86 68.0608 55.1738 68.4586 55.4063 68.8049C55.6389 69.1511 55.7526 69.4922 55.5838 69.7815C53.902 72.6646 47.0366 70.7599 45.5397 71.6763C43.7321 72.7829 43.0127 74.8871 42.4357 76.384C42.3044 76.7245 42.2066 77.0713 42.2617 77.4743C42.3841 78.3692 43.4606 79.2554 45.0626 80.0581C46.9719 81.0149 49.5411 80.8677 51.5496 80.6972C54.7977 80.4214 53.2239 73.0612 54.3676 72.7167C55.0368 72.5152 55.9662 72.5996 56.8326 73.168C60.2893 75.4358 60.114 77.7603 60.6342 79.6533C60.8024 80.2655 60.6928 81.0813 60.5222 81.5481C60.3517 82.0149 60.0106 82.1286 59.3234 81.903C55.7101 80.7166 52.9001 78.6973 50.5367 76.7974C49.139 75.6737 47.6085 74.9009 46.1719 74.2102C45.754 74.0092 45.314 73.64 44.7956 73.578C43.7039 73.4474 42.7819 74.205 42.1515 74.72C41.5212 75.2349 41.2868 76.0412 41.1145 76.8422C40.898 77.8492 41.2833 78.7972 41.7984 79.3708C43.0459 80.7603 46.5543 80.1787 48.4559 80.4646C50.6744 80.7982 52.3006 79.4966 54.9981 79.3726C57.8098 79.2433 57.7025 84.7606 57.9936 86.7743C58.3033 88.9168 58.8531 90.7344 59.7126 92.574C60.7305 94.7526 65.5985 97.3833 71.0675 100.21C72.815 101.113 74.2387 100.849 74.7004 100.622C76.5937 99.6891 70.8074 98.3272 68.9109 97.6934C65.5836 96.5812 62.0777 93.3939 60.6411 91.5543C59.0066 89.4611 57.8265 86.5107 56.9067 84.1491C55.732 81.1334 53.9198 79.4931 53.3479 79.0901C53.0618 78.8884 52.5487 79.2554 52.3144 80.1115C51.6953 82.3741 52.1938 84.423 52.5366 85.2826C53.2145 86.9823 55.1738 87.5236 57.1788 88.6139C62.0298 91.2519 65.1644 91.0857 66.2548 91.6008C66.7064 91.8141 66.7767 92.2295 66.6648 92.5189C66.5528 92.8083 66.2117 93.0356 65.9224 92.8686C64.1227 91.8295 64.5995 89.1427 62.5962 86.2765C61.2022 84.282 60.5791 83.2827 60.1795 82.7659C59.9741 82.5005 59.4388 82.5902 59.034 82.7608C57.2363 83.5181 56.4485 85.9113 55.9283 88.3228C55.8056 88.8915 55.8697 89.3563 56.0402 89.7611C56.735 91.4104 59.1907 91.4303 61.1441 92.2329C63.8085 93.3279 66.3082 94.5308 67.9791 95.3335C68.8557 95.7546 69.6465 96.2533 70.2769 96.7684C72.0997 98.2575 70.9142 101.879 70.5715 102.566C70.3862 102.938 70.0013 103.254 69.6551 103.373C67.4664 104.124 65.1782 98.6786 63.1698 96.15C61.6225 94.202 60.3552 92.9323 59.6041 91.5526C58.8057 90.0857 58.6257 86.4074 59.2545 83.9734C59.4284 83.6272 59.5421 83.2861 59.7712 82.9968C60.0003 82.7074 60.3414 82.48 60.6928 81.9012" stroke="#F6DF8F" stroke-width="6" stroke-linecap="round"/>
<path d="M104.277 115.798C104.277 115.346 104.502 114.325 106.172 112.143C107.123 110.901 108.869 109.783 112.23 107.691C114.535 106.257 118.235 104.362 120.906 103.01C125.103 100.886 127.167 100.064 127.876 99.6386C128.93 99.0395 129.95 98.7004 130.945 98.443C131.258 98.4141 131.651 98.4141 132.057 98.4141" stroke="#F6DF8F" stroke-width="4" stroke-linecap="round"/>
<path d="M163.586 93.1309C163.642 93.47 163.982 94.15 164.917 95.1717C165.42 95.7205 165.969 96.3093 167.155 97.579C169.519 100.11 170.913 102.331 171.562 103.46C173.623 107.048 174.378 107.614 175.991 109.229C177.449 110.688 178.352 111.363 178.951 112.046C179.526 112.7 179.719 113.24 179.72 113.214C179.848 111.306 177.905 110.013 177.59 107.969C177.195 105.408 177.73 103.585 178.07 103.386C178.235 103.29 178.41 103.244 178.665 103.356C179.317 103.64 179.831 104.376 180.285 105.14C180.814 106.032 181.645 109.069 182.808 113.128C183.721 116.314 184.094 116.989 184.235 117.16C184.289 117.226 184.433 116.994 184.434 116.795C184.443 115.816 183.812 114.724 183.499 113.728C183.164 112.664 183.015 111.769 182.873 110.745C182.842 110.516 182.844 110.347 182.985 110.457C184.126 111.349 184.6 114.243 185.342 117.493C185.5 118.183 186.934 119.206 186.99 120.315C187 120.498 185.912 118.763 185.687 116.159C185.399 112.824 184.38 110.744 184.012 109.897C182.968 107.494 182.902 106.598 182.449 105.718C181.86 104.574 180.919 103.421 179.752 102.308C179.604 102.166 179.494 102.555 179.493 102.869C179.491 103.522 180.394 105.555 181.671 108.252C182.716 110.458 183.41 112.945 183.554 114.374C183.595 114.778 183.697 116.52 183.528 119.975C183.436 121.86 183.022 123.992 182.848 125.711C182.674 127.431 182.674 128.668 182.674 128.49C182.674 126.681 182.618 124.495 182.532 122.8C182.473 121.612 182.504 119.755 182.56 118.968C182.616 118.18 182.728 118.518 182.843 119.057C182.957 119.596 184.575 121.101 184.717 122.8C184.86 124.498 186.847 122.374 186.99 124.017C187.253 127.038 184.262 132.602 184.717 134.283C185.172 135.963 185.963 138.219 186.309 139.655C186.506 140.47 187.047 141.3 187.558 142.182C187.673 142.382 190.546 142.723 190.49 142.838C190.435 142.953 187.449 142.838 187.278 142.838C186.505 142.842 185.745 142.159 184.638 141.676C183.751 141.289 183.472 140.343 182.819 139.406C181.651 137.73 181.425 135.854 181.396 135.709C181.131 134.393 182.163 138.12 182.36 138.803C182.414 138.987 182.558 139.143 182.644 139.089C182.953 138.896 182.788 136.89 182.647 134.223C182.558 132.558 182.164 130.695 181.852 128.51C181.66 127.158 181.256 124.962 180.887 120.239C180.655 117.266 180.687 113.098 180.827 113.513C180.966 113.928 181.304 119.046 181.59 122.273C181.982 126.693 182.333 128.235 182.417 129.393C182.71 133.415 182.957 134.995 182.93 135.538C182.885 136.472 181.375 132.854 180.744 131.452C180.181 130.202 179.664 128.757 179.012 126.939C178.418 125.283 178.243 123.532 177.819 120.674C177.574 119.015 177.34 116.084 177.138 114.324C176.793 111.301 176.653 110.687 176.568 110.684C174.81 110.631 177.104 114.313 178.008 117.98C178.728 120.905 179.811 126.034 180.39 128.811C181.237 132.87 181.537 134.655 181.51 134.941C181.47 135.354 180.801 134.037 179.87 131.726C179.08 129.763 177.759 126.153 177.007 124.017C176.067 121.345 175.859 120.346 174.9 117.388C174.073 114.835 172.704 110.099 171.98 107.805C171.255 105.512 171.255 105.794 171.705 107.457C172.155 109.12 173.055 112.157 173.575 114.031C174.262 116.509 174.492 117.723 174.775 118.885C175.067 120.079 175.398 122.259 176.107 124.784C176.859 127.461 178.011 130.55 178.441 132.297C178.565 132.803 178.81 133.18 178.924 133.295C179.172 133.546 178.926 131.939 178.333 129.931C177.952 128.641 177.234 126.855 175.818 123.819C174.401 120.783 172.264 116.565 170.91 113.689C169.556 110.813 169.05 109.407 168.592 108.232C167.303 104.924 166.316 104.212 165.69 103.868C164.89 103.428 166.308 106.809 168.115 109.949C169.265 111.947 171.497 114.383 172.597 115.827C174.141 117.855 173.924 119.087 174.095 123.476C174.216 126.606 175.005 127.213 175.316 128.376C175.4 128.691 175.458 128.972 175.375 128.948C175.291 128.924 175.066 128.587 174.05 126.894C173.035 125.202 171.235 122.165 170.252 120.46C169.118 118.495 168.984 117.846 168.758 116.913C168.403 115.447 166.949 112.692 164.992 109.458C163.68 107.288 161.609 106.146 159.567 105.068C158.661 104.59 157.976 104.328 155.153 104.127C152.331 103.926 147.382 103.813 141.233 104.599C135.084 105.385 127.885 107.072 123.53 107.997C117.912 109.191 116.323 109.207 115.842 109.349C115.292 109.51 114.677 110 114.363 110.314C113.946 110.731 116.31 108.704 118.689 107.174C121.183 105.57 122.965 105.005 124.628 104.301C126.034 103.706 128.485 102.416 130.519 101.469C132.553 100.522 134.072 99.9036 135.501 99.4443C138.187 98.581 140.568 98.4141 142.186 98.4422C143.736 98.4692 145.119 100.34 145.803 101.138C146.317 101.738 146.6 102.332 146.572 102.616C146.539 102.967 145.526 102.845 143.072 102.62C141.119 102.441 137.749 101.945 134.493 101.714C131.236 101.482 128.199 101.482 126.381 101.538C124.052 101.61 123.086 101.991 122.32 102.303C121.998 102.434 121.835 102.559 124.729 102.532C127.623 102.506 133.584 102.337 138.005 102.391C142.426 102.445 145.125 102.726 146.769 102.927C148.926 103.191 149.666 103.469 150.878 104.314C153.696 106.278 155.518 108.238 155.689 109.06C155.765 109.429 155.746 109.713 155.606 109.83C154.581 110.681 152.29 108.19 149.794 106.828C148.814 106.293 147.256 105.811 143.718 104.987C140.18 104.163 134.668 103.094 130.901 102.487C127.133 101.881 125.278 101.768 124.462 101.626C123.647 101.483 123.928 101.315 124.551 101.143C125.174 100.972 126.13 100.803 129.575 100.773C133.02 100.742 138.925 100.855 144.526 101.138C150.127 101.42 155.245 101.87 158.051 102.158C161.202 102.482 162.047 102.787 162.927 103.042C164.028 103.361 164.547 104.826 164.921 105.74C164.986 105.901 164.95 106.08 164.837 106.195C164.183 106.864 162.683 106.312 157.741 105.406C154.702 104.849 149.321 104.839 145.304 104.891C141.286 104.943 138.755 105.337 137.142 105.54C133.839 105.955 132.347 105.913 131.265 106.082C130.482 106.205 129.845 106.595 128.516 106.736C124.56 106.821 123.43 106.935 122.347 107.077C122.007 107.106 121.501 107.106 120.979 107.106" stroke="#F6DF8F" stroke-width="4" stroke-linecap="round"/>
<path d="M111.509 108.814C111.284 109.377 110.718 110.623 109.024 115.868C107.651 120.117 108.462 125.694 107.334 130.814C106.207 135.935 103.332 140.408 103.104 142.188C102.737 145.059 102.193 146.307 101.91 146.562C101.302 147.112 99.6471 147.328 98.3613 147.699C97.358 147.989 96.6851 148.125 95.5782 148.211C94.7859 148.273 94.1287 148.636 93.3047 149.062C92.8758 149.283 92.5932 149.659 92.225 149.829C92.0366 149.917 91.8007 149.887 91.6848 149.691C91.0645 148.637 93.0891 145.538 94.7738 142.992C95.0923 142.511 95.3694 141.945 96.8641 139.744C98.3587 137.542 101.058 133.717 102.59 131.494C104.448 128.796 105.142 127.062 105.964 124.598C107.384 120.341 107.248 118.989 107.39 116.838C107.467 115.654 107.419 113.627 107.334 112.922C107.25 112.216 107.081 112.891 105.869 117.26C104.658 121.629 102.408 129.671 101.165 134.292C99.6701 139.848 99.579 141.305 99.4384 142.268C99.1384 144.321 97.7656 144.942 97.0558 145.312C96.8235 145.434 96.7396 145.064 97.6105 143.373C98.4814 141.681 100.281 138.588 101.321 136.741C102.631 134.414 103.267 132.068 104.033 128.835C104.608 126.408 104.692 124.446 104.748 122.633C104.866 118.815 104.92 115.867 104.834 114.755C104.792 114.212 104.636 113.759 104.522 113.587C104.465 113.585 104.409 113.753 104.38 113.925C104.351 114.096 104.351 114.265 104.351 114.439" stroke="#F6DF8F" stroke-width="8" stroke-linecap="round"/>
<path d="M111.946 109.832C112.284 110.394 112.514 111.134 112.683 112.125C112.885 113.301 113.252 115.891 113.45 118.986C113.57 120.857 113.763 121.758 114.075 123.147C114.585 125.417 114.785 126.077 114.956 126.193C116.418 127.187 115.694 121.605 115.949 118.154C116.312 113.253 116.036 110.624 116.093 111.275C116.232 112.884 116.718 114.086 116.916 115.592C117.244 118.092 117.911 121.922 118.053 123.377C118.094 123.803 118.138 124.315 118.223 126.232C118.418 130.62 118.196 133.802 118.11 134.51C117.902 136.236 117.911 137.601 118.053 138.857C118.263 140.722 117.911 141.64 117.628 142.522C117.183 143.907 117.4 144.879 117.202 145.647C117.148 145.857 117.004 146.072 116.946 145.991C116.668 145.602 117.001 144.548 117.228 143.555C117.394 142.827 117.964 140.529 118.532 136.534C118.811 134.575 118.651 132.707 118.566 131.329C118.48 129.951 118.368 129.107 118.31 127.239C118.252 125.37 118.252 122.501 118.139 120.658C117.916 117.003 117.062 115.804 116.549 114.099C116.388 113.561 116.151 113.242 115.981 113.015C115.905 112.912 115.699 113.012 115.584 113.154C114.989 113.886 114.901 115.11 114.478 118.548C114.117 121.475 113.661 126.824 113.344 129.773C112.921 133.705 112.686 134.37 112.261 135.701C111.796 137.155 111.776 138.573 111.635 140.182C111.182 145.364 110.811 146.129 110.697 146.559C110.581 146.996 110.412 143.936 110.581 138.678C110.69 135.273 111.087 130.382 111.177 127.974C111.266 125.566 111.097 125.791 110.589 126.975C110.08 128.16 109.236 130.297 108.577 132.382C107.917 134.467 107.467 136.436 107.095 138.828C106.723 141.219 106.441 143.975 106.296 146.042C105.949 151.004 106.492 151.924 106.746 152.945C107.188 154.72 107.74 155.333 108.251 156.043C108.897 156.941 109.615 157.49 110.267 157.892C110.642 158.122 111.092 158.119 111.376 158.289C112.053 158.693 112.342 159.764 112.966 160.249C113.118 160.366 113.306 160.391 113.477 160.42C113.649 160.449 113.817 160.449 113.651 160.139C112.323 157.666 111.322 155.513 110.925 153.697C110.572 152.083 110.245 149.332 109.706 145.79C109.163 142.224 109.446 139.72 109.841 137.798C110.526 134.459 111.435 132.274 111.463 131.849C111.476 131.647 111.547 131.48 111.548 131.871C111.549 132.262 111.493 133.218 110.817 135.876C110.141 138.534 108.848 142.864 108.153 145.404C107.054 149.425 107.174 150.39 107.202 151.014C107.215 151.301 107.287 151.525 107.456 151.079C107.626 150.632 107.907 149.507 108.474 143.276C109.04 137.044 109.884 125.74 110.403 120.085C110.922 114.43 111.091 114.768 111.656 117.275C112.221 119.783 113.177 124.451 113.81 128.768C114.443 133.085 114.724 136.909 114.897 138.992C115.238 143.102 115.24 146.528 115.326 146.785C115.339 146.825 115.355 146.648 115.439 146.589C115.523 146.53 115.692 146.586 115.779 146.7C115.959 146.934 115.978 147.324 116.205 147.495C117.273 148.302 117.625 143.137 118.08 141.395C118.555 139.575 118.535 138.244 118.705 135.702C118.826 133.894 118.763 131.023 118.735 129.377C118.688 126.648 118.48 125.402 118.394 122.342C118.375 121.651 118.31 121.37 118.253 119.735C118.196 118.099 118.139 115.119 118.054 113.161C117.853 108.529 117.853 106.369 118.136 106.028C118.268 105.869 118.531 105.912 118.788 106.053C119.922 106.674 120.352 107.443 121.146 108.436C121.937 109.427 123.3 110.449 124.017 111.363C124.495 111.974 125.291 112.951 126.456 113.608C127.834 114.384 130.564 114.318 132.223 114.462C132.508 114.486 132.789 114.546 136.787 114.547C140.784 114.548 148.489 114.491 152.093 114.462C155.696 114.433 154.965 114.433 154.212 114.433" stroke="#F6DF8F" stroke-width="4" stroke-linecap="round"/>
<path d="M122.684 108.98C123.645 109.036 125.571 109.375 126.77 109.519C127.228 109.574 127.849 109.718 129.064 109.831C131.117 110.023 134.141 110.284 137.036 110.71C138.184 110.879 138.694 110.855 140.023 110.995C141.352 111.136 143.489 111.417 146.165 111.59C148.841 111.763 151.99 111.819 153.81 111.82C156.023 111.821 158.228 111.707 161.602 111.819C166.076 111.969 166.933 112.842 167.478 112.9C168.118 112.968 165.807 112.844 164.253 112.505C161.576 111.923 158.995 110.746 157.18 109.98C155.845 109.416 154.785 109.265 153.879 109.123C152.962 108.98 150.652 108.585 147.615 108.188C144.374 107.764 140.988 107.276 139.588 107.134C138.643 107.039 135.718 106.764 133.171 107.104C131.894 107.274 130.813 107.617 129.704 107.758C127.985 107.977 125.247 108.128 124.477 108.128C124.066 108.128 126.816 108.353 130.212 108.75C132.196 108.982 134.733 109.035 138.005 109.514C141.277 109.994 145.214 110.838 147.214 111.357C149.214 111.876 149.158 112.044 149.016 112.187C148.702 112.505 146 112.896 141.098 113.408C138.623 113.666 136.141 113.582 134.416 113.441C131.766 113.225 129.964 112.561 127.954 112.249C126.848 112.077 125.55 111.993 124.856 111.823C124.161 111.652 124.105 111.427 124.104 111.171C124.102 110.63 125.342 109.5 127.581 108.025C128.65 107.32 129.763 107 132.029 106.797C134.295 106.594 137.726 106.594 141.208 106.875C144.691 107.156 148.122 107.719 150.789 108.262C155.285 109.177 157.391 110.001 157.93 110.285C158.741 110.712 159.884 111.7 161.308 112.387C162.926 113.167 164.094 112.842 164.833 112.956C165.362 113.038 165.912 113.297 166.367 113.27C166.558 113.258 166.596 112.961 166.625 112.733C166.749 111.755 165.522 110.746 164.5 109.667C162.494 107.548 159.174 107.957 156.671 108.042C156.417 108.05 157.843 108.806 160.213 109.936C161.996 110.786 165.059 111.966 167.242 112.969C170.727 114.57 172.05 115.625 172.276 115.993C172.783 116.817 173.014 117.781 173.158 118.521C173.294 119.219 173.583 119.884 173.756 120.426C174.166 121.718 171.146 119.093 170.378 118.668C169.457 118.159 168.76 117.447 167.935 117.19C166.873 116.858 165.696 116.99 164.782 116.849C164.047 116.735 163.136 116.424 160.812 115.856C159.464 115.526 158.306 115.739 157.341 115.825C156.369 115.912 155.014 116.08 154.159 116.166C152.606 116.322 150.695 116.82 149.926 116.989C148.996 117.195 148.081 117.273 143.692 117.303C141.491 117.318 139.334 117.048 136.245 116.962C134.613 116.917 133.029 116.707 131.948 116.593C130.505 116.441 129.62 116.196 127.096 115.403C125.93 115.036 125.131 114.72 124.39 114.406C123.549 114.05 122.633 112.849 121.806 111.881C121.609 111.65 121.382 111.427 121.153 111.368C120.925 111.308 120.7 111.421 120.556 111.591C120.412 111.761 120.356 111.986 120.467 112.187C120.974 113.096 122.223 113.012 123.785 113.551C125.994 114.313 127.848 114.887 129.127 115.397C130.141 115.802 131.648 116.022 133.161 116.477C134.045 116.743 134.61 117.443 135.293 117.699C136.114 118.007 136.996 118.183 138.946 118.325C142.288 118.567 144.667 118.297 146.301 118.212C147.764 118.136 150.521 118.183 152.166 118.211C154.262 118.247 156.074 118.354 158.428 118.41C160.985 118.471 162.216 118.807 163.383 118.893C164.275 118.959 165.171 119.26 165.97 119.546C166.833 119.854 167.956 120.566 168.922 120.965C170.098 121.452 170.741 122.1 171.14 122.81C171.692 123.792 172.445 124.881 173.127 125.651C173.862 126.48 175.226 127.495 177.071 128.632C178.18 129.315 178.921 129.769 179.434 130.451C179.927 131.107 180.23 131.814 180.655 132.468C180.765 132.638 180.966 132.724 181.138 132.782C181.309 132.84 181.478 132.84 181.677 132.727C182.57 132.223 183.066 130.522 183.667 129.434C184.07 128.703 184.15 127.618 184.349 126.454C184.595 125.02 184.549 124.209 184.69 123.469C184.819 122.793 185.002 122.106 185.201 121.142C185.49 119.746 185.626 119.039 185.911 118.017C186.398 116.274 180.069 115.055 180.07 114.314C180.072 113.525 185.12 112.646 184.948 111.819C184.762 110.923 185.575 109.495 184.948 108.501C184.444 107.7 179.74 107.598 179.57 107.314C178.946 107.029 183.017 106.367 181.608 106.282C180.368 106.253 168.742 102.314 166.367 102.314" stroke="#F6DF8F" stroke-width="4" stroke-linecap="round"/>
<path d="M136.659 118.695C136.378 118.865 135.469 118.978 134.137 118.867C131.729 118.667 129.235 117.277 127.375 117.133C126.599 117.073 126.096 116.03 125.413 115.43C124.725 114.826 123.768 114.663 122.52 114.323C119.959 113.47 119.166 113.129 117.606 112.449C117.177 112.277 116.784 112.164 116.037 111.878" stroke="#F6DF8F" stroke-width="4" stroke-linecap="round"/>
<path d="M104.449 151.401C104.332 151.401 103.98 151.401 103.451 151.342C103.005 151.293 102.624 150.697 102.241 150.02C101.92 149.453 101.973 148.868 102.032 148.632C102.231 147.821 103.501 150.216 104.592 151.162C105.411 151.872 106.215 151.813 106.393 151.872C107.487 152.237 103.862 149.99 101.864 149.78C100.543 149.641 99.2677 149.162 96.1211 149.16C94.1813 149.159 93.3122 150.28 92.5749 150.779C91.5018 151.506 90.6634 153.042 90.1267 154.05C89.9521 154.379 89.8906 154.759 89.8022 154.907C89.6684 155.132 89.9472 154.173 90.2125 153.907C90.3314 153.788 91.5864 153.296 93.9196 151.936C95.71 150.891 97.3085 149.99 98.6966 149.662C100.165 149.316 101.609 150.92 102.649 151.782C103.259 152.288 104.615 153.279 106.007 154.227C107.37 155.157 108.689 156.585 109.749 157.351C110.735 158.063 110.508 159.842 111.57 160.815C112.248 161.435 114.404 160.359 115.232 161.152C115.709 161.608 115.882 162.185 116.147 162.48C116.274 162.621 116.469 162.657 116.005 162.687C115.541 162.717 114.432 162.717 113.861 162.63C113.29 162.542 113.29 162.367 113.378 162.248C113.565 161.992 114.112 162.01 114.554 161.689C115.343 161.117 114.471 159.015 114.118 156.46C113.343 150.867 114.174 149.873 114.379 148.958C114.474 148.534 114.763 148.22 114.91 148.071C115.143 147.835 115.235 149.33 115.381 150.071C115.781 152.101 116.53 147.337 117.002 146.804C117.08 146.715 117.237 146.976 117.414 146.862C118.678 146.047 119.118 141.474 119.567 138.441C119.928 135.994 120.42 134.963 120.863 134.074C121.033 133.732 121.245 133.308 121.569 132.633C122.051 131.628 121.955 128.73 121.925 125.342C121.908 123.33 121.424 122.405 121.248 121.696C121.041 120.864 120.777 119.929 120.541 119.425C120.196 118.69 120.48 121.393 120.569 127.857C120.6 130.066 120.833 130.885 120.835 132.886C120.836 133.195 120.66 133.014 120.571 132.837C120.399 132.495 120.305 132.128 120.216 132.096C119.642 131.89 120.245 133.596 120.333 135.645C120.527 140.14 119.979 145.343 119.685 145.315C119.321 145.28 119.656 140.692 119.685 138.038C119.701 136.589 119.774 142.734 119.657 142.854C119.399 143.115 119.362 140.688 119.069 137.806C118.659 133.786 117.714 131.847 117.329 130.391C117.109 129.559 116.416 128.947 115.827 128.092C115.691 127.895 115.649 127.709 115.59 127.794C115.53 127.879 115.472 128.229 115.384 130.014C115.295 131.799 115.179 135.009 115.089 136.75C114.966 139.144 114.765 140.08 114.5 141.14C114.348 141.744 112.814 145.549 112.697 145.815C112.349 146.607 112.18 141.208 110.995 140.939C109.668 140.637 107.755 140.674 106.575 140.145C105.453 139.79 104.512 139.437 102.717 139.406C102.329 139.435 102.154 139.493 101.796 139.376" stroke="#F6DF8F" stroke-width="4" stroke-linecap="round"/>
<path d="M88.6927 163.816C86.6927 173.016 98.489 178.312 104.989 174.314C115.989 187.317 149.99 200.514 171.99 183.314C179.49 179.314 185.989 167.314 185.989 159.814C185.989 151.312 181.989 154.314 180.489 143.814C178.989 133.314 170.501 123.853 164.193 121.316C155.489 117.816 137.193 122.316 131.193 121.316C125.193 120.316 120.193 113.816 122.193 117.816C124.193 121.816 123.693 135.317 123.193 141.317C122.793 146.117 117.296 151.983 114.597 154.316C116.993 158.447 119.639 162.03 119.193 163.816C118.746 165.603 115.065 166.44 110.693 163.816C108.193 162.317 105.693 154.316 101.693 152.816C97.6928 151.316 91.1927 152.316 88.6927 163.816Z" fill="#FFF2E5"/>
<path d="M88.6927 163.816C86.6927 173.016 98.489 178.312 104.989 174.314C115.989 187.317 149.99 200.514 171.99 183.314C179.49 179.314 185.989 167.314 185.989 159.814C185.989 151.312 181.989 154.314 180.489 143.814M88.6927 163.816C91.1927 152.316 97.6928 151.316 101.693 152.816C105.693 154.316 108.193 162.317 110.693 163.816C115.065 166.44 118.746 165.603 119.193 163.816C119.639 162.03 116.993 158.447 114.597 154.316M88.6927 163.816C82.5261 156.483 74.9886 142.317 76.4879 124.314M113.193 138.816C109.043 143.243 111.628 149.2 114.597 154.316M114.597 154.316C117.296 151.983 122.793 146.117 123.193 141.317C123.693 135.317 124.193 121.816 122.193 117.816C120.193 113.816 125.193 120.316 131.193 121.316C137.193 122.316 155.489 117.816 164.193 121.316C170.501 123.853 178.989 133.314 180.489 143.814M180.489 143.814C190.489 144.314 187.001 146.714 192.693 144.817C198.693 142.817 189.693 141.317 187.693 138.817C185.693 136.317 189.193 126.814 189.193 121.817C189.193 111.697 176.693 90.7556 167.988 87.3165M162.488 83.8142C152.783 76.812 127.193 75.8166 113.193 81.8165C110.544 82.9519 106.88 84.8403 105.07 86.0521M86.193 99.6597C86.193 99.6597 79.193 109.817 78.693 112.817M95.9879 110.317C91.2828 114.314 89.683 128.117 93.2828 127.317M84.1927 126.817C84.1927 132.314 87.4883 139.814 86.193 144.817M127.193 104.317C127.026 105.483 128.393 108.117 135.193 109.317C143.693 110.817 152.193 106.817 160.193 106.817C167.192 106.817 175.193 116.817 177.193 119.317M119.193 97.8166C129.193 93.9832 151.593 88.0166 161.193 94.8166" stroke="#714B50" stroke-width="4" stroke-linecap="round"/>
<path d="M140.49 179.814C140.49 184.233 136.356 186.814 132.49 186.814C128.624 186.814 126.49 184.233 126.49 179.814C126.49 175.396 129.624 171.814 133.49 171.814C137.356 171.814 140.49 175.396 140.49 179.814Z" fill="#FFC0B8" fill-opacity="0.45"/>
<path d="M157.858 161.835C158.236 162.95 157.559 163.782 155.99 164.315C154.421 164.847 152.555 164.88 152.176 163.764C151.797 162.649 152.762 161.312 154.331 160.779C155.9 160.247 157.479 160.719 157.858 161.835Z" fill="#FFC0B8" fill-opacity="0.45"/>
<path d="M182.49 166.814C180.99 170.314 180.49 171.814 177.99 173.814C174.99 174.814 170.49 171.233 170.49 166.814C170.49 162.396 173.624 158.814 177.49 158.814C181.356 158.814 183.99 163.314 182.49 166.814Z" fill="#FFC0B8" fill-opacity="0.45"/>
<rect x="126.194" y="150.66" width="7.44039" height="3.64968" rx="1.82484" transform="rotate(-31.1009 126.194 150.66)" fill="#714B50"/>
<rect x="167.396" y="135.817" width="7.44039" height="3.64968" rx="1.82484" transform="rotate(3.1835 167.396 135.817)" fill="#714B50"/>
<path d="M152.671 172.759C156.17 174.259 159.407 173.2 161.538 169.815" stroke="#714B50" stroke-width="3" stroke-linecap="round"/>
<path d="M130.57 162.053C130.57 162.053 137.57 162.053 138.57 164.053C139.57 166.053 132.57 170.553 132.57 170.553" stroke="#714B50" stroke-width="3" stroke-linecap="round"/>
<path d="M172.817 149.053C172.817 149.053 167.417 153.373 167.969 155.644C168.52 157.915 176.897 157.314 176.897 157.314" stroke="#714B50" stroke-width="3" stroke-linecap="round"/>
<path d="M98.8564 86.9374C95.0231 79.604 85.8564 61.5587 85.8564 52.4373C85.8565 39.9373 55.3427 -3.3658 54.3563 2.55251C53.3563 8.55261 52.4764 10.0526 55.3563 18.0524C58.2362 26.0523 39.8563 12.5526 38.3563 15.0526C36.8563 17.5526 41.3562 21.5526 45.8563 25.5526C48.7349 28.1113 32.3439 27.0526 30.8563 29.0526C28.9812 31.5735 39.8829 42.6113 36.8563 44.0525C26.3563 49.0524 15.3564 40.5526 13.3564 61.0526C12.1027 73.9036 -6.14352 81.3221 6.3565 79.4374C18.8565 77.5527 31.356 80.4374 38.3563 93.9374C45.3566 107.437 51.3563 115.553 61.3564 122.937C71.3566 130.322 74.8567 125.937 76.8567 125.937" stroke="#714B50" stroke-width="4" stroke-linecap="round"/>
<path d="M46.8564 47.9373C55.8564 49.1631 61.8564 63.2598 61.8564 66.9373" stroke="#714B50" stroke-width="4" stroke-linecap="round"/>
<path d="M25.8564 58.9373C34.8564 60.1631 44.3564 85.9373 56.8564 91.9373" stroke="#714B50" stroke-width="4" stroke-linecap="round"/>
<path d="M72.3564 54.9373C78.8564 59.9373 81.8564 66.9373 83.8564 69.4373" stroke="#714B50" stroke-width="4" stroke-linecap="round"/>
<path d="M60.3564 110.438C65.3564 112.938 67.1391 115.886 68.3564 117.438" stroke="#714B50" stroke-width="4" stroke-linecap="round"/>
<path d="M80.0686 99.7558C85.2901 102.861 95.9711 99.1843 96.839 97.196C97.7069 95.2077 95.3873 85.1584 86.0704 83.804C76.7536 82.4495 53.7318 80.2491 57.5151 84.2361C61.2984 88.2231 74.8471 96.651 80.0686 99.7558Z" fill="#3667B4" stroke="#714B50" stroke-width="4" stroke-linecap="round"/>
<path d="M90.106 97.0113C84.7405 97.0078 76.8616 93.7199 76.9656 90.0569C80.6598 86.7861 89.3913 90.9 93.2953 93.3658C93.924 95.1337 95.4715 97.0149 90.106 97.0113Z" fill="#1A55B1" stroke="#3B71C4" stroke-width="3" stroke-linecap="round"/>
<path d="M89.4983 81.4239C89.6121 87.4977 98.3663 94.6365 100.513 94.326C102.661 94.0155 109.978 86.7471 106.218 78.1158C102.458 69.4844 92.1926 48.7608 90.7987 54.0774C89.4047 59.394 89.3844 75.3501 89.4983 81.4239Z" fill="#3667B4" stroke="#714B50" stroke-width="4" stroke-linecap="round"/>
<path d="M97.1213 88.5071C94.2961 83.9457 92.9371 75.5171 96.1047 73.6746C100.831 75.0898 101.938 84.6783 101.9 89.2957C100.729 90.7618 99.9465 93.0685 97.1213 88.5071Z" fill="#1A55B1" stroke="#3B71C4" stroke-width="3" stroke-linecap="round"/>
</svg>
