<svg width="148" height="142" viewBox="0 0 148 142" fill="none" xmlns="http://www.w3.org/2000/svg">
<path d="M74.6465 46.0203C75.6588 46.1328 76.4053 46.1345 79.6707 45.9087C82.7086 45.6986 88.5601 45.4579 92.2482 45.3693C95.9362 45.2807 97.286 45.3931 99.9779 45.7885C102.67 46.1839 106.663 46.8588 108.832 47.2065C111.227 47.5542 111.627 47.6666 111.911 47.9214C112.026 48.0637 112.082 48.2325 112.14 48.4063" stroke="#F6DF8F" stroke-width="4" stroke-linecap="round"/>
<path d="M64.0801 42.9528C64.53 42.7279 65.9428 42.4433 71.3599 42.3282C75.5952 42.2383 82.8509 42.6631 87.0664 42.8923C91.2819 43.1216 92.238 43.2903 93.8835 43.4334C97.8349 43.6891 100.604 43.9175 101.313 44.0879C101.629 44.1458 101.854 44.1458 102.256 44.4867" stroke="#F6DF8F" stroke-width="4" stroke-linecap="round"/>
<path d="M68 40.3965C68.3937 40.3965 68.7874 40.3965 72.7021 40.4246C76.6168 40.4527 84.0406 40.509 91.6894 40.5669" stroke="#F6DF8F" stroke-width="4" stroke-linecap="round"/>
<path d="M66.2969 45.1685C66.4094 45.1123 66.5218 45.056 72.0914 44.2959C77.6609 43.5358 88.6842 42.0735 94.7002 41.2359C100.716 40.3982 101.391 40.2295 101.879 40.1426C102.368 40.0557 102.649 40.0557 103.109 39.8853" stroke="#F6DF8F" stroke-width="4" stroke-linecap="round"/>
<path d="M93.2236 34.2612C93.9002 34.205 95.1529 34.1471 98.6995 35.1321C102.023 36.0552 108.433 37.8607 111.989 38.9003C116.072 40.0941 116.853 40.6216 117.617 41.2999C119.863 43.4046 120.887 44.313 121.484 44.7127C121.627 44.826 121.739 44.9947 122.026 45.1686" stroke="#F6DF8F" stroke-width="4" stroke-linecap="round"/>
<path d="M115.039 36.9878C115.434 37.2128 116.341 38.1194 117.393 39.0576C118.829 40.3396 120.382 40.3822 123.5 42.7622C124.865 43.8044 126.289 45.4734 125.5 46.2622C124.5 47.2622 127.48 48.7438 127.678 49.4264C128.104 50.3339 129.007 52.8205 129.383 54.2265C129.411 54.4259 129.467 54.6509 129.525 55.2235" stroke="#F6DF8F" stroke-width="4" stroke-linecap="round"/>
<path d="M106.176 45.509C105.049 45.509 102.77 45.3966 102.369 45.3378C101.737 45.2452 104.797 46.5265 107.351 47.3497C108.874 47.8406 110.82 48.5699 113.456 49.8737C117.136 51.9256 118.216 52.7778 118.895 53.3444C119.293 53.6299 119.8 53.9111 120.662 54.5417" stroke="#F6DF8F" stroke-width="4" stroke-linecap="round"/>
<path d="M106.857 41.2485C107.594 41.9848 108.5 42.6665 111.15 43.7666C113.337 44.6744 117.288 46.1602 120.244 47.5049C123.2 48.8496 125.056 49.9744 126.152 50.6663C127.53 51.5832 128.101 52.0962 128.612 52.5785C128.841 52.7796 129.01 52.8921 129.183 53.008" stroke="#F6DF8F" stroke-width="4" stroke-linecap="round"/>
<path d="M105.154 41.2485C105.829 41.586 106.571 42.0973 108.151 43.171C109.338 43.9072 111.307 45.032 113.867 46.2582C116.428 47.4845 119.521 48.778 123.049 50.4516" stroke="#F6DF8F" stroke-width="4" stroke-linecap="round"/>
<path d="M103.449 42.271C104.185 42.6681 107.004 43.1197 111.089 43.7435C113.84 44.1635 115.486 44.7115 116.677 45.1086C117.755 45.3932 118.67 45.6778 119.407 45.9616C119.751 46.0766 120.032 46.1329 120.321 46.1908" stroke="#F6DF8F" stroke-width="4" stroke-linecap="round"/>
<path d="M31.4317 105.178C31.3683 105.064 31.2666 104.886 31.19 104.702C31.0626 104.39 30.9862 104.109 30.9034 103.956C30.8841 103.918 30.8715 103.88 30.8203 103.803" stroke="#F6DF8F" stroke-width="2" stroke-linecap="round"/>
<path d="M35.7502 111.98C35.5225 111.841 35.1648 111.637 35.0247 111.497C34.9039 111.376 34.7192 111.318 34.5599 111.229C34.5193 111.206 34.4647 111.216 34.464 111.235C34.4564 111.422 34.9202 111.52 35.3285 111.763C35.5165 111.875 35.7112 111.891 35.8643 111.942C35.9405 111.967 36.0173 111.993 36.0873 112.031C36.2429 112.116 36.2974 112.323 36.3869 112.603C36.4919 112.932 36.273 113.151 36.209 113.362C36.1358 113.602 36.1201 113.814 36.0561 113.967C36.0051 114.12 35.9543 114.272 35.8652 114.425C35.8396 114.464 35.8144 114.502 35.7884 114.617" stroke="#F6DF8F" stroke-width="2" stroke-linecap="round"/>
<path d="M8.12361 117.768C8.12361 116.774 8.21383 114.763 8.35121 114.282C8.76218 112.845 7.07653 117.992 6.80314 118.858C6.55407 119.647 6.52975 120.225 6.34726 120.795C6.23984 121.131 6.16477 121.457 6.09642 121.73C5.93675 122.367 6.8004 123.186 7.52831 124.052C8.15766 124.801 8.75788 125.103 9.85008 125.375C11.7917 125.858 11.7679 127.56 12.4042 129.062M12.9531 122.082C12.9528 121.594 13.0884 121.461 13.2476 121.436M14.6829 121.09C14.4612 118.38 16.2338 119.911 16.257 119.818C16.3691 119.37 15.4204 121.856 14.2154 124.062C13.2486 125.833 12.4992 126.561 12.2716 126.539C11.5022 126.465 11.4973 124.293 11.0872 122.605C10.6956 120.993 10.4939 119.819 10.2896 119.682C9.60009 119.218 9.44683 121.546 9.30876 122.253C9.24643 122.573 8.99026 122.869 8.76335 123.165C8.65446 123.307 8.44622 123.326 8.26304 123.259C7.31061 122.91 6.98631 121.554 6.53043 120.664C6.18424 119.988 5.89274 119.32 5.61867 118.726C5.3319 118.105 5.0712 117.769 5.04797 117.654C5.00233 117.429 5.47856 118.853 5.88796 120.061C6.02805 120.474 6.20714 120.411 6.32197 120.298C7.11511 119.514 7.84749 117.91 9.52953 115.68C9.942 115.133 10.3545 115.08 10.6955 114.943C10.8507 114.881 10.9915 114.897 11.174 114.987C12.644 115.714 14.0425 117.628 14.6829 117.926C15.4568 118.286 15.8688 119.315 16.028 119.453C16.9604 120.261 16.0082 115.865 15.5072 114.808C15.4238 114.632 15.2345 114.58 15.1197 114.624C14.4447 114.881 14.4143 116.439 13.2538 118.378C12.7083 119.289 12.7713 116.001 12.9298 115.036C13.0372 114.382 13.318 112.904 13.2729 111.24C13.2596 110.746 13.1376 110.974 13.0911 111.158C12.9039 111.898 12.2272 112.707 11.8383 113.368C11.6775 113.641 11.5875 113.984 11.4508 114.077C10.6233 114.639 9.35319 110.327 12.1548 111.869C12.9198 112.29 10.8534 108.483 11.4508 107.336C11.7626 106.738 14.5483 107.79 14.5709 107.653C14.5951 107.505 14.685 108.331 14.7076 109.014C14.7167 109.292 14.7752 109.426 14.7985 109.068C14.9429 106.838 14.685 105.927 14.4355 104.808C14.2482 103.968 11.8356 103.417 11.5622 102.756C11.3413 102.222 11.1084 101.279 10.9464 100.546C10.8258 99.9999 13.0911 99.3629 12.9995 97.6118C12.9485 96.635 12.4541 95.9455 12.0891 95.3515C11.7447 94.7909 11.4508 94.2587 11.2457 93.7112C11.0273 93.1281 10.5869 92.5281 10.0394 91.8433C9.63593 91.3385 9.31013 90.8413 9.05861 90.1803C8.82985 89.5792 8.6704 88.974 8.35258 88.3575C8.04874 87.7681 8.30679 87.1505 8.2152 86.5354C8.07811 85.6146 7.76 85.1001 7.57752 84.5526C7.39003 83.9901 7.07653 83.4597 6.78058 82.7762C6.46195 82.0404 6.39305 81.2726 6.32402 80.7251C6.24726 80.1163 5.98296 79.4956 5.95904 78.9481C5.93415 78.3785 6.20988 77.8552 6.45935 77.3077C6.70186 76.7755 6.9371 76.2149 7.30207 75.6674C7.66705 75.1199 8.30132 74.3941 8.69227 73.7537C9.0167 73.2222 9.1707 72.6608 9.35319 72.1133C9.53568 71.5658 9.62726 70.84 9.99019 70.1996C10.2836 69.6818 10.6744 69.2434 11.0154 68.6057C11.5313 67.6412 11.6312 67.0563 11.9272 66.5088C12.0677 66.2487 12.178 65.9613 12.3598 65.9142C12.4829 65.8823 12.5416 66.3181 12.7009 68.7814C12.8601 71.2446 13.0857 75.8458 13.4951 80.1332C13.9045 84.4207 14.4909 88.255 14.793 90.3205C15.0951 92.3859 15.0951 92.5664 15.0951 92.5014C15.0951 92.1207 15.0049 91.3894 14.4396 89.624C14.0005 88.2525 13.1075 85.964 12.2826 84.0345C10.8002 80.5676 9.81044 78.8121 9.65119 78.2667C9.57178 77.9947 9.53705 77.7212 9.55892 77.6946C9.70373 77.5181 10.1248 79.3438 11.6415 83.3545C12.7105 86.1815 14.7369 90.4777 15.849 92.8664C16.961 95.2552 17.1865 95.5709 17.3253 95.8238C17.464 96.0767 17.5091 96.2571 17.0136 93.1924C16.5181 90.1277 15.4806 83.8124 14.901 80.4237C14.2738 76.7568 14.0029 76.2149 13.7527 75.5792C13.199 74.1723 13.0911 73.481 12.8635 72.82C12.8034 72.6455 12.6373 72.5241 12.5676 73.943C12.4979 75.3619 12.4979 78.3391 12.5204 80.0082C12.5535 82.4547 12.7248 83.4515 12.7036 86.5449C12.7004 87.0186 12.5006 86.7431 12.1828 84.867C11.865 82.9909 11.3688 79.5174 11.1131 77.6379C10.8334 75.581 10.8124 75.2566 10.7215 75.232C10.6059 75.2007 10.6306 75.7036 10.6525 77.4458C10.6744 79.188 10.7646 82.3005 10.9464 84.2874C11.3038 88.193 12.4049 89.1025 12.8608 89.9924C13.2338 90.7204 13.6352 91.4728 13.9776 92.0893C14.1519 92.4031 14.2284 92.7509 14.3877 92.8657C14.5751 93.0009 14.413 91.7571 13.8019 89.4456C13.3779 87.8413 12.5143 85.4199 12.1636 84.3004C11.813 83.1809 11.9484 83.4515 12.2436 85.1247C12.5389 86.7978 12.99 89.8653 13.3126 91.7838C13.6352 93.7023 12.409 95.874 12.9531 97.215C13.4971 98.556 14.3993 100.541 15.2249 102.623C16.0506 104.706 18.1789 105.331 18.6861 107.032C19.1932 108.733 19.4639 109.951 19.6259 110.421C19.7878 110.89 19.8329 110.575 19.5179 108.653C19.2028 106.731 18.5261 103.212 18.1776 101.242C17.829 99.2713 17.829 98.9555 17.8741 99.0184C18.1839 99.4503 18.1024 100.719 17.9219 103.324C17.7912 105.211 17.3806 108.229 17.1722 110.327M16.9391 118.428C17.0836 118.493 17.233 117.912 17.6192 116.012C18.0053 114.111 18.5918 110.728 18.939 109.075C19.2862 107.422 19.3764 107.603 19.4003 108.237C19.465 109.953 19.1071 112.378 18.7654 114.721M23 114.978C23.3466 114.857 24.2455 115.717 25.363 115.785C25.6753 115.804 25.4429 115.988 25.2365 116.125M26.5 115.762C28.2763 114.056 30.5376 121.87 31.2005 121.343C31.8984 120.788 30.3913 113.364 30.949 112.553C33.9194 108.237 31.6339 111.754 31.8615 111.662C31.9558 111.624 31.9988 111.931 31.9544 112.182C31.7552 113.31 30.5444 113.801 29.9969 114.235C29.4518 114.667 29.2677 115.304 28.8576 115.874C28.32 116.621 27.6724 116.764 27.5576 116.811C26.6203 117.19 29.3087 115.31 29.6976 114.649C30.0137 114.112 30.5827 113.352 31.2005 112.825C31.6672 112.427 31.9988 112.164 32.1355 112.095C33.049 111.629 30.7276 113.984 29.6586 114.87M26.0041 114.978C25.8297 114.968 27 114.262 27 114.262C26.9864 112.667 28.4366 113.309 29.4912 112.689C29.646 112.598 29.675 112.439 29.6983 112.302C29.7215 112.164 29.7215 112.029 29.6313 111.937C29.1678 111.463 28.0866 111.573 26.2877 109.937C25.5291 109.247 24.9864 108.251 24.3924 107.336C24.0827 106.859 23.6645 105.701 23.1184 104.11C22.348 101.864 21.8424 99.4668 21.4295 98.1087C21.3809 97.9487 21.3831 97.8127 21.5184 100.54C21.6537 103.267 21.9244 108.86 22.0864 111.832C22.2484 114.804 22.2935 114.984 22.3618 114.874C22.4302 114.764 22.5204 114.358 22.5894 111.646C22.6584 108.933 22.7036 103.926 22.5464 100.038C22.3892 96.1505 22.0283 93.5342 21.8424 92.051C21.6565 90.5679 21.6565 90.2972 21.679 90.248C21.7016 90.1988 21.7467 90.3792 23.1232 93.5622C24.4997 96.7451 27.2063 102.925 28.6006 106.176C29.9949 109.428 29.9949 109.563 29.9723 109.272C29.9498 108.981 29.9047 108.259 29.4529 106.15C29.0011 104.042 28.144 100.569 27.6123 98.5311C26.6958 95.0195 25.8954 94.0755 25.6452 94.0276C25.0376 93.9114 25.3472 95.7978 25.2119 98.8311C25.1087 101.144 24.8059 105.022 24.7567 107.562C24.7075 110.102 24.8879 111.184 25.1613 112.306C25.4347 113.427 25.7956 114.555 26.0041 114.978ZM26.0041 114.978C26.2125 115.401 26.2576 115.086 25.7847 112.622C25.3117 110.159 24.3193 105.558 23.7404 102.579C23.1615 99.5993 23.0262 98.3814 22.8437 97.0999C22.4741 94.5044 21.9777 92.6662 21.5683 91.5309C21.0792 90.1747 21.1097 87.9816 21.042 86.0665C21.022 85.501 20.839 85.7753 20.7693 87.471C20.6996 89.1668 20.6996 92.2793 20.7447 94.1308C20.8213 97.2757 21.2464 97.9904 21.2689 98.0608C21.3032 98.1678 21.3366 97.5448 21.1568 95.7794C20.9771 94.014 20.5711 90.9014 20.362 88.3732C20.1528 85.8451 20.1528 83.9956 20.1754 82.93C20.1979 81.8645 20.243 81.6389 20.3339 81.5227C20.4248 81.4066 20.5602 81.4066 20.675 81.4968C20.942 81.7066 21.0632 82.4044 21.651 84.7795C22.1284 86.7086 23.0508 90.0867 23.5155 91.8972C23.9803 93.7078 23.9803 93.8431 24.0028 94.003C24.0254 94.163 24.0705 94.3434 24.0712 92.8801C24.0719 91.4168 24.0268 88.3042 23.9359 86.2271C23.7524 82.0343 23.5251 81.4995 23.4342 81.1359C23.3884 80.9527 23.3433 80.7723 23.8163 82.7995C24.2892 84.8267 25.2816 89.067 25.8154 91.5671C26.3492 94.0673 26.3943 94.6988 26.2822 94.8663C25.5163 96.0105 24.3029 92.4379 23.305 90.9875C22.6333 90.0113 21.7658 88.4546 20.8951 86.6721C20.0243 84.8896 19.2123 82.9047 18.749 81.6793C18.2856 80.4538 18.1953 80.0478 18.1489 79.771C18.0802 79.362 18.1024 80.3923 18.3505 83.4324C18.5037 85.3098 19.0948 87.8258 19.373 89.1948C19.6511 90.5638 19.6963 90.6991 19.7195 90.9718C19.7427 91.2445 19.7427 91.6505 19.8794 92.3422" stroke="#F6DF8F" stroke-width="4" stroke-linecap="round"/>
<path d="M17.0101 80.86C17.0101 80.9051 17.0101 80.9502 17.0552 79.6201C17.1003 78.2901 17.1906 75.5835 17.2821 73.896C17.4632 70.5604 17.602 69.4254 17.6704 68.9709C17.738 68.5208 17.6034 70.1335 17.3539 73.6349C17.1354 76.7017 16.7367 78.532 16.7367 79.0344C16.7367 79.1636 17.0976 77.094 17.7346 74.0252C18.681 69.4659 18.6505 68.5587 18.7181 68.489C19.7267 67.4499 19.3339 73.4128 19.1754 75.0928C19.1361 75.509 18.7885 75.846 18.5835 76.0066C18.3827 76.1639 18.5589 75.168 19.146 73.0649C19.6366 71.3075 20.7255 68.2102 21.3953 66.3135C22.6126 62.8666 23.3432 62.2707 23.4116 62.1334C23.4718 62.0122 23.3446 62.7218 22.5087 64.5536C21.8073 66.0905 20.3646 68.7761 19.2383 70.6891C18.1119 72.6022 17.2999 73.6397 16.7914 74.2644C16.2829 74.8891 16.1025 75.0695 16.3253 73.2228C16.5481 71.376 17.1796 67.4966 17.505 65.3853C17.8303 63.2741 17.8303 63.0485 17.8303 63.3383C17.8303 64.4401 17.695 65.9984 17.3771 67.4529C17.0547 68.9286 16.1954 70.8689 15.3301 72.8722C14.9933 73.652 14.9159 73.9732 14.8469 73.9104C14.4577 73.5558 14.7314 72.3452 15.1381 70.1711C15.4375 68.5705 16.1763 66.0121 16.5474 64.8905C16.8075 64.1046 16.3335 66.7585 15.1053 70.4902C14.5861 72.0678 14.1477 72.959 13.9386 73.3561C13.7824 73.6525 14.1805 72.1251 15.3828 69.2627C16.0355 67.7085 17.1714 66.1297 17.9314 65.0224C20.0699 61.9071 22.1116 60.7657 22.4075 60.8334C22.538 60.8632 22.5682 61.0364 22.6591 63.4292C22.75 65.8221 22.8853 70.4684 22.8873 73.9896C22.8894 77.5109 22.7541 79.7664 22.6843 80.6802C22.6146 81.594 22.6146 81.0978 23.0657 78.2709C23.5168 75.4441 24.419 70.3016 24.8838 67.4043C25.3485 64.5071 25.3485 64.0109 25.326 64.2289C25.3034 64.4469 25.2583 65.3942 24.987 66.8972C24.7156 68.4002 24.2194 70.4301 23.4225 72.6261C22.6256 74.8221 21.5429 77.1227 20.5792 78.8492C19.6155 80.5756 18.8036 81.6583 18.4078 81.7198C18.0121 81.7813 18.0572 80.7889 18.2834 79.1273C18.5097 77.4658 18.9157 75.1652 19.5082 72.6945C20.1008 70.2237 20.8677 67.6524 21.3529 66.1474C21.8382 64.6424 22.0186 64.2815 22.1341 64.1858C22.2497 64.0902 22.2948 64.2706 22.318 65.5138C22.3412 66.7571 22.3412 69.0577 22.2285 71.0999C22.1157 73.1421 21.8901 74.8563 21.6837 76.01C21.2969 77.705 21.0208 78.6687 20.8841 79.3741C20.8376 79.6734 20.8376 79.8539 20.8376 80.0398" stroke="#F6DF8F" stroke-width="4" stroke-linecap="round"/>
<path d="M14.1383 61.7225C14.0932 61.7225 14.0481 61.7225 13.9572 61.6549C13.7134 61.4734 13.5915 60.5005 13.9975 58.0072C14.2755 56.3 15.2155 53.7997 15.6338 52.4081C16.0521 51.0166 16.0521 50.8361 16.0746 50.8785C16.0972 50.9209 16.1423 51.1915 16.0076 53.7443C15.873 56.2971 15.5572 61.1238 15.372 63.272C15.1868 65.4202 15.1417 64.7435 14.8929 63.2672C14.2619 59.5231 13.6831 57.0763 13.6148 56.781C13.5783 56.6236 13.5915 56.4406 13.569 56.4153C13.483 56.3189 13.0038 59.1007 12.3203 62.8592C12.08 64.1803 12.0879 64.317 12.1781 64.4544C12.2683 64.5918 12.4488 64.7271 12.6094 64.8419C12.77 64.9568 12.9053 65.047 12.9751 64.6424C13.4621 61.8154 12.364 59.7705 11.9977 58.3783C11.9208 58.086 11.9512 57.8541 12.0414 57.8506C12.9134 57.8176 12.9518 59.8908 13.2033 60.7636C13.2907 61.0667 13.5902 61.3562 13.8629 61.6747C13.9896 61.8226 14.1356 61.903 14.2955 61.7465C14.4555 61.5899 14.6359 61.184 14.977 60.1628C15.318 59.1417 15.8142 57.5178 16.363 54.5611C16.9119 51.6043 17.4983 47.3641 17.7778 44.2324C18.0574 41.1007 18.0123 39.2061 17.9439 37.9594M12.5328 44.1483C11.9061 47.0893 11.861 47.7659 11.8603 48.0469C11.8596 48.3278 11.9047 48.1924 12.0858 46.7469C12.267 45.3013 16.8599 45.1494 17 42.7621M10.9021 49.2238C11.1771 51.8647 11.9485 53.1053 12.269 53.7026C12.4516 54.0429 12.7249 52.4341 12.839 50.3262C12.9164 48.8969 12.8179 46.7298 12.5465 44.6219M10.5097 47.4953C10.8563 49.2805 10.9916 49.5512 11.0388 49.5778C11.0859 49.6045 11.0408 49.3789 10.5665 47.932M9.26172 49.5307C9.36075 49.7777 9.48795 50.1417 9.62533 50.3727C9.76271 50.6037 9.89804 50.694 9.96775 50.0863M10.127 48.5055C10.5715 49.3975 10.7647 50.8225 11.198 52.0138C11.5812 53.0674 11.9949 54.2016 12.6094 55.2254C12.8794 55.6753 13.2252 56.1604 13.3407 56.4133C13.9304 57.7043 12.1371 54.0293 11.5657 53.1135C11.1164 52.3933 10.7674 51.7465 10.2904 51.3125C10.145 51.1803 9.94998 51.063 9.92469 51.1061C9.50641 51.8183 10.4913 52.7881 10.8105 53.6534C11.3475 55.1093 11.9047 55.6587 12.3141 56.4796C12.4692 56.7906 12.5431 57.0735 12.5212 57.0305C11.8526 55.7141 11.9977 54.8003 11.9054 54.2966C11.7765 53.5926 13.8567 56.9683 14.7275 59.3878C15.5605 61.7023 15.9154 63.9479 15.8928 65.1317C15.8713 66.2585 15.1881 67.0509 14.9366 67.5984C14.8726 67.7378 14.7781 67.8711 14.6639 67.9183C14.4334 68.0135 14.1397 67.8287 13.9572 67.6702C13.3289 67.1242 15.4096 66.0995 17.2208 65.306C18.5555 64.7213 20.8364 64.0163 22.2013 63.6212C23.5662 63.2262 23.9722 63.2262 24.1137 63.0909C24.728 62.5033 23.6168 61.7253 23.0939 61.0644C22.885 60.8003 22.7515 60.4485 22.4788 60.1977C22.3652 60.0932 22.2061 60.1724 22.0462 60.3084C21.199 61.0289 20.4755 62.1272 18.3615 64.289C17.402 65.2702 16.8736 65.4584 16.6009 65.5268C16.4657 65.5607 16.3282 65.55 16.2585 65.4372C15.7201 64.5663 17.0499 62.9583 17.8715 61.7499C18.6432 60.6147 19.3765 60.4021 19.7176 60.2879C19.8715 60.2364 20.0135 60.3091 20.0832 60.5128C20.5208 61.7913 19.3341 62.8599 19.1065 63.043C19.0346 63.1009 18.9691 62.8653 19.0136 62.6596C19.2419 61.6024 20.4673 60.454 21.3347 59.6058C21.5901 59.356 21.9286 59.3987 22.1562 59.4664C22.3911 59.5362 22.3401 60.2599 22.3401 60.8532C22.3401 61.4849 22.0229 58.8574 21.2752 56.0469C20.7878 54.2148 19.628 50.9892 19.0477 49.2033C18.3968 47.1999 18.3308 46.8241 18.1948 46.6642C18.0422 46.4847 17.6938 47.9505 17.4662 50.9448C17.3245 52.8083 17.3288 55.3826 17.3732 56.7523C17.4177 58.122 17.553 58.2122 17.6904 58.1459C18.4469 57.7808 18.3294 56.8494 18.3308 53.8687C18.332 51.1122 17.9713 45.8358 17.7642 42.7109C17.5571 39.5861 17.4218 38.7741 17.3295 37.9724M14.7425 38.3401C13.0386 42.4527 12.5445 43.5366 12.5205 44.5864C12.5153 44.8171 12.5882 44.9965 12.7017 45.0443C12.8151 45.0922 12.9956 45.002 13.1787 44.775C13.6129 44.2372 14.2244 42.4622 15.292 38.9682M17.8066 42.0794C17.7403 45.3792 17.5147 48.4467 17.376 49.9592C17.2372 51.4718 17.1921 51.3364 16.8982 49.7104C16.6043 48.0844 16.063 44.9719 15.6263 42.8722C15.1895 40.7726 14.8738 39.7802 14.5758 38.6374M43.48 25.3581C44.1259 26.1749 45.2502 28.3525 46.1914 30.3004C46.4115 30.7559 46.3985 31.1465 46.3308 31.3748C46.1707 31.915 45.4443 30.1951 44.4656 27.6498C44.0252 26.5046 43.8477 25.7744 43.7561 25M37.2939 27.3327C35.678 29.0829 34.9652 31.0522 34.2606 32.0747C33.5485 33.108 33.0953 34.106 32.8219 34.7888C32.7133 35.0598 32.7289 35.2009 32.8868 34.8646C33.4147 33.7403 33.776 32.3836 33.9578 30.5266M30.2007 28.2868C29.0652 30.3027 27.3951 32.8552 26.1675 34.9829C23.9733 38.786 23.6619 39.8499 23.5936 39.9873C23.5333 40.1084 23.6605 39.3086 24.3611 36.9342C24.9443 34.9576 26.0992 31.4472 26.7929 29.3866M24.6803 35.503C23.625 38.1016 22.7228 39.906 22.258 40.9708C21.7933 42.0357 21.7933 42.3063 21.8835 42.0849C21.9737 41.8634 22.1541 41.1417 22.2697 39.3038C22.3852 37.4659 22.4303 34.5338 22.3858 32.4595M19.1769 35.0991C18.9254 38.2916 18.6547 43.84 18.6055 46.563C18.5563 49.286 18.7368 49.0153 18.9425 48.6278C19.1482 48.2403 19.3738 47.7441 20.3245 46.3156C21.2752 44.8871 22.9442 42.5414 24.7288 40.3632C26.5134 38.185 28.3629 36.2453 29.7667 34.8851C31.1706 33.525 32.0728 32.8033 33.6653 31.7774C35.2578 30.7515 37.5132 29.4433 38.9233 28.6792C41.5756 27.2418 43.5169 27.412 44.5503 27.2309C45.0692 27.1399 45.4402 26.8201 45.7129 26.7518C46.9113 26.4514 41.1165 28.7297 40.0237 29.4597C39.5089 29.8035 39.155 30.0994 39.0852 30.1459C37.6661 31.092 43.1998 27.7373 44.186 27.1174C44.3529 27.0126 44.482 26.8679 44.5066 26.8884C45.0046 27.3034 42.7624 28.0463 39.4659 28.9566C38.2502 29.2924 36.6794 29.8616 33.588 31.6742C30.4967 33.4867 25.9406 36.5542 23.3455 38.4727C20.0998 40.8721 19.5624 42.0808 19.1086 43.281C18.2552 45.5378 18.1025 47.5472 18.0574 48.4111C18.0164 49.1955 17.8291 49.7822 17.8291 50.0337C17.8291 50.1882 18.3704 47.7085 19.6868 43.6412C20.371 41.527 21.4543 39.4385 22.597 37.3764C23.7398 35.3144 25.0029 33.3746 25.6761 32.4656C26.3493 31.5566 26.3944 31.737 26.1921 33.2058C25.9898 34.6746 25.5387 37.4263 24.8553 40.0618C24.1718 42.6973 23.2696 45.1332 22.4439 47.1324C20.2584 52.4242 20.1078 52.9727 20.0846 52.9747C19.5359 53.0231 20.7858 50.2128 21.6053 46.9376C22.235 44.4208 22.2034 41.0132 22.2485 41.6105C22.4633 44.4556 22.3838 52.4929 22.5205 55.4339C22.6572 58.3749 22.8376 55.9841 23.2915 53.4668C23.7453 50.9496 24.467 48.3783 25.2448 46.1516C26.0226 43.9248 26.8346 42.1204 27.4108 40.9428C28.2443 39.2391 29.034 38.2615 29.9649 37.2841C30.9894 36.2085 32.0427 35.6165 32.7686 35.0259C34.964 33.2398 36.8708 32.0186 37.9186 31.2654C39.4423 30.1701 40.2417 29.5116 41.5184 28.8042C41.9943 28.5405 42.2962 28.2786 42.2983 28.3675C42.3034 28.5907 41.759 28.9977 39.971 30.5608C38.1831 32.1239 35.0254 34.7853 33.2183 36.3819C30.9834 38.3565 30.5431 39.0297 30.3155 39.0318C29.7591 39.0368 30.1317 37.7134 30.4475 36.2869C30.6877 35.2019 31.3948 33.4621 32.0584 31.9243C33.2887 29.0734 34.1861 27.4161 34.3002 26.9137C34.3222 26.8169 34.279 27.0429 33.7596 28.2868C33.2401 29.5308 32.2477 31.7862 31.4433 33.4218C30.1486 36.0542 29.3129 37.0709 29.2206 37.0272C28.7119 36.786 30.7591 34.9425 32.9627 32.5784C35.1897 30.189 37.2344 29.0551 38.1673 28.5548C39.8314 27.6624 41.4747 26.5016 42.3851 26.5228C43.2526 26.543 43.7985 27.0921 44.4587 27.2521C45.5912 27.5264 46.3944 27.0019 47.032 27.0696C47.2721 27.095 47.3088 27.2726 47.2644 27.3874C47.0133 28.0366 45.9911 28.4563 44.4 29.6401C43.4359 30.3574 42.8471 30.8731 42.2094 31.2374C41.0574 31.8955 40.66 32.467 40.1125 32.765C39.5457 33.0735 38.9294 33.4703 38.3355 34.0622C38.1975 34.1997 38.0628 34.2905 37.9705 34.2468C37.7329 34.1341 37.9671 31.9872 38.2856 28.9594M36.5899 25.5673C35.7048 27.427 34.3064 30.4494 32.8642 33.1115C31.4221 35.7737 29.9786 37.984 29.0094 39.3933C28.0403 40.8027 27.5892 41.344 27.3342 41.4875C27.0793 41.6311 27.0342 41.3604 27.0109 40.9278C26.8752 38.4011 27.5345 36.3901 27.557 36.2295C27.5924 35.9775 27.6712 37.835 27.5358 40.2204C27.2977 44.418 26.6241 44.9965 26.1696 45.9534C25.9583 46.3982 25.6672 46.6847 25.508 46.7544C25.4207 46.7926 25.3938 46.4181 25.4608 46.1659C25.7878 44.9349 26.892 43.5038 27.8954 42.2024C28.3234 41.6472 29.7995 39.8212 31.962 37.3621C33.7798 35.295 35.5503 34.9767 36.2577 34.8851C36.9669 34.7933 37.4203 33.9761 38.1263 33.201C38.2061 33.1134 38.0628 33.1969 36.933 34.2809C35.8032 35.3649 33.683 37.44 31.3052 40.4261C28.9274 43.4122 26.3562 47.2465 24.5579 50.575C22.7597 53.9036 21.8124 56.6101 21.3019 58.5683C20.7913 60.5265 20.7462 61.6542 20.7906 61.987C20.835 62.3199 20.9704 61.8237 21.7167 59.8314C22.4631 57.839 23.8164 54.3656 24.5361 52.4184C25.595 49.5533 25.9379 48.2416 26.4389 47.0093C26.5548 46.7242 26.7116 46.5083 26.849 46.4373C27.0918 46.3116 27.3513 48.3988 27.4203 51.7875C27.5042 55.9017 26.9877 56.7509 26.9877 57.39C26.9877 57.4727 27.123 56.8042 27.5311 55.8303C28.2856 54.0292 29.0791 51.8449 29.7852 50.2511C30.1244 49.4853 30.1317 49.1479 30.1542 49.1008C30.6053 48.1578 29.995 52.2304 30.1536 53.4046C30.1768 53.577 30.3121 53.745 30.3812 53.7026C31.7765 52.8461 30.4516 49.6961 30.3825 49.1486C30.3126 48.5938 30.2233 48.1911 30.1775 48.0537C30.0173 47.5732 30.7687 49.2341 31.4501 50.871C32.041 52.2905 32.4993 52.9248 32.8417 53.4518C33.7594 54.8642 31.228 48.9689 30.93 48.0564C30.5745 46.9679 30.3149 45.8686 30.2007 45.2986C30.1666 45.1283 29.9977 44.9582 29.8604 44.8202C29.6095 44.5681 30.0346 46.7093 30.9683 50.1711C31.5649 52.3833 31.772 54.2863 31.3647 55.4981C30.6653 57.5786 29.4961 58.2559 28.3198 59.7049C27.4091 60.8267 25.7 62.5974 24.2989 64.0231C21.8692 66.4955 20.4742 67.7344 20.2903 68.0092C20.267 68.044 20.6478 67.7426 21.9156 66.1822C23.1835 64.6219 25.3938 61.78 26.6227 60.2257C28.3326 58.0631 28.8085 57.1706 29.0149 56.4167C29.0577 56.2602 29.0381 56.1208 28.9705 56.1638C28.6864 56.3446 28.2672 57.2061 27.3821 59.154C26.7611 60.5207 26.1812 62.8161 25.7424 64.6772C24.981 67.9065 24.9373 69.6481 25.0049 69.968C25.0222 70.0499 25.2079 69.8368 25.5934 68.5484C25.9789 67.2601 26.6104 64.8693 27.0485 63.3444C27.6597 61.2174 28.0348 60.4937 28.194 60.4465C28.5965 60.3273 28.3547 61.9426 28.1968 65.969C28.0689 69.2298 27.7231 74.9574 27.7409 77.232C27.7587 79.5066 28.1195 78.1533 28.531 75.2458C28.9424 72.3383 29.3935 67.9176 29.6485 64.7606C29.9034 61.6036 29.9485 59.8443 29.9943 59.0057C30.0401 58.1671 30.0852 58.3024 30.1761 60.0637C30.267 61.8251 30.4024 65.2083 30.3818 69.5675C30.3613 73.9267 30.1809 79.1594 30.1556 81.7423C30.1303 84.3251 30.2657 84.0996 30.9669 80.5776C31.6682 77.0557 32.9312 70.2441 33.6721 71.0657C34.413 71.8872 34.5934 80.5482 34.7315 85.2806C34.8696 90.013 34.9598 90.5544 35.0514 90.946C35.1429 91.3376 35.2332 91.5632 35.2796 91.138C35.3261 90.7129 35.3261 89.6303 35.1682 87.9899C35.0104 86.3496 34.6946 84.1843 34.3289 82.4148C33.6868 79.3075 32.8232 77.3578 32.1644 76.1528C31.55 75.0293 30.863 74.3915 30.4987 74.2083C29.9709 73.9429 30.3135 75.4796 31.0585 78.1465C31.7069 80.4676 33.1117 84.6928 33.899 87.0577C34.8127 89.802 35.0978 90.3808 35.2339 90.8353C35.3794 91.3217 36.0506 93.3265 36.7566 96.1507C37.1483 97.7172 37.2399 98.4444 37.3533 99.6699C37.5531 101.828 37.4217 103.413 37.5351 103.686C37.5941 103.828 37.6937 103.959 37.7176 103.938C38.3484 103.398 36.8325 101.96 35.0384 98.67C34.3977 97.4951 33.8799 96.0167 33.3071 94.2581C32.7344 92.4995 32.1931 90.4696 31.8916 89.2434C31.1703 86.3088 31.4084 83.6895 31.3394 82.7771C31.2689 81.8447 30.8616 80.9556 30.3846 79.7493C30.215 79.3203 30.0442 78.7302 29.8836 78.4732C29.723 78.2162 29.5876 78.3064 29.4954 78.4206C28.848 79.2214 29.6287 81.3547 30.1276 84.0709C30.5086 86.145 30.8972 89.674 31.2198 91.8024C31.6402 94.5761 31.999 95.3483 32.2259 95.7563C33.165 97.4451 33.9127 99.0377 34.2312 99.5851C34.6823 100.361 35.0527 101.361 35.4157 102.022C35.7401 102.613 35.9631 103.275 36.2816 103.823C36.5897 104.352 36.6466 104.916 37.1011 105.304C37.3257 105.497 37.6035 105.6 37.7402 105.873C37.8052 106.003 37.7866 106.146 37.7415 106.013C37.3804 104.945 37.2863 104.194 36.9002 102.807C36.7302 102.197 36.5154 101.247 36.2639 100.375C36.0123 99.5038 35.7417 98.737 35.309 96.0864C34.8764 93.4359 34.29 88.9249 33.9879 82.9472C33.6858 76.9696 33.6858 69.6618 33.8437 71.1976C34.0015 72.7334 34.3173 83.3341 34.0514 84.8705C33.7856 86.407 32.9285 78.558 32.487 74.3792C32.0454 70.2004 32.0454 69.9297 32.0003 69.9482C31.9552 69.9666 31.865 70.2824 31.2546 73.3772C30.6443 76.472 29.5166 82.3362 28.9356 85.4474C28.3547 88.5586 28.3547 88.739 28.3772 88.5162C28.3998 88.2934 28.4449 87.6619 29.2124 85.0134C29.98 82.3649 31.4686 77.7186 33.07 73.7237C34.6714 69.7288 36.3404 66.526 38.4858 63.2522C40.6313 59.9783 43.2025 56.7304 44.5271 54.9896C45.8517 53.2488 45.8517 53.1135 45.6261 53.4046C45.4006 53.6958 44.9495 54.4175 43.0029 56.7742C41.0564 59.1308 37.6281 63.1004 35.5011 65.3709C32.8076 68.2462 31.6832 68.6024 31.2963 68.558C30.8958 68.512 30.997 66.973 31.5164 64.0928C31.8541 62.2203 32.8929 59.6338 33.5381 57.9703C34.4443 55.6339 35.5025 54.3929 36.4135 53.5714C36.6929 53.3195 36.7833 53.652 36.6261 54.8967C36.4689 56.1413 36.108 58.3516 35.5387 60.5729C34.9693 62.7942 34.2025 64.9595 33.7623 65.9847C33.3222 67.0099 33.2319 66.8295 33.208 66.4433C33.1479 65.4724 33.5012 64.1448 34.6549 61.7656C35.4838 60.0563 37.2071 57.5369 38.6075 55.6485C40.9518 52.4873 42.5682 51.1095 42.9783 50.653C43.0913 50.5271 43.1178 50.7377 43.0501 50.9209C42.9058 51.3115 42.5272 51.6508 41.2614 53.0068C40.1696 54.1765 38.1913 56.3477 37.0786 57.5308C35.9659 58.7139 35.7854 58.8492 36.0985 58.4678C36.4115 58.0864 37.2235 57.1843 39.0852 55.6143C40.947 54.0444 43.834 51.834 45.8175 50.4472C47.8009 49.0604 48.7934 48.5642 48.2671 49.1657C47.7408 49.7672 45.6658 51.4813 43.4916 52.9959C41.3175 54.5105 39.1071 55.7736 37.9008 56.4242C36.6944 57.0749 36.5591 57.0749 36.4217 56.9396C36.0733 56.5964 36.0096 56.0743 36.0322 55.643C36.062 55.0732 36.3267 54.4353 36.8482 53.6411C38.601 50.9718 40.8814 49.7863 41.4979 49.5348C41.659 49.4691 41.8383 49.3762 41.8636 49.42C42.1937 49.991 40.1651 50.9154 38.5904 52.1716C37.4593 53.074 36.6944 53.7026 36.4894 53.7033C36.4067 53.7036 36.4197 53.5236 36.5325 53.3636C36.6452 53.2037 36.8708 53.0233 37.7313 52.5469C38.5918 52.0705 40.0804 51.3036 42.6967 50.1417C45.3131 48.9798 49.0121 47.4461 51.1657 46.4755C53.8694 45.2571 54.4621 44.7272 54.5995 44.6589C54.7206 44.5986 54.1012 44.7709 51.9777 45.585C50.0955 46.3065 46.516 47.4816 43.9359 48.109C41.3558 48.7365 39.8671 48.7365 39.2356 48.6237C38.6041 48.5109 38.8747 48.2854 39.1269 48.1241C39.5818 47.8332 40.0626 47.7345 40.472 47.6662C40.6548 47.6356 40.7912 47.6429 40.8835 47.7782C40.9757 47.9136 41.0209 48.1842 40.999 48.4364C40.8664 49.9649 38.3444 52.0992 36.5844 53.1538C36.3008 53.3237 36.149 53.3376 36.0117 53.3609C35.8743 53.3841 35.7389 53.3841 35.7369 53.2262C35.7231 52.1653 37.5023 50.8881 39.1939 49.5833C40.2556 48.7644 41.2423 47.7386 42.7446 46.7141C43.4734 46.217 44.8675 45.6062 46.9179 44.8516C48.9683 44.097 51.6749 43.2851 53.2045 42.7766C54.7341 42.2681 55.0048 42.0876 55.1217 42.0849C55.2385 42.0821 55.1934 42.2626 55.0574 42.4683C54.9214 42.674 54.6959 42.8996 53.3843 43.7375C52.0727 44.5755 49.6819 46.019 47.3676 47.2362C45.0534 48.4535 42.8881 49.4008 41.6148 49.9339C40.3415 50.467 40.0257 50.5573 39.8405 50.5135C39.6553 50.4698 39.6102 50.2893 39.5869 50.0836C39.4666 49.0186 40.1979 47.4679 41.1316 46.1215C41.39 45.7488 41.7891 45.4175 42.8546 44.7354C43.9202 44.0533 45.6794 43.0609 47.5105 42.2113C49.3415 41.3618 51.191 40.6851 52.4595 40.2463C55.2164 39.2927 56.1448 39.0776 56.8304 38.8951C57.5917 38.6924 58.1515 38.6675 58.7215 38.5985C59.5651 38.4963 60.6558 38.3941 61.3413 38.3251C61.7494 38.2574 62.1622 38.1658 62.5032 38.0749C62.6638 38.0291 62.7992 37.984 63.0753 38.0742" stroke="#F6DF8F" stroke-width="4" stroke-linecap="round"/>
<path d="M38.0055 68.6873C38.0055 69.2497 38.0055 69.8206 38.3429 72.5807C38.6465 75.0639 39.3553 79.7275 39.7029 83.6508C40.0506 87.574 40.0506 90.611 40.0506 92.0631C40.0506 93.5151 40.0506 93.2901 40.1068 92.8087C40.1631 92.3272 40.2756 91.5961 40.3616 89.4478C40.4477 87.2996 40.5039 83.7564 39.9424 78.2193C39.3808 72.6821 38.1998 65.2583 37.7038 66.6081C37.2079 67.9579 37.4328 78.3062 37.6331 84.0871C37.8333 89.868 38.0021 90.7678 38.1171 91.3157C38.2321 91.8637 38.2884 92.0324 38.5704 91.107C38.8525 90.1815 39.3587 88.1569 39.9287 83.1207C40.4988 78.0846 41.1175 70.0984 41.4643 66.0687C41.8111 62.0389 41.8674 62.2076 42.0369 65.2472C42.2065 68.2868 42.4877 74.1921 42.2108 80.6087C41.9338 87.0252 41.0902 93.7741 40.6556 97.1103C40.221 100.446 40.221 100.165 40.3898 99.6828C40.5585 99.2005 40.8959 98.5256 41.2666 97.5312C41.6373 96.5368 42.031 95.2432 44.0897 90.415C46.1485 85.5868 49.0074 75.0001 51.0602 70.2622C53.486 64.6634 54.5369 65.4543 54.4244 65.8403C54.1728 66.7036 54.087 69.0384 53.6055 71.8572C53.1241 74.6761 52.3929 77.9381 51.0602 81.9525C49.7274 85.9669 47.8153 90.6349 46.8021 93.1521C45.7889 95.6693 45.7326 95.8942 45.6474 95.8695C45.2976 95.7681 45.2776 94.8802 45.2205 93.9463C45.1463 92.7321 45.84 89.9549 46.7757 86.352C47.1731 84.8215 47.5426 83.9303 48.6444 81.7514C49.7462 79.5725 51.6021 76.1418 52.4458 74.5432C53.2894 72.9445 53.0644 73.282 52.8079 73.7933C52.2239 74.9574 51.2494 76.7434 48.6512 80.7808C46.7533 83.73 43.8034 88.5863 42.1273 91.3873C40.104 94.7683 39.6552 95.7255 39.2862 96.2641C39.1196 96.5074 39.086 96.7464 39.0289 95.8499C38.9718 94.9535 38.9156 92.9288 39.3928 88.8488C39.8699 84.7688 40.8823 78.6948 42.4161 73.2036C43.95 67.7124 45.9746 62.9882 47.2426 60.1608C48.8803 56.509 49.7053 55.3974 50.1314 55.2235C50.3337 55.141 50.2762 56.062 49.1514 60.7121C48.0266 65.3622 45.7769 73.9671 44.5337 78.6249C43.2904 83.2827 43.1217 83.7326 44.1315 79.0714C45.1413 74.4102 47.3347 64.6243 48.4927 59.7237C49.6508 54.823 49.707 55.1042 49.7078 56.9926C49.7087 58.8809 49.6525 62.3678 49.3423 65.9639C49.0321 69.5599 48.4697 73.1593 47.8144 76.2227C47.1591 79.2861 46.428 81.7045 46.0513 82.5004C45.6747 83.2963 45.6747 82.3964 46.2652 79.4583C46.8558 76.5201 48.0368 71.5709 49.6013 66.7154C51.1659 61.86 53.078 57.2482 54.0631 54.9568C55.0482 52.6654 55.0482 52.8342 54.8232 53.7084C54.5983 54.5827 54.1483 56.1575 53.1573 58.7965C52.1663 61.4356 50.6478 65.0913 49.6968 67.1432C48.7458 69.1952 48.4083 69.5326 48.2064 69.6221C48.0044 69.7115 47.9482 69.5428 47.9473 69.0903C47.9451 67.9054 48.4544 65.9161 49.8945 62.4105C50.8437 60.0997 52.6281 56.8801 54.3409 54.1873C56.0537 51.4946 57.7409 49.4699 58.7226 48.2301C59.7042 46.9902 59.9292 46.5965 60.0732 46.5062C60.2776 46.378 59.769 48.2224 58.6075 50.7456C58.0567 51.9423 57.3898 52.8751 55.6932 54.8861C53.9966 56.8971 51.2408 59.9341 49.54 61.7518C47.8391 63.5694 47.2767 64.0755 47.0151 63.8864C46.1171 63.237 47.2051 60.8579 48.0257 58.6491C48.992 56.0485 50.4398 53.5874 51.7998 51.4332C54.6424 46.9307 57.7767 44.9962 57.4086 45.4487C56.9041 46.0688 55.5151 48.3315 52.6281 52.0706C51.072 54.086 48.9537 56.0348 47.3483 57.4434C44.7408 59.7311 43.0655 60.5051 42.4971 60.5076C41.8144 60.5107 42.8865 58.4139 43.99 56.46C44.5999 55.38 45.4872 54.2248 46.9623 52.6041C48.4373 50.9833 50.5182 48.9586 53.1368 46.7346C55.7555 44.5105 58.8487 42.1484 61.0046 40.6222C64.2038 38.3575 66.2316 37.5588 67.6214 37.1327C68.2139 36.9511 68.6176 36.9879 68.8766 37.1285C69.1357 37.2691 69.2482 37.5503 69.1093 37.8076C68.9704 38.065 68.5767 38.2899 67.1647 38.7433C65.7527 39.1966 63.3343 39.8715 60.9918 40.7253C58.6493 41.5792 56.4559 42.5915 55.3822 42.9443C54.3085 43.2971 54.421 42.9596 54.9851 42.3077C56.4586 40.6049 58.5607 39.096 61.2185 37.7369C62.8708 36.8919 65.3386 36.1528 68.5247 35.4651C71.7108 34.7774 75.5915 34.2712 78.153 34.0105C80.7145 33.7497 81.8393 33.7497 82.4469 33.8341C83.0545 33.9185 83.1107 34.0872 82.9991 34.3147C82.8874 34.5422 82.6062 34.8234 82.2926 35.0245C81.9791 35.2256 81.6416 35.3381 77.784 36.0428C73.9264 36.7476 66.5588 38.0411 61.976 38.7356C57.3933 39.4301 55.8185 39.4863 55.1479 39.4309C54.4772 39.3755 54.7585 39.2068 57.9966 38.3606C61.2347 37.5145 67.4212 35.996 70.8894 35.1012C74.94 34.0562 76.1181 33.581 77.3647 33.2129C79.4831 32.5874 80.4929 32.3318 81.3204 32.1588C81.4219 32.1376 81.3519 32.3829 81.2104 32.5542C80.8921 32.9396 79.7124 33.4617 77.5897 34.2269C76.3874 34.6604 74.8484 34.9359 72.5195 35.2785C70.1906 35.621 67.0974 35.9585 65.3914 36.1323C62.9493 36.3812 62.0391 36.5891 61.0447 36.5345C60.8609 36.5244 60.9552 36.1971 61.0404 35.9968C61.377 35.2059 62.5402 34.4928 63.6505 33.5827C64.2997 33.0506 65.2124 32.7851 68.425 32.4179C71.1814 32.1027 76.2493 31.7694 80.9096 31.5947C85.57 31.42 89.6755 31.4762 91.8749 31.5333C94.2449 31.5949 94.6418 31.7609 95.0389 31.9304C95.2284 32.0114 95.3235 32.2125 95.269 32.3838C94.9299 33.4486 92.2132 33.068 88.624 32.8712C86.2115 32.7389 82.6165 32.2807 80.481 32.0778C78.3456 31.875 77.7831 31.875 77.5778 31.9313C77.3724 31.9875 77.5411 32.1 79.709 32.1298C81.8768 32.1597 86.0386 32.1034 89.1668 32.1588C92.295 32.2142 94.2634 32.3829 95.7555 32.5823C98.2183 32.9114 99.7512 33.4634 100.463 33.8043C100.621 33.8802 99.4785 33.4702 97.3541 32.2219C95.1341 30.9173 92.7211 30.3429 90.4868 30.0873C87.2042 29.7117 84.9888 29.9441 84.0293 29.8589C80.5152 29.5468 78.3558 30.0003 77.0077 30.198C75.7829 30.3777 74.4803 30.965 73.5421 31.0229C73.463 31.0278 74.3576 30.9104 77.15 30.6838C79.3756 30.5031 83.2607 30.4571 86.6939 30.4554C90.1272 30.4537 92.9955 30.5662 95.9916 30.8491C98.9877 31.132 102.025 31.5819 103.87 31.898C107.127 32.4558 107.877 33.235 109.747 35.0757C111.94 37.2349 111.857 38.1791 111.857 38.4067C111.858 38.6308 110.728 37.9576 109.508 37.2767C108.768 36.8639 106.706 35.5222 103.697 33.7335C101.198 32.248 98.686 32.3863 96.283 32.8081C92.3297 33.5021 89.7062 35.2239 88.8839 35.7625C88.5052 36.0105 88.2303 36.2448 88.0573 36.4732C87.8844 36.7015 87.8281 36.9265 87.9116 37.183C88.1035 37.7724 88.958 38.1791 90.4561 38.5191C91.4377 38.7419 92.9103 38.8591 96.8693 39.1429C100.828 39.4267 107.24 39.8203 110.402 40.0513C113.564 40.2822 113.283 40.3384 109.904 39.9456C106.526 39.5528 100.058 38.7092 93.7172 38.3027C87.3765 37.8962 81.3587 37.9525 78.1743 38.0096C74.9898 38.0667 74.8211 38.1229 74.9873 38.18C75.1535 38.2371 75.6596 38.2933 80.5603 38.0973C85.4609 37.9013 94.7406 37.4514 99.3805 37.3321C104.02 37.2128 103.739 37.4378 103.313 37.638C102.887 37.8383 102.325 38.007 97.4794 38.9657C92.6342 39.9243 83.5231 41.6678 78.8296 42.4816C74.136 43.2954 74.136 43.1266 74.2766 42.8991C74.624 42.3369 76.113 41.3695 78.689 39.8962C84.0429 36.834 85.8921 36.5345 86.3471 36.4485C86.5389 36.4122 85.9551 37.0424 82.239 39.4079C78.8247 41.5813 72.2238 45.5978 67.6811 48.7243C63.1384 51.8508 60.8325 53.9317 59.6446 54.835C58.4567 55.7382 58.4567 55.4008 58.6254 54.9457C58.7942 54.4907 59.1316 53.9283 61.5832 51.4171C64.0348 48.9058 68.5903 44.4628 68.0126 44.8735C67.4348 45.2842 61.5858 50.6834 58.4039 53.5491C55.222 56.4148 54.8846 56.5836 54.6826 56.5299C53.3152 56.1664 55.6106 52.3382 57.0814 49.7332C57.9118 48.2625 59.2271 46.6783 60.5112 45.1632C61.7954 43.6481 63.0889 42.2984 64.627 40.8719C66.1651 39.4454 67.9086 37.9831 68.8068 37.4267C69.7049 36.8703 69.7049 37.2639 68.2989 39.3789C66.8929 41.4939 64.0808 45.3183 62.0135 47.9634C58.8209 52.0482 57.153 53.5176 56.6706 53.6888C56.4811 53.7562 56.3571 53.5227 56.3835 53.1546C56.4515 52.2062 57.3711 50.576 59.602 47.579C61.1029 45.5628 63.8013 42.8949 65.2747 41.2502C66.748 39.6056 67.0292 39.1557 67.1741 38.7271C67.3189 38.2984 67.3189 37.9047 67.2627 37.6176C67.2064 37.3304 67.094 37.1617 66.9517 37.0185C66.2095 36.272 63.5286 36.3061 62.0391 35.8818C60.6023 35.4724 57.6762 38.2865 56.2727 39.1446C56.0757 39.2651 55.9037 39.3159 55.8168 39.2605C55.7299 39.2051 55.7299 39.0364 55.8142 38.8651C56.5128 37.4469 59.0191 36.5345 60.1278 35.9397C62.4056 34.7177 65.3232 34.4314 66.3466 34.6002C66.6796 34.6551 66.4702 35.1063 66.2708 35.4208C65.4926 36.6479 64.2001 37.5503 63.2602 38.2644C62.6823 38.7034 62.0374 38.5217 61.7536 38.4092C61.4018 38.2698 61.5244 37.3901 61.5525 36.5959C61.5974 35.3291 63.6718 33.927 65.1264 33.0143C66.9797 31.8516 68.7846 31.4797 70.1267 31.0527C71.9816 30.4627 74.9745 29.9458 77.1381 29.7737C78.7785 29.6432 81.6161 29.4891 84.5968 29.5172C86.6366 29.5364 87.6509 29.772 90.601 29.8862C90.7848 29.8933 88.0769 30.1708 84.584 30.1427C83.1696 30.1313 81.9296 30.0003 80.2825 29.916C79.6985 29.8861 79.6476 29.6629 82.2338 29.576C84.8201 29.4891 90.0505 29.4891 92.9418 29.5172C96.2277 29.5491 97.9822 29.6595 100.168 29.6876C101.862 29.7094 102.764 29.9424 104.296 30.3114C105.27 30.5462 106.285 31.132 107.167 31.8444C107.837 32.3851 108.671 32.7817 109.412 33.1234C110.33 33.547 111.115 34.2031 112.392 34.9112C113.435 35.49 114.014 35.9073 114.354 36.0778C114.516 36.1588 114.694 36.1357 114.725 36.0514C114.99 35.3212 113.396 34.6053 112.485 33.7813C111.547 32.9315 110.669 31.8784 109.702 31.5632C108.617 31.209 107.771 31.1388 107.031 30.7119C106.291 30.2852 104.878 30.1708 103.935 30.3403C102.888 30.5287 101.299 30.7366 100.243 30.9087C100.043 30.965 99.8739 31.0774 99.6745 31.2197C99.4751 31.3621 99.2501 31.5308 98.6775 32.0455" stroke="#F6DF8F" stroke-width="4" stroke-linecap="round"/>
<path d="M56.0703 63.9155C56.0703 63.3531 56.9139 61.3761 58.4452 58.4823C59.0948 57.2547 59.6391 56.6008 60.2373 55.9156C60.8355 55.2305 61.5103 54.5556 64.5857 52.7176C67.6611 50.8795 73.1164 47.8987 78.9075 44.6572" stroke="#F6DF8F" stroke-width="4" stroke-linecap="round"/>
<path d="M54.707 63.7449C54.707 63.2933 54.932 62.2724 56.6022 60.0901C57.5525 58.8484 59.2983 57.7305 62.66 55.6385C64.9651 54.204 68.665 52.3092 71.3356 50.9577C75.5329 48.8336 77.5971 48.0111 78.3061 47.5858C79.3593 46.9868 80.3802 46.6476 81.3746 46.3903C81.6873 46.3613 82.081 46.3613 82.4866 46.3613" stroke="#F6DF8F" stroke-width="4" stroke-linecap="round"/>
<path d="M114.016 41.0781C114.072 41.4173 114.411 42.0973 115.347 43.119C115.849 43.6678 116.398 44.2566 117.585 45.5263C119.949 48.0568 121.342 50.2778 121.992 51.4077C124.053 54.9949 124.807 55.561 126.421 57.1767C127.879 58.6357 128.782 59.3104 129.381 59.993C129.955 60.6476 130.148 61.1868 130.15 61.1612C130.277 59.2529 128.335 57.9606 128.02 55.9164C127.625 53.3551 128.16 51.5321 128.5 51.3336C128.665 51.2369 128.84 51.1913 129.095 51.3029C129.747 51.5876 130.261 52.3229 130.714 53.0873C131.243 53.9795 132.074 57.0165 133.237 61.0752C134.151 64.2616 134.523 64.9362 134.665 65.1075C134.719 65.1732 134.862 64.9413 134.864 64.7419C134.873 63.7628 134.242 62.6712 133.928 61.6751C133.594 60.6111 133.444 59.716 133.303 58.6926C133.271 58.4637 133.274 58.2947 133.415 58.4046C134.555 59.2963 135.029 62.1906 135.772 65.4398C135.929 66.1307 137.364 67.1528 137.42 68.2623C137.429 68.4453 136.342 66.7104 136.117 64.1062C135.829 60.7709 134.81 58.6918 134.441 57.8439C133.398 55.4409 133.332 54.5453 132.879 53.665C132.29 52.5214 131.348 51.3685 130.182 50.2548C130.034 50.1134 129.923 50.5027 129.923 50.8163C129.921 51.4697 130.823 53.5023 132.101 56.1993C133.145 58.4048 133.84 60.892 133.984 62.321C134.025 62.7257 134.126 64.4675 133.957 67.9221C133.865 69.8072 133.451 71.9391 133.277 73.6587C133.104 75.3783 133.104 76.6156 133.104 76.4375C133.104 74.6284 133.047 72.4418 132.962 70.7469C132.902 69.5593 132.933 67.7022 132.989 66.9149C133.046 66.1275 133.158 66.4649 133.272 67.0043C133.387 67.5437 135.005 69.0486 135.147 70.7469C135.289 72.4452 137.277 70.3217 137.42 71.9646C137.683 74.9858 134.692 80.549 135.147 82.2303C135.602 83.91 136.393 86.1663 136.739 87.6021C136.935 88.4176 137.477 89.2476 137.987 90.1296C138.103 90.3295 140.975 90.6707 140.92 90.7857C140.865 90.9008 137.879 90.7849 137.708 90.7857C136.935 90.7896 136.175 90.1066 135.068 89.6234C134.181 89.2364 133.901 88.2898 133.248 87.3533C132.08 85.6773 131.854 83.8008 131.825 83.6568C131.561 82.3404 132.592 86.0675 132.79 86.75C132.843 86.9338 132.988 87.09 133.074 87.0363C133.383 86.8438 133.218 84.837 133.076 82.1698C132.988 80.5055 132.594 78.6419 132.282 76.4571C132.089 75.1054 131.686 72.9088 131.317 68.1862C131.084 65.2128 131.116 61.0454 131.256 61.4603C131.396 61.8753 131.733 66.9933 132.02 70.2203C132.412 74.6406 132.763 76.1827 132.847 77.3407C133.14 81.362 133.387 82.9418 133.36 83.4855C133.315 84.4192 131.805 80.8013 131.174 79.3995C130.61 78.1489 130.094 76.7042 129.442 74.8866C128.848 73.2305 128.673 71.4789 128.249 68.6208C128.003 66.9621 127.769 64.0312 127.568 62.2716C127.223 59.2485 127.082 58.6338 126.997 58.6313C125.24 58.5785 127.534 62.2605 128.437 65.9272C129.158 68.8527 130.24 73.9808 130.82 76.7579C131.667 80.8177 131.967 82.6027 131.94 82.8881C131.9 83.3008 131.231 81.984 130.3 79.673C129.51 77.7107 128.189 74.1001 127.437 71.9646C126.496 69.2924 126.288 68.2936 125.33 65.335C124.502 62.7819 123.134 58.0458 122.409 55.7527C121.685 53.4596 121.685 53.7409 122.135 55.4042C122.585 57.0676 123.485 60.1046 124.005 61.9784C124.692 64.4563 124.921 65.6707 125.205 66.8322C125.497 68.0268 125.828 70.2058 126.537 72.7315C127.289 75.4086 128.441 78.4971 128.87 80.244C128.995 80.7501 129.24 81.1268 129.353 81.2418C129.602 81.4937 129.356 79.8861 128.763 77.8784C128.382 76.5884 127.664 74.8022 126.247 71.7661C124.831 68.7299 122.694 64.5118 121.34 61.6359C119.986 58.7599 119.48 57.3539 119.022 56.1797C117.733 52.8717 116.746 52.1593 116.12 51.815C115.32 51.3755 116.738 54.7566 118.545 57.8967C119.695 59.8946 121.927 62.3304 123.027 63.7747C124.571 65.8019 124.354 67.0342 124.524 71.4235C124.646 74.5529 125.434 75.1601 125.745 76.3233C125.83 76.6382 125.888 76.9189 125.804 76.8951C125.721 76.8712 125.496 76.5338 124.48 74.8414C123.464 73.1491 121.665 70.1121 120.681 68.407C119.548 66.4418 119.413 65.7935 119.187 64.8604C118.833 63.3945 117.378 60.6397 115.422 57.405C114.109 55.235 112.039 54.0936 109.997 53.0157C109.09 52.5369 108.405 52.2752 105.583 52.0741C102.761 51.873 97.8116 51.7605 91.6626 52.5462C85.5136 53.3318 78.3147 55.0191 73.9595 55.9445C68.3415 57.1382 66.753 57.1545 66.2715 57.296C65.7219 57.4575 65.1066 57.947 64.7922 58.2614C64.3755 58.6781 66.7393 56.6517 69.1185 55.1213C71.6122 53.5172 73.3945 52.9518 75.0579 52.2479C76.4636 51.6531 78.9146 50.363 80.9487 49.4163C82.9827 48.4695 84.5012 47.8509 85.9303 47.3916C88.6164 46.5282 90.9979 46.3614 92.6161 46.3895C94.1661 46.4164 95.5483 48.2872 96.2326 49.0856C96.7467 49.6856 97.0293 50.2795 97.0021 50.5632C96.9683 50.9145 95.9556 50.7925 93.5015 50.5675C91.5488 50.3885 88.1791 49.8926 84.9222 49.6608C81.6653 49.429 78.6283 49.429 76.8107 49.4853C74.4819 49.5573 73.5155 49.9386 72.7494 50.2505C72.428 50.3814 72.2646 50.5061 75.1584 50.4797C78.0523 50.4533 84.0138 50.2846 88.4347 50.3383C92.8556 50.392 95.5551 50.6732 97.1989 50.8743C99.3555 51.1381 100.095 51.4162 101.308 52.2615C104.125 54.2257 105.948 56.1848 106.118 57.0071C106.195 57.3761 106.176 57.6607 106.036 57.7774C105.01 58.6287 102.72 56.1371 100.224 54.7753C99.2435 54.2404 97.6855 53.7579 94.1474 52.9339C90.6093 52.1099 85.0977 51.0413 81.3304 50.4346C77.5632 49.8278 75.7072 49.7154 74.8917 49.5731C74.0762 49.4308 74.3574 49.262 74.9803 49.0908C75.6032 48.9195 76.5593 48.7508 80.0045 48.7201C83.4497 48.6894 89.355 48.8019 94.9561 49.0848C100.557 49.3677 105.675 49.8176 108.48 50.1056C111.632 50.4292 112.477 50.7345 113.356 50.9893C114.458 51.3085 114.977 52.7728 115.35 53.6872C115.416 53.848 115.379 54.0272 115.267 54.1422C114.613 54.8109 113.113 54.259 108.171 53.3531C105.131 52.7959 99.7511 52.7865 95.7332 52.8384C91.7154 52.8904 89.1846 53.2841 87.5715 53.4869C84.2683 53.9022 82.7765 53.8602 81.6952 54.0297C80.9117 54.1526 80.2747 54.5419 78.9453 54.6833C74.9897 54.7685 73.8598 54.8827 72.7767 55.0242C72.4367 55.0531 71.9305 55.0531 71.409 55.0531" stroke="#F6DF8F" stroke-width="4" stroke-linecap="round"/>
<path d="M61.9385 56.7622C61.7136 57.3246 61.1478 58.5704 59.4537 63.8153C58.0812 68.0648 58.8913 73.6417 57.7639 78.7622C56.6365 83.8827 53.7614 88.356 53.5339 90.1361C53.1671 93.0065 52.623 94.2544 52.3401 94.5101C51.7313 95.0602 50.0768 95.2753 48.7909 95.6468C47.7876 95.9367 47.1148 96.0729 46.0079 96.159C45.2156 96.2206 44.5584 96.5842 43.7344 97.0094C43.3055 97.2307 43.0228 97.6067 42.6547 97.7772C42.4663 97.8644 42.2304 97.8351 42.1145 97.6383C41.4942 96.5847 43.5188 93.4858 45.2035 90.9396C45.5219 90.4583 45.7991 89.8932 47.2937 87.6913C48.7884 85.4894 51.4879 81.665 53.0192 79.4418C54.8777 76.7435 55.5714 75.0098 56.3937 72.5455C57.814 68.289 57.6779 66.9367 57.8193 64.7859C57.8972 63.6019 57.8483 61.5751 57.7639 60.8695C57.6796 60.1639 57.5108 60.8388 56.2991 65.2077C55.0874 69.5766 52.8377 77.6191 51.5945 82.2402C50.0998 87.7958 50.0086 89.2524 49.868 90.2153C49.5681 92.2692 48.1953 92.8893 47.4855 93.26C47.2532 93.3813 47.1693 93.012 48.0402 91.3205C48.9111 89.6291 50.7108 86.5358 51.7504 84.6892C53.0608 82.3617 53.6967 80.0153 54.4628 76.7823C55.0376 74.3562 55.1215 72.3938 55.1777 70.5804C55.2961 66.7626 55.3498 63.8145 55.2638 62.7024C55.2218 62.1598 55.0652 61.7063 54.9519 61.535C54.8948 61.5325 54.8385 61.7012 54.8096 61.8725C54.7806 62.0437 54.7806 62.2125 54.7806 62.3863" stroke="#F6DF8F" stroke-width="8" stroke-linecap="round"/>
<path d="M62.3758 57.7797C62.7133 58.3421 62.9433 59.0818 63.1129 60.0728C63.3142 61.2492 63.6813 63.8384 63.8798 66.9333C63.9999 68.8047 64.1926 69.7062 64.5044 71.0943C65.0146 73.3647 65.2151 74.0248 65.3856 74.1407C66.8478 75.135 66.1235 69.5528 66.3791 66.1016C66.7422 61.2009 66.4661 58.5722 66.5223 59.2232C66.6612 60.8313 67.1478 62.0335 67.3455 63.5401C67.6734 66.0396 68.3408 69.8698 68.4822 71.3244C68.5236 71.7503 68.5674 72.2626 68.6526 74.1799C68.8477 78.5676 68.6254 81.7503 68.5402 82.4575C68.3322 84.1838 68.3408 85.5491 68.4822 86.8043C68.6925 88.6699 68.3408 89.5882 68.0579 90.4693C67.6131 91.8545 67.8295 92.8263 67.6318 93.5949C67.5778 93.8049 67.4341 94.0193 67.3761 93.9383C67.0978 93.5495 67.4307 92.4957 67.6573 91.5029C67.8236 90.7749 68.3936 88.477 68.962 84.4813C69.2406 82.5223 69.0804 80.6544 68.9952 79.2765C68.91 77.8986 68.7975 77.055 68.7396 75.1863C68.6816 73.3175 68.6816 70.4492 68.5691 68.6061C68.346 64.9503 67.492 63.7515 66.979 62.0463C66.8173 61.5085 66.5802 61.1899 66.4107 60.9624C66.3344 60.86 66.1286 60.9599 66.0136 61.1013C65.4183 61.8333 65.331 63.0578 64.9075 66.4962C64.547 69.4227 64.0903 74.7713 63.7733 77.7205C63.3506 81.6529 63.1155 82.3178 62.6903 83.6488C62.2257 85.1031 62.2054 86.5205 62.0648 88.1302C61.6121 93.3122 61.2408 94.0772 61.1266 94.5067C61.0105 94.9435 60.842 91.8838 61.0107 86.6253C61.1199 83.2203 61.5169 78.3298 61.6063 75.9216C61.6958 73.5135 61.5271 73.7385 61.0184 74.9229C60.5096 76.1074 59.666 78.2446 59.0065 80.3297C58.3469 82.4149 57.897 84.3833 57.5246 86.7753C57.1522 89.1672 56.871 91.923 56.7262 93.9895C56.3783 98.9513 56.9222 99.8718 57.1761 100.893C57.6175 102.667 58.1697 103.28 58.681 103.991C59.3271 104.889 60.0444 105.438 60.6971 105.839C61.0713 106.069 61.522 106.067 61.8057 106.236C62.4827 106.641 62.7712 107.711 63.3958 108.196C63.5472 108.314 63.7358 108.339 63.9071 108.368C64.0784 108.397 64.2471 108.397 64.0809 108.087C62.7525 105.614 61.7521 103.461 61.355 101.645C61.0019 100.031 60.675 97.2796 60.1356 93.7381C59.5924 90.1722 59.8757 87.6675 60.2702 85.7459C60.9557 82.4071 61.8645 80.2215 61.8927 79.7963C61.906 79.5945 61.977 79.4273 61.9779 79.8185C61.9787 80.2096 61.9225 81.1657 61.2467 83.8235C60.571 86.4813 59.2775 90.8119 58.583 93.3521C57.4837 97.3727 57.6039 98.3379 57.632 98.9617C57.6449 99.2491 57.7163 99.473 57.8859 99.0264C58.0555 98.5799 58.3367 97.4551 58.9034 91.2234C59.47 84.9918 60.3136 73.6873 60.8326 68.0326C61.3515 62.3778 61.5203 62.7153 62.0852 65.2231C62.6502 67.7309 63.6063 72.3989 64.2394 76.7158C64.8726 81.0328 65.1538 84.8571 65.3268 86.9398C65.6681 91.0497 65.6702 94.476 65.7554 94.7325C65.7689 94.7732 65.7844 94.5953 65.8687 94.5365C65.9531 94.4777 66.1218 94.534 66.2087 94.6473C66.3883 94.8815 66.4081 95.2719 66.6348 95.4432C67.7022 96.2498 68.0544 91.0845 68.5095 89.3428C68.9848 87.5233 68.9645 86.1916 69.135 83.6497C69.2561 81.842 69.1929 78.9706 69.1648 77.3243C69.1182 74.5958 68.91 73.3499 68.8239 70.2899C68.8045 69.5985 68.7396 69.3176 68.6825 67.6824C68.6254 66.0471 68.5691 63.0663 68.4839 61.109C68.2822 56.4765 68.2828 54.3166 68.5657 53.9758C68.6974 53.8172 68.9611 53.8599 69.2176 54.0005C70.3512 54.6219 70.7813 55.3903 71.5755 56.3839C72.3671 57.3743 73.7297 58.3966 74.4463 59.311C74.925 59.9217 75.7203 60.8985 76.886 61.5555C78.2633 62.3318 80.9933 62.2653 82.6524 62.4093C82.9381 62.4341 83.219 62.4937 87.2164 62.4946C91.2138 62.4954 98.9188 62.4392 102.522 62.4102C106.126 62.3812 105.395 62.3812 104.642 62.3812" stroke="#F6DF8F" stroke-width="4" stroke-linecap="round"/>
<path d="M73.1133 56.9278C74.0745 56.984 76.0004 57.3232 77.2002 57.4672C77.658 57.5222 78.279 57.6657 79.4941 57.7791C81.5471 57.9706 84.5711 58.2316 87.4658 58.6576C88.6138 58.8266 89.1232 58.8025 90.4526 58.9431C91.7819 59.0837 93.9191 59.3649 96.5948 59.5379C99.2705 59.7109 102.42 59.7671 104.239 59.768C106.453 59.769 108.658 59.6546 112.031 59.7671C116.506 59.9163 117.363 60.7897 117.908 60.8476C118.547 60.9157 116.236 60.7914 114.682 60.4531C112.006 59.8706 109.425 58.6934 107.609 57.9274C106.275 57.364 105.215 57.2124 104.308 57.071C103.391 56.9279 101.082 56.5324 98.0451 56.1353C94.8034 55.7115 91.4172 55.2235 90.018 55.0821C89.0732 54.9866 86.1476 54.7122 83.6006 55.0514C82.324 55.2214 81.2427 55.5644 80.1332 55.7058C78.4149 55.9249 75.6766 56.0757 74.9071 56.0757C74.4955 56.0757 77.2462 56.3006 80.6419 56.6977C82.6256 56.9297 85.1625 56.9823 88.4347 57.4621C91.7069 57.9418 95.6438 58.7855 97.6437 59.3044C99.6437 59.8234 99.5875 59.9921 99.446 60.1352C99.132 60.453 96.4295 60.8442 91.528 61.3555C89.0522 61.6137 86.5702 61.5293 84.8455 61.3887C82.1961 61.1727 80.394 60.5085 78.3838 60.1966C77.2775 60.0249 75.9799 59.9409 75.2854 59.7705C74.5909 59.6001 74.5347 59.3751 74.5338 59.1186C74.532 58.5781 75.772 57.4476 78.0106 55.9726C79.0796 55.2681 80.1929 54.9474 82.4587 54.7446C84.7245 54.5418 88.1552 54.5418 91.6379 54.823C95.1206 55.1042 98.5513 55.6666 101.218 56.2094C105.715 57.1245 107.821 57.9487 108.359 58.2324C109.171 58.6601 110.314 59.6478 111.738 60.3346C113.356 61.1149 114.524 60.7897 115.262 60.9039C115.792 60.9857 116.342 61.2447 116.796 61.2174C116.988 61.2059 117.026 60.909 117.055 60.6806C117.179 59.7024 115.952 58.6934 114.93 57.6146C112.924 55.4962 109.603 55.9052 107.101 55.9896C106.846 55.9982 108.272 56.754 110.643 57.8839C112.425 58.7333 115.488 59.9137 117.671 60.9166C121.156 62.5176 122.479 63.5727 122.706 63.9409C123.213 64.7644 123.444 65.7286 123.588 66.4692C123.724 67.1669 124.013 67.8317 124.185 68.3737C124.596 69.666 121.576 67.0409 120.807 66.6157C119.886 66.1063 119.19 65.3946 118.365 65.1373C117.303 64.8059 116.126 64.9379 115.211 64.7964C114.476 64.6827 113.566 64.372 111.241 63.8037C109.893 63.4741 108.736 63.6869 107.771 63.773C106.798 63.8597 105.443 64.0278 104.589 64.1139C103.036 64.2702 101.125 64.7674 100.356 64.937C99.4256 65.1423 98.5104 65.2208 94.1219 65.2506C91.9205 65.2656 89.7641 64.9958 86.6742 64.9097C85.0428 64.8643 83.4583 64.655 82.3777 64.5408C80.9345 64.3883 80.0497 64.1437 77.5257 63.3503C76.3601 62.984 75.5607 62.6678 74.8202 62.3542C73.9783 61.9977 73.0622 60.7965 72.2356 59.8285C72.0388 59.5979 71.8113 59.3751 71.5829 59.3155C71.3545 59.2558 71.1296 59.3683 70.9855 59.5387C70.8415 59.7092 70.7853 59.9341 70.8969 60.1344C71.4038 61.0436 72.6532 60.9601 74.2143 61.4986C76.424 62.261 78.2773 62.8348 79.5563 63.3452C80.5706 63.75 82.0778 63.9698 83.5903 64.4249C84.475 64.691 85.0398 65.3912 85.7224 65.6468C86.5435 65.9544 87.4258 66.1309 89.3755 66.2723C92.7174 66.5148 95.0967 66.245 96.7303 66.1598C98.1934 66.0835 100.951 66.1309 102.596 66.159C104.691 66.1948 106.503 66.3013 108.858 66.3575C111.415 66.4186 112.646 66.7546 113.813 66.8407C114.705 66.9064 115.601 67.208 116.399 67.4934C117.262 67.802 118.386 68.5134 119.352 68.9131C120.528 69.3994 121.17 70.0473 121.57 70.7579C122.122 71.7398 122.875 72.8286 123.557 73.599C124.292 74.4281 125.656 75.443 127.501 76.5797C128.609 77.2627 129.351 77.7165 129.864 78.399C130.357 79.0548 130.66 79.7616 131.085 80.416C131.195 80.5853 131.396 80.6717 131.567 80.7296C131.739 80.7876 131.907 80.7876 132.107 80.6751C133 80.1712 133.496 78.4698 134.096 77.3816C134.5 76.6503 134.58 75.5657 134.779 74.4017C135.025 72.968 134.978 72.1572 135.12 71.4167C135.249 70.741 135.432 70.0541 135.631 69.0895C135.92 67.6934 136.055 66.9864 136.341 65.9647C136.828 64.2215 130.498 63.0027 130.5 62.2622C130.502 61.4725 135.55 60.5937 135.378 59.7671C135.191 58.8709 136.004 57.4425 135.378 56.4489C134.873 55.6481 130.17 55.546 130 55.2622C129.375 54.9767 133.446 54.3151 132.038 54.2299C130.798 54.201 119.172 50.2622 116.796 50.2622" stroke="#F6DF8F" stroke-width="4" stroke-linecap="round"/>
<path d="M87.0885 66.6423C86.8073 66.8127 85.8989 66.9252 84.567 66.8144C82.1591 66.6141 79.6647 65.2243 77.8045 65.0803C77.0287 65.0203 76.5254 63.9768 75.8428 63.3777C75.1546 62.7737 74.1974 62.61 72.9498 62.27C70.3883 61.417 69.5958 61.0761 68.0356 60.3961C67.607 60.224 67.2133 60.1115 66.4668 59.8252" stroke="#F6DF8F" stroke-width="4" stroke-linecap="round"/>
<path d="M32.3262 112.339C32.7516 112.813 33.3193 113.096 33.8892 113.406C34.1394 113.542 34.4591 113.335 34.6725 113.406C34.7451 113.617 34.792 113.903 34.8397 114.187C34.8404 114.33 34.7935 114.471 34.6028 114.758" stroke="#F6DF8F" stroke-width="4" stroke-linecap="round"/>
<path d="M42.0215 46.0043C41.754 45.8448 41.219 45.0955 40.5471 43.9417C39.4945 42.1344 39.3917 40.3708 38.988 38.6248C38.9063 38.2712 38.8535 38.1116 38.7463 38.0826C38.6392 38.0536 38.4796 38.16 38.3443 38.4806C37.3969 40.725 38.0993 43.4744 38.582 44.8981C38.6841 45.1993 38.7439 45.3565 38.7181 45.3323C38.1492 44.7989 37.7803 43.4873 37.6441 42.3021C37.4721 40.8049 37.4563 39.238 37.2694 39.0229C37.1744 38.9135 36.9229 39.0204 36.7602 39.1542C36.0625 39.7275 35.6854 40.8413 35.4421 41.9452C35.2374 42.8734 34.7733 43.9578 34.2085 45.0334C33.8822 45.655 33.3215 45.9495 33.0266 46.0309C32.8939 46.0675 32.7849 45.8464 32.7301 45.6313C32.1855 43.4929 33.8548 39.9937 34.0716 39.2912C34.5773 37.6517 31.6053 43.6355 31.3056 44.5524C30.96 45.6096 32.9363 41.8243 34.8176 39.9124C35.0684 39.6575 35.1987 40.142 35.1995 40.5199C35.2039 42.5496 33.7001 45.0826 33.0266 46.1888C32.468 47.1062 32.3546 47.8284 32.0863 48.2305C31.9651 48.4121 31.9244 48.5793 32.1097 48.3424C33.4366 46.6463 34.2287 45.6337 34.8748 44.612C35.7842 43.1742 36.1656 42.5688 36.247 42.4326C36.8068 41.4958 35.3631 44.4928 34.4245 46.026C33.9644 46.7775 33.5906 47.4513 33.2941 48.0967C33.2185 48.2611 33.1071 48.4182 33.0789 48.3408C32.7725 47.5004 33.7453 46.8132 34.4188 46.0341C35.04 45.3156 35.1456 44.3945 35.3059 44.0996C35.3884 43.9479 35.5726 43.8579 35.7079 43.8829C36.3468 44.0008 36.5394 45.0342 37.1848 45.4927C37.4689 45.6945 37.8302 45.7884 38.1251 46.0293C38.2729 46.15 38.3668 46.3233 38.1823 46.4055C36.9802 46.941 36.1172 46.3266 35.4703 45.9793C34.6322 45.5295 35.7338 43.6452 37.5547 39.6344C38.2851 38.0254 38.7858 35.7364 39.1411 34.7454C39.4964 33.7544 39.5496 34.0734 39.4175 35.0089C39.0652 37.5024 38.2121 40.1919 37.4877 42.203C36.9457 43.7079 36.8118 44.8183 36.8375 45.3565C36.8926 46.5062 38.7407 42.4173 39.2273 39.7851C39.5868 37.8409 39.1758 36.3391 38.9083 35.8025C38.7875 35.5602 38.5344 35.4786 38.3185 35.5301C37.1741 35.8034 36.0689 39.0011 35.2817 41.3256C35.1739 41.6441 35.1472 41.8114 35.1464 41.8138C35.094 41.9709 35.9448 40.5352 37.3645 38.3138C38.1502 37.0845 38.8374 35.5076 39.3007 34.8461C39.7239 34.2417 40.7259 37.4364 41.746 41.4392C42.0784 42.7435 42.2342 42.5172 42.3156 40.2806C42.397 38.0439 42.4501 33.7898 42.4775 32.0769C42.5049 30.364 42.5049 31.3211 42.7708 33.8084C43.0367 36.2956 43.5685 40.2838 43.8956 42.1788C44.2227 44.0738 44.3291 43.7548 44.3838 42.6066C44.4386 41.4585 44.4386 39.491 44.3854 38.0254C44.2993 35.652 43.6378 33.2887 42.886 30.9803C42.6029 30.1109 42.5597 29.8419 42.4526 29.6783C42.3454 29.5148 42.1859 29.4616 42.0771 29.5139C41.9683 29.5663 41.9152 29.7258 41.808 31.9351C41.7008 34.1443 41.5413 38.3984 41.4325 38.4895C41.3238 38.5805 41.2706 34.3796 41.2698 32.4548C41.269 30.5299 41.3222 31.0085 41.5623 32.6111C41.8024 34.2136 42.2278 36.9256 42.7394 39.1204C43.251 41.3151 43.836 42.9104 44.2436 43.6524C44.6513 44.3945 44.864 44.235 45.1066 43.5413C45.3491 42.8475 45.615 41.6245 45.8317 39.6118C46.0484 37.5992 46.2079 34.834 46.3167 33.2766C46.4255 31.7192 46.4787 31.4533 46.639 32.8584C46.7993 34.2636 47.0652 37.3478 47.2554 39.0696C47.476 41.0671 47.7146 41.5439 47.8218 41.7864C47.8898 41.9403 48.0901 40.0566 48.2246 37.4292C48.4288 33.443 47.3956 30.7572 46.9129 29.8419C46.701 29.44 46.0533 34.0444 45.5698 37.4477C45.5423 37.6415 45.4055 33.5127 45.7245 32.0986C45.9451 31.1209 48.2432 35.0789 49.6926 38.3549C50.2072 39.518 50.3976 39.6102 50.5064 39.5852C51.1417 39.4394 50.5104 37.8989 50.1076 35.8371C49.2952 31.6795 48.6831 30.8603 48.1739 30.2149C47.9247 29.8992 47.7694 29.5695 47.7154 29.4076C47.4514 28.6156 50.0109 33.7834 51.1775 35.8492C51.6696 36.7205 52.2249 37.567 52.5214 38.2671C52.6665 38.6095 52.8711 38.9125 52.9783 39.234C53.2334 39.9994 52.9275 35.3207 52.7648 33.897C52.6662 33.0348 52.067 32.259 51.9848 31.7433C51.7119 30.0307 53.6752 35.2046 53.9451 35.85C54.011 36.0075 54.0523 36.1715 54.1594 36.2005C55.4848 36.5592 54.2714 32.2042 53.9467 31.504C53.8042 31.1966 53.7316 30.8587 53.5979 30.5372C53.5284 30.3702 53.4109 30.2157 52.9839 30.1335C52.5569 30.0514 51.8124 30.0514 51.3757 30.1843C50.939 30.3172 50.8327 30.5831 50.7779 31.0657C50.5471 33.099 51.1517 33.8607 51.5272 34.6946C51.6167 34.8934 51.7415 35.0435 51.5836 34.78C50.4046 32.8129 49.5984 31.6692 49.1399 30.4316C48.8233 29.577 48.5751 29.0861 48.4679 28.9242C47.8149 27.9372 48.5187 32.8874 49.1093 34.1032C49.3721 34.6443 49.7547 35.0451 50.1027 35.3134C50.2751 35.4463 50.504 35.4754 50.6401 35.423C50.7763 35.3706 50.8295 35.2111 50.8037 35.0225C50.6554 33.9385 49.3824 33.1163 48.7653 32.6844C47.9847 32.1382 46.6463 33.4869 45.0904 34.6382C43.8745 35.538 41.7669 37.2366 39.5126 39.1961C38.3632 40.1951 37.5675 40.7366 36.2582 42.2312C33.8104 45.0255 32.3562 47.4513 31.474 48.4399C30.0345 50.0529 28.9191 52.118 28.2753 53.8607C27.5029 55.9517 27.3061 56.6364 26.9298 57.4678C26.5268 58.3585 26.0701 59.0019 25.7486 59.2162C25.5867 59.3242 25.4272 59.4305 25.2918 59.3258C24.906 59.0272 24.9405 57.6693 24.9405 56.4857C24.9405 55.6834 24.5119 58.4605 24.2968 59.2952C23.9358 60.6958 23.7062 62.1151 23.5176 63.0812C23.31 64.145 23.168 66.7173 22.7136 69.2021C22.5076 70.3285 21.3471 71.616 19.0259 74.8211C17.3406 77.1481 14.2053 80.5787 12.4312 82.493C10.657 84.4074 10.2316 84.6201 9.9327 84.6765C9.63378 84.7329 9.47425 84.6265 9.36548 84.4388C8.90063 83.6365 8.88125 82.9087 8.5058 82.1304C8.07555 80.8123 5.58082 80.8975 5.50025 80.7621C5.47286 80.7863 7.69848 80.4304 8.02076 80.9718" stroke="#F6DF8F" stroke-width="4" stroke-linecap="round"/>
<path d="M54.8784 99.3479C54.7617 99.3479 54.4098 99.3479 53.8802 99.2895C53.4345 99.2404 53.0536 98.6441 52.6708 97.9678C52.3496 97.4003 52.4029 96.8157 52.4612 96.5788C52.6607 95.7687 53.9306 98.1631 55.0217 99.1092C55.8402 99.819 56.6449 99.7599 56.8226 99.8191C57.9171 100.184 54.2914 97.9368 52.2932 97.7273C50.9725 97.5888 49.6974 97.1093 46.5508 97.1075C44.611 97.1064 43.7419 98.2268 43.0045 98.7263C41.9315 99.4533 41.0931 100.989 40.5564 101.998C40.3817 102.326 40.3203 102.706 40.2319 102.854C40.0981 103.079 40.3769 102.121 40.6422 101.854C40.7611 101.735 42.0161 101.243 44.3493 99.8828C46.1397 98.8387 47.7382 97.9368 49.1263 97.6097C50.5951 97.2635 52.0386 98.8669 53.0783 99.7289C53.6891 100.235 55.0446 101.226 56.4363 102.174C57.7997 103.104 59.1187 104.532 60.1788 105.298C61.165 106.01 60.9382 107.79 62 108.762C62.6776 109.383 64.8338 108.306 65.6622 109.099C66.139 109.555 66.312 110.133 66.5764 110.427C66.7032 110.568 66.8991 110.605 66.4349 110.635C65.9707 110.665 64.862 110.665 64.2909 110.577C63.7197 110.49 63.7197 110.315 63.8073 110.195C63.9948 109.94 64.542 109.957 64.9841 109.637C65.7726 109.064 64.9009 106.962 64.5473 104.408C63.7728 98.8138 64.6039 97.8201 64.809 96.905C64.904 96.4812 65.1927 96.1668 65.3395 96.0182C65.5722 95.7827 65.6648 97.2772 65.8107 98.0181C66.2105 100.048 66.9592 95.2844 67.4313 94.7513C67.5099 94.6626 67.6665 94.9237 67.8433 94.8096C69.1072 93.9944 69.5479 89.4209 69.9962 86.3883C70.3579 83.941 70.8494 82.9101 71.2923 82.0216C71.4629 81.6793 71.6752 81.255 71.9987 80.5804C72.481 79.575 72.3842 76.677 72.3551 73.289C72.3377 71.277 71.8538 70.3519 71.6778 69.6437C71.4709 68.811 71.2066 67.8763 70.9705 67.3724C70.6261 66.6372 70.9095 69.3405 70.9988 75.8044C71.0293 78.0132 71.2632 78.8325 71.2649 80.8333C71.2652 81.1421 71.0899 80.9615 71.0006 80.7838C70.8289 80.4421 70.7344 80.0756 70.646 80.0438C70.0713 79.8369 70.6743 81.5432 70.7627 83.5918C70.9567 88.087 70.4091 93.2904 70.1147 93.2621C69.7503 93.2271 70.0855 88.6393 70.1147 85.9851C70.1306 84.5365 70.204 90.6816 70.0864 90.801C69.8289 91.0623 69.792 88.6357 69.4984 85.7535C69.089 81.7328 68.1439 79.7944 67.7585 78.3383C67.5382 77.5064 66.846 76.8945 66.2563 76.0395C66.1203 75.8423 66.0786 75.6567 66.0194 75.7416C65.9601 75.8265 65.9018 76.1766 65.8134 77.9616C65.725 79.7467 65.6082 82.9561 65.519 84.6969C65.3962 87.0909 65.1945 88.0275 64.9292 89.0875C64.7781 89.6916 63.2432 93.496 63.1265 93.7621C62.7791 94.5542 62.6093 89.1556 61.4245 88.886C60.0977 88.584 58.1851 88.6216 57.0048 88.092C55.8828 87.7375 54.9421 87.3838 53.1464 87.3529C52.7583 87.3821 52.5832 87.4404 52.226 87.3237" stroke="#F6DF8F" stroke-width="4" stroke-linecap="round"/>
<path d="M9.73793 58.4933C9.73793 58.7462 9.73793 62.4171 9.73793 67.5604C9.73793 69.1631 9.73793 68.7205 9.57987 67.386C9.15889 63.832 8.77997 61.1162 8.74836 60.2243C8.67799 58.239 8.65352 54.8992 8.55772 54.2621C8.46287 53.6313 8.01743 58.0795 7.44266 63.1519C7.21219 65.1858 7.24723 66.1378 7.24723 66.4999C7.24723 67.0635 8.20136 61.7848 8.46001 58.4665C8.48204 58.1838 8.77997 60.9648 8.90642 63.2065C9.06772 66.0658 9.79924 57.8687 9.96113 55.7219C10.0168 54.9832 10.1211 54.3453 10.1843 53.7715C10.2134 53.5078 10.374 53.3241 10.4708 53.4161C11.3853 54.2854 10.443 56.7556 9.90174 60.2847C9.56517 62.4792 9.29727 65.5209 9.13441 67.5901C8.79557 71.8954 8.77997 73.1731 8.55772 73.9797C7.90212 76.3591 7.24723 67.5652 7.24723 67.3391C7.24723 65.9046 7.05564 70.0463 6.7376 71.6423C6.33732 73.6509 6.9905 74.7096 7.46852 75.6369C8.11758 76.8961 8.77614 77.6487 9.32122 78.6066C9.85623 79.5469 10.1824 80.9019 10.535 82.0237C10.8817 83.1271 11.7765 85.1131 12.3867 87.0022C12.8193 88.3415 12.9299 89.0177 13.0266 89.4325C13.064 89.5928 12.8072 89.6577 12.6147 89.627C12.2066 89.562 11.9106 89.1499 11.7506 88.9574C11.3059 88.4221 12.6099 90.5486 13.5928 93.2423C14.4109 95.4846 15.7769 99.54 16.5567 101.751C17.3365 103.962 17.4629 104.215 17.5281 104.187C19.455 103.365 16.2521 98.4172 16.093 96.7858C16.0525 96.3698 16.0605 95.9265 16.0289 95.825C15.7663 94.9817 15.8037 100.17 16.2482 105.236C16.6696 110.038 17.53 112.141 17.2761 111.569C16.2688 109.3 15.2979 106.407 14.4674 104.419C13.4364 101.952 13.2517 100.904 12.6463 99.881C12.0404 98.8571 11.5274 97.9651 11.081 97.1661C10.8172 96.694 10.5694 96.2388 10.4095 96.1095C9.59906 95.4544 11.2668 98.2755 12.3187 99.8053C14.4812 102.951 15.3554 104.786 15.5173 106.45C15.6752 108.073 16.2521 112.116 15.8076 113.955C15.443 115.464 14.34 116.159 13.9223 117.117C13.3688 118.386 11.3473 122.263 10.3462 124.43C9.91357 125.366 9.67662 126.313 9.57795 128.543C9.54365 129.318 9.99083 129.827 10.3424 130.084C10.9587 130.534 10.1863 128.302 10.4372 126.613C10.9348 123.265 12.7996 122.428 13.3753 121.022C14.263 118.855 15.8612 117.45 18.1277 113.4C19.3059 111.294 20.4633 109.974 21.199 108.791C22.2971 107.025 22.8275 105.054 23.5613 104.128C23.9538 103.632 24.6783 103.454 25.4111 103.39C26.6184 103.284 27.9928 104.912 29.881 107.118C30.7391 108.121 31.7672 108.369 32.4081 108.722C33.0156 109.057 31.8362 107.035 31.8659 105.407C31.8704 105.158 32.1504 105.303 32.3429 105.431C33.0992 105.936 33.6831 107.782 34.1324 109.007C34.3973 109.73 35.0894 110.411 35.5693 111.178C35.6836 111.361 35.7293 111.56 35.7303 111.532C35.7807 110.018 33.9475 107.801 32.8602 105.824C32.4742 104.669 32.2826 104.094 32.1235 103.712C32.0277 103.519 31.9013 103.33 31.5794 103.134" stroke="#F6DF8F" stroke-width="2" stroke-linecap="round"/>
<path d="M39.1224 111.764C37.1224 120.964 48.9187 126.26 55.4183 122.262C66.4183 135.264 100.42 148.462 122.42 131.262C129.92 127.262 136.418 115.262 136.418 107.762C136.418 99.2598 132.418 102.262 130.918 91.7622C129.418 81.2622 120.931 71.801 114.622 69.2644C105.918 65.7644 87.6225 70.2644 81.6225 69.2644C75.6225 68.2644 70.6225 61.7644 72.6225 65.7644C74.6225 69.7644 74.1225 83.2644 73.6225 89.2644C73.2225 94.0644 67.7252 99.9311 65.0266 102.264C67.4231 106.395 70.0692 109.978 69.6225 111.764C69.1758 113.551 65.4948 114.388 61.1224 111.764C58.6224 110.264 56.1225 102.264 52.1225 100.764C48.1225 99.2645 41.6224 100.264 39.1224 111.764Z" fill="#FFF2E5"/>
<path d="M39.1224 111.764C37.1224 120.964 48.9187 126.26 55.4183 122.262C66.4183 135.264 100.42 148.462 122.42 131.262C129.92 127.262 136.418 115.262 136.418 107.762C136.418 99.2598 132.418 102.262 130.918 91.7622M39.1224 111.764C41.6224 100.264 48.1225 99.2645 52.1225 100.764C56.1225 102.264 58.6224 110.264 61.1224 111.764C65.4948 114.388 69.1758 113.551 69.6225 111.764C70.0692 109.978 67.4231 106.395 65.0266 102.264M39.1224 111.764C32.9558 104.431 25.4183 90.2645 26.9176 72.2622M63.6225 86.7644C59.4727 91.1908 62.0581 97.148 65.0266 102.264M65.0266 102.264C67.7252 99.9311 73.2225 94.0644 73.6225 89.2644C74.1225 83.2644 74.6225 69.7644 72.6225 65.7644C70.6225 61.7644 75.6225 68.2644 81.6225 69.2644C87.6225 70.2644 105.918 65.7644 114.622 69.2644C120.931 71.801 129.418 81.2622 130.918 91.7622M130.918 91.7622C140.918 92.2622 137.43 94.6619 143.122 92.7645C149.122 90.7645 140.122 89.2645 138.122 86.7645C136.122 84.2645 139.622 74.7622 139.622 69.7645C139.622 59.6451 127.123 38.7035 118.418 35.2644M112.918 31.7622C103.213 24.7599 74.1225 25.2645 63.6225 29.7645C60.9733 30.8998 58.4318 32.6113 56.6225 33.8231M54.1224 35.2644C54.4638 35.2644 55.3668 34.6641 56.6225 33.8231M56.6225 33.8231C56.1225 31.4702 54.3225 27.1645 51.1225 28.7645C47.956 22.4312 31.5471 25.415 25.4183 29.7645C9.91829 40.7645 7.12211 48.7645 4.62227 63.7645M36.6227 47.6077C36.6227 47.6077 29.6227 57.7645 29.1227 60.7645M46.4176 58.2645C41.7125 62.2622 40.1127 76.0645 43.7125 75.2645M34.6224 74.7645C34.6224 80.2622 37.918 87.7622 36.6227 92.7645M77.6227 52.2645C77.456 53.4311 78.8227 56.0645 85.6227 57.2645C94.1227 58.7645 102.622 54.7645 110.622 54.7645C117.622 54.7645 125.622 64.7645 127.623 67.2645M69.6225 45.7645C79.6225 41.9311 102.023 35.9645 111.623 42.7645M16.6225 58.2645C14.9558 62.4311 13.6225 66.2645 14.6225 74.7645C15.6224 83.2645 22.6225 92.2645 21.1225 95.7645M4.62468 69.2644C4.62482 77.2644 -1.77997 78.1623 5.42003 87.7622M7.12232 92.7645C7.12232 97.7622 12.2224 103.162 8.62241 108.762C4.12241 115.762 2.62237 119.262 4.62237 124.262C6.62237 129.262 14.9174 140.262 12.4175 136.262C9.91756 132.262 16.9175 116.764 22.9175 115.764C28.9175 114.764 29.1227 132.762 34.6224 115.764" stroke="#714B50" stroke-width="4" stroke-linecap="round"/>
<path d="M90.9199 127.762C90.9199 132.18 86.7859 134.762 82.9199 134.762C79.0539 134.762 76.9199 132.18 76.9199 127.762C76.9199 123.344 80.0539 119.762 83.9199 119.762C87.7859 119.762 90.9199 123.344 90.9199 127.762Z" fill="#FFC0B8" fill-opacity="0.45"/>
<path d="M108.287 109.782C108.666 110.898 107.989 111.73 106.42 112.262C104.851 112.795 102.985 112.828 102.606 111.712C102.227 110.596 103.192 109.26 104.761 108.727C106.329 108.194 107.908 108.667 108.287 109.782Z" fill="#FFC0B8" fill-opacity="0.45"/>
<path d="M132.92 114.762C131.42 118.262 130.92 119.762 128.42 121.762C125.42 122.762 120.92 119.18 120.92 114.762C120.92 110.344 124.054 106.762 127.92 106.762C131.786 106.762 134.42 111.262 132.92 114.762Z" fill="#FFC0B8" fill-opacity="0.45"/>
<rect x="74" y="91.6409" width="7.44039" height="3.64968" rx="1.82484" transform="rotate(-20.789 74 91.6409)" fill="#714B50"/>
<rect x="116.151" y="85.9858" width="7.44039" height="3.64968" rx="1.82484" transform="rotate(2.47186 116.151 85.9858)" fill="#714B50"/>
<path d="M26.7842 108.064C26.8943 107.092 27.0489 106.562 27.1593 106.351C27.2985 106.086 26.9845 107.745 26.9059 108.67C26.8954 108.793 26.8731 108.858 26.8837 108.739C26.8943 108.62 26.9381 108.313 26.9606 108.1C26.9832 107.888 26.9832 107.778 27.0495 107.533" stroke="#F6DF8F" stroke-width="2" stroke-linecap="round"/>
<path d="M10.5317 116.688C10.8183 117.239 11.0398 117.769 11.0952 118.708C11.1201 119.129 11.6143 117.706 11.7251 117.518C11.9978 117.053 11.3065 118.873 11.0853 119.384C10.9304 119.694 10.5781 120.266 10.2245 120.918C10.0899 121.175 10.0461 121.285 10.001 121.398" stroke="#F6DF8F" stroke-width="2" stroke-linecap="round"/>
<path d="M28.2122 49.8188C33.4337 52.9236 44.1147 49.2473 44.9826 47.259C45.8505 45.2707 43.5309 35.2214 34.214 33.867C24.8972 32.5125 1.87542 30.312 5.65871 34.299C9.442 38.286 22.9907 46.714 28.2122 49.8188Z" fill="#3667B4" stroke="#714B50" stroke-width="4" stroke-linecap="round"/>
<path d="M38.2496 47.0743C32.8841 47.0708 25.0052 43.7829 25.1092 40.1199C28.8033 36.8491 37.5349 40.963 41.4389 43.4288C42.0676 45.1967 43.6151 47.0778 38.2496 47.0743Z" fill="#1A55B1" stroke="#3B71C4" stroke-width="3" stroke-linecap="round"/>
<path d="M37.6418 31.4866C37.7557 37.5604 46.5099 44.6992 48.657 44.3887C50.8042 44.0782 58.1213 36.8099 54.3613 28.1785C50.6012 19.5472 40.3361 -1.1765 38.9422 4.14012C37.5483 9.45674 37.528 25.4128 37.6418 31.4866Z" fill="#3667B4" stroke="#714B50" stroke-width="4" stroke-linecap="round"/>
<path d="M45.2649 38.5698C42.4396 34.0084 41.0807 25.5798 44.2483 23.7374C48.975 25.1526 50.0815 34.7411 50.0439 39.3584C48.873 40.8246 48.0901 43.1312 45.2649 38.5698Z" fill="#1A55B1" stroke="#3B71C4" stroke-width="3" stroke-linecap="round"/>
<path d="M100.18 124.944C103.68 126.444 106.917 125.385 109.048 122" stroke="#714B50" stroke-width="3" stroke-linecap="round"/>
<path d="M87.0977 106.931C83.6901 105.232 80.3979 106.103 78.0756 109.36" stroke="#714B50" stroke-width="3" stroke-linecap="round"/>
<path d="M125 100.5C122 99 118.833 99.1867 115.974 101.984" stroke="#714B50" stroke-width="3" stroke-linecap="round"/>
</svg>
