<svg width="148" height="144" viewBox="0 0 148 144" fill="none" xmlns="http://www.w3.org/2000/svg">
<path d="M74.6465 48.0203C75.6588 48.1328 76.4053 48.1345 79.6707 47.9087C82.7086 47.6986 88.5601 47.4579 92.2482 47.3693C95.9362 47.2807 97.286 47.3931 99.9779 47.7885C102.67 48.1839 106.663 48.8588 108.832 49.2065C111.227 49.5542 111.627 49.6666 111.911 49.9214C112.026 50.0637 112.082 50.2325 112.14 50.4063" stroke="#F6DF8F" stroke-width="4" stroke-linecap="round"/>
<path d="M64.0801 44.9528C64.53 44.7279 65.9428 44.4433 71.3599 44.3282C75.5952 44.2383 82.8509 44.6631 87.0664 44.8923C91.2819 45.1216 92.238 45.2903 93.8835 45.4334C97.8349 45.6891 100.604 45.9175 101.313 46.0879C101.629 46.1458 101.854 46.1458 102.256 46.4867" stroke="#F6DF8F" stroke-width="4" stroke-linecap="round"/>
<path d="M68 42.3965C68.3937 42.3965 68.7874 42.3965 72.7021 42.4246C76.6168 42.4527 84.0406 42.509 91.6894 42.5669" stroke="#F6DF8F" stroke-width="4" stroke-linecap="round"/>
<path d="M66.2969 47.1685C66.4094 47.1123 66.5218 47.056 72.0914 46.2959C77.6609 45.5358 88.6842 44.0735 94.7002 43.2359C100.716 42.3982 101.391 42.2295 101.879 42.1426C102.368 42.0557 102.649 42.0557 103.109 41.8853" stroke="#F6DF8F" stroke-width="4" stroke-linecap="round"/>
<path d="M93.2236 36.2612C93.9002 36.205 95.1529 36.1471 98.6995 37.1321C102.023 38.0552 108.433 39.8607 111.989 40.9003C116.072 42.0941 116.853 42.6216 117.617 43.2999C119.863 45.4046 120.887 46.313 121.484 46.7127C121.627 46.826 121.739 46.9947 122.026 47.1686" stroke="#F6DF8F" stroke-width="4" stroke-linecap="round"/>
<path d="M115.039 38.9878C115.434 39.2128 116.341 40.1194 117.393 41.0576C118.829 42.3396 120.382 42.3822 123.5 44.7622C124.865 45.8044 126.289 47.4734 125.5 48.2622C124.5 49.2622 127.48 50.7438 127.678 51.4264C128.104 52.3339 129.007 54.8205 129.383 56.2265C129.411 56.4259 129.467 56.6509 129.525 57.2235" stroke="#F6DF8F" stroke-width="4" stroke-linecap="round"/>
<path d="M106.176 47.509C105.049 47.509 102.77 47.3966 102.369 47.3378C101.737 47.2452 104.797 48.5265 107.351 49.3497C108.874 49.8406 110.82 50.5699 113.456 51.8737C117.136 53.9256 118.216 54.7778 118.895 55.3444C119.293 55.6299 119.8 55.9111 120.662 56.5417" stroke="#F6DF8F" stroke-width="4" stroke-linecap="round"/>
<path d="M106.857 43.2485C107.594 43.9848 108.5 44.6665 111.15 45.7666C113.337 46.6744 117.288 48.1602 120.244 49.5049C123.2 50.8496 125.056 51.9744 126.152 52.6663C127.53 53.5832 128.101 54.0962 128.612 54.5785C128.841 54.7796 129.01 54.8921 129.183 55.008" stroke="#F6DF8F" stroke-width="4" stroke-linecap="round"/>
<path d="M105.154 43.2485C105.829 43.586 106.571 44.0973 108.151 45.171C109.338 45.9072 111.307 47.032 113.867 48.2582C116.428 49.4845 119.521 50.778 123.049 52.4516" stroke="#F6DF8F" stroke-width="4" stroke-linecap="round"/>
<path d="M103.449 44.271C104.185 44.6681 107.004 45.1197 111.089 45.7435C113.84 46.1635 115.486 46.7115 116.677 47.1086C117.755 47.3932 118.67 47.6778 119.407 47.9616C119.751 48.0766 120.032 48.1329 120.321 48.1908" stroke="#F6DF8F" stroke-width="4" stroke-linecap="round"/>
<path d="M31.4317 107.178C31.3683 107.064 31.2666 106.886 31.19 106.702C31.0626 106.39 30.9862 106.109 30.9034 105.956C30.8841 105.918 30.8715 105.88 30.8203 105.803" stroke="#F6DF8F" stroke-width="2" stroke-linecap="round"/>
<path d="M35.7502 113.98C35.5225 113.841 35.1648 113.637 35.0247 113.497C34.9039 113.376 34.7192 113.318 34.5599 113.229C34.5193 113.206 34.4647 113.216 34.464 113.235C34.4564 113.422 34.9202 113.52 35.3285 113.763C35.5165 113.875 35.7112 113.891 35.8643 113.942C35.9405 113.967 36.0173 113.993 36.0873 114.031C36.2429 114.116 36.2974 114.323 36.3869 114.603C36.4919 114.932 36.273 115.151 36.209 115.362C36.1358 115.602 36.1201 115.814 36.0561 115.967C36.0051 116.12 35.9543 116.272 35.8652 116.425C35.8396 116.464 35.8144 116.502 35.7884 116.617" stroke="#F6DF8F" stroke-width="2" stroke-linecap="round"/>
<path d="M8.12361 119.768C8.12361 118.774 8.21383 116.763 8.35121 116.282C8.76218 114.845 7.07653 119.992 6.80314 120.858C6.55407 121.647 6.52975 122.225 6.34726 122.795C6.23984 123.131 6.16477 123.457 6.09642 123.73C5.93675 124.367 6.8004 125.186 7.52831 126.052C8.15766 126.801 8.75788 127.103 9.85008 127.375C11.7917 127.858 11.7679 129.56 12.4042 131.062M12.9531 124.082C12.9528 123.594 13.0884 123.461 13.2476 123.436M14.6829 123.09C14.4612 120.38 16.2338 121.911 16.257 121.818C16.3691 121.37 15.4204 123.856 14.2154 126.062C13.2486 127.833 12.4992 128.561 12.2716 128.539C11.5022 128.465 11.4973 126.293 11.0872 124.605C10.6956 122.993 10.4939 121.819 10.2896 121.682C9.60009 121.218 9.44683 123.546 9.30876 124.253C9.24643 124.573 8.99026 124.869 8.76335 125.165C8.65446 125.307 8.44622 125.326 8.26304 125.259C7.31061 124.91 6.98631 123.554 6.53043 122.664C6.18424 121.988 5.89274 121.32 5.61867 120.726C5.3319 120.105 5.0712 119.769 5.04797 119.654C5.00233 119.429 5.47856 120.853 5.88796 122.061C6.02805 122.474 6.20714 122.411 6.32197 122.298C7.11511 121.514 7.84749 119.91 9.52953 117.68C9.942 117.133 10.3545 117.08 10.6955 116.943C10.8507 116.881 10.9915 116.897 11.174 116.987C12.644 117.714 14.0425 119.628 14.6829 119.926C15.4568 120.286 15.8688 121.315 16.028 121.453C16.9604 122.261 16.0082 117.865 15.5072 116.808C15.4238 116.632 15.2345 116.58 15.1197 116.624C14.4447 116.881 14.4143 118.439 13.2538 120.378C12.7083 121.289 12.7713 118.001 12.9298 117.036C13.0372 116.382 13.318 114.904 13.2729 113.24C13.2596 112.746 13.1376 112.974 13.0911 113.158C12.9039 113.898 12.2272 114.707 11.8383 115.368C11.6775 115.641 11.5875 115.984 11.4508 116.077C10.6233 116.639 9.35319 112.327 12.1548 113.869C12.9198 114.29 10.8534 110.483 11.4508 109.336C11.7626 108.738 14.5483 109.79 14.5709 109.653C14.5951 109.505 14.685 110.331 14.7076 111.014C14.7167 111.292 14.7752 111.426 14.7985 111.068C14.9429 108.838 14.685 107.927 14.4355 106.808C14.2482 105.968 11.8356 105.417 11.5622 104.756C11.3413 104.222 11.1084 103.279 10.9464 102.546C10.8258 102 13.0911 101.363 12.9995 99.6118C12.9485 98.635 12.4541 97.9455 12.0891 97.3515C11.7447 96.7909 11.4508 96.2587 11.2457 95.7112C11.0273 95.1281 10.5869 94.5281 10.0394 93.8433C9.63593 93.3385 9.31013 92.8413 9.05861 92.1803C8.82985 91.5792 8.6704 90.974 8.35258 90.3575C8.04874 89.7681 8.30679 89.1505 8.2152 88.5354C8.07811 87.6146 7.76 87.1001 7.57752 86.5526C7.39003 85.9901 7.07653 85.4597 6.78058 84.7762C6.46195 84.0404 6.39305 83.2726 6.32402 82.7251C6.24726 82.1163 5.98296 81.4956 5.95904 80.9481C5.93415 80.3785 6.20988 79.8552 6.45935 79.3077C6.70186 78.7755 6.9371 78.2149 7.30207 77.6674C7.66705 77.1199 8.30132 76.3941 8.69227 75.7537C9.0167 75.2222 9.1707 74.6608 9.35319 74.1133C9.53568 73.5658 9.62726 72.84 9.99019 72.1996C10.2836 71.6818 10.6744 71.2434 11.0154 70.6057C11.5313 69.6412 11.6312 69.0563 11.9272 68.5088C12.0677 68.2487 12.178 67.9613 12.3598 67.9142C12.4829 67.8823 12.5416 68.3181 12.7009 70.7814C12.8601 73.2446 13.0857 77.8458 13.4951 82.1332C13.9045 86.4207 14.4909 90.255 14.793 92.3205C15.0951 94.3859 15.0951 94.5664 15.0951 94.5014C15.0951 94.1207 15.0049 93.3894 14.4396 91.624C14.0005 90.2525 13.1075 87.964 12.2826 86.0345C10.8002 82.5676 9.81044 80.8121 9.65119 80.2667C9.57178 79.9947 9.53705 79.7212 9.55892 79.6946C9.70373 79.5181 10.1248 81.3438 11.6415 85.3545C12.7105 88.1815 14.7369 92.4777 15.849 94.8664C16.961 97.2552 17.1865 97.5709 17.3253 97.8238C17.464 98.0767 17.5091 98.2571 17.0136 95.1924C16.5181 92.1277 15.4806 85.8124 14.901 82.4237C14.2738 78.7568 14.0029 78.2149 13.7527 77.5792C13.199 76.1723 13.0911 75.481 12.8635 74.82C12.8034 74.6455 12.6373 74.5241 12.5676 75.943C12.4979 77.3619 12.4979 80.3391 12.5204 82.0082C12.5535 84.4547 12.7248 85.4515 12.7036 88.5449C12.7004 89.0186 12.5006 88.7431 12.1828 86.867C11.865 84.9909 11.3688 81.5174 11.1131 79.6379C10.8334 77.581 10.8124 77.2566 10.7215 77.232C10.6059 77.2007 10.6306 77.7036 10.6525 79.4458C10.6744 81.188 10.7646 84.3005 10.9464 86.2874C11.3038 90.193 12.4049 91.1025 12.8608 91.9924C13.2338 92.7204 13.6352 93.4728 13.9776 94.0893C14.1519 94.4031 14.2284 94.7509 14.3877 94.8657C14.5751 95.0009 14.413 93.7571 13.8019 91.4456C13.3779 89.8413 12.5143 87.4199 12.1636 86.3004C11.813 85.1809 11.9484 85.4515 12.2436 87.1247C12.5389 88.7978 12.99 91.8653 13.3126 93.7838C13.6352 95.7023 12.409 97.874 12.9531 99.215C13.4971 100.556 14.3993 102.541 15.2249 104.623C16.0506 106.706 18.1789 107.331 18.6861 109.032C19.1932 110.733 19.4639 111.951 19.6259 112.421C19.7878 112.89 19.8329 112.575 19.5179 110.653C19.2028 108.731 18.5261 105.212 18.1776 103.242C17.829 101.271 17.829 100.956 17.8741 101.018C18.1839 101.45 18.1024 102.719 17.9219 105.324C17.7912 107.211 17.3806 110.229 17.1722 112.327M16.9391 120.428C17.0836 120.493 17.233 119.912 17.6192 118.012C18.0053 116.111 18.5918 112.728 18.939 111.075C19.2862 109.422 19.3764 109.603 19.4003 110.237C19.465 111.953 19.1071 114.378 18.7654 116.721M23 116.978C23.3466 116.857 24.2455 117.717 25.363 117.785C25.6753 117.804 25.4429 117.988 25.2365 118.125M26.5 117.762C28.2763 116.056 30.5376 123.87 31.2005 123.343C31.8984 122.788 30.3913 115.364 30.949 114.553C33.9194 110.237 31.6339 113.754 31.8615 113.662C31.9558 113.624 31.9988 113.931 31.9544 114.182C31.7552 115.31 30.5444 115.801 29.9969 116.235C29.4518 116.667 29.2677 117.304 28.8576 117.874C28.32 118.621 27.6724 118.764 27.5576 118.811C26.6203 119.19 29.3087 117.31 29.6976 116.649C30.0137 116.112 30.5827 115.352 31.2005 114.825C31.6672 114.427 31.9988 114.164 32.1355 114.095C33.049 113.629 30.7276 115.984 29.6586 116.87M26.0041 116.978C25.8297 116.968 27 116.262 27 116.262C26.9864 114.667 28.4366 115.309 29.4912 114.689C29.646 114.598 29.675 114.439 29.6983 114.302C29.7215 114.164 29.7215 114.029 29.6313 113.937C29.1678 113.463 28.0866 113.573 26.2877 111.937C25.5291 111.247 24.9864 110.251 24.3924 109.336C24.0827 108.859 23.6645 107.701 23.1184 106.11C22.348 103.864 21.8424 101.467 21.4295 100.109C21.3809 99.9487 21.3831 99.8127 21.5184 102.54C21.6537 105.267 21.9244 110.86 22.0864 113.832C22.2484 116.804 22.2935 116.984 22.3618 116.874C22.4302 116.764 22.5204 116.358 22.5894 113.646C22.6584 110.933 22.7036 105.926 22.5464 102.038C22.3892 98.1505 22.0283 95.5342 21.8424 94.051C21.6565 92.5679 21.6565 92.2972 21.679 92.248C21.7016 92.1988 21.7467 92.3792 23.1232 95.5622C24.4997 98.7451 27.2063 104.925 28.6006 108.176C29.9949 111.428 29.9949 111.563 29.9723 111.272C29.9498 110.981 29.9047 110.259 29.4529 108.15C29.0011 106.042 28.144 102.569 27.6123 100.531C26.6958 97.0195 25.8954 96.0755 25.6452 96.0276C25.0376 95.9114 25.3472 97.7978 25.2119 100.831C25.1087 103.144 24.8059 107.022 24.7567 109.562C24.7075 112.102 24.8879 113.184 25.1613 114.306C25.4347 115.427 25.7956 116.555 26.0041 116.978ZM26.0041 116.978C26.2125 117.401 26.2576 117.086 25.7847 114.622C25.3117 112.159 24.3193 107.558 23.7404 104.579C23.1615 101.599 23.0262 100.381 22.8437 99.0999C22.4741 96.5044 21.9777 94.6662 21.5683 93.5309C21.0792 92.1747 21.1097 89.9816 21.042 88.0665C21.022 87.501 20.839 87.7753 20.7693 89.471C20.6996 91.1668 20.6996 94.2793 20.7447 96.1308C20.8213 99.2757 21.2464 99.9904 21.2689 100.061C21.3032 100.168 21.3366 99.5448 21.1568 97.7794C20.9771 96.014 20.5711 92.9014 20.362 90.3732C20.1528 87.8451 20.1528 85.9956 20.1754 84.93C20.1979 83.8645 20.243 83.6389 20.3339 83.5227C20.4248 83.4066 20.5602 83.4066 20.675 83.4968C20.942 83.7066 21.0632 84.4044 21.651 86.7795C22.1284 88.7086 23.0508 92.0867 23.5155 93.8972C23.9803 95.7078 23.9803 95.8431 24.0028 96.003C24.0254 96.163 24.0705 96.3434 24.0712 94.8801C24.0719 93.4168 24.0268 90.3042 23.9359 88.2271C23.7524 84.0343 23.5251 83.4995 23.4342 83.1359C23.3884 82.9527 23.3433 82.7723 23.8163 84.7995C24.2892 86.8267 25.2816 91.067 25.8154 93.5671C26.3492 96.0673 26.3943 96.6988 26.2822 96.8663C25.5163 98.0105 24.3029 94.4379 23.305 92.9875C22.6333 92.0113 21.7658 90.4546 20.8951 88.6721C20.0243 86.8896 19.2123 84.9047 18.749 83.6793C18.2856 82.4538 18.1953 82.0478 18.1489 81.771C18.0802 81.362 18.1024 82.3923 18.3505 85.4324C18.5037 87.3098 19.0948 89.8258 19.373 91.1948C19.6511 92.5638 19.6963 92.6991 19.7195 92.9718C19.7427 93.2445 19.7427 93.6505 19.8794 94.3422" stroke="#F6DF8F" stroke-width="4" stroke-linecap="round"/>
<path d="M17.0101 82.86C17.0101 82.9051 17.0101 82.9502 17.0552 81.6201C17.1003 80.2901 17.1906 77.5835 17.2821 75.896C17.4632 72.5604 17.602 71.4254 17.6704 70.9709C17.738 70.5208 17.6034 72.1335 17.3539 75.6349C17.1354 78.7017 16.7367 80.532 16.7367 81.0344C16.7367 81.1636 17.0976 79.094 17.7346 76.0252C18.681 71.4659 18.6505 70.5587 18.7181 70.489C19.7267 69.4499 19.3339 75.4128 19.1754 77.0928C19.1361 77.509 18.7885 77.846 18.5835 78.0066C18.3827 78.1639 18.5589 77.168 19.146 75.0649C19.6366 73.3075 20.7255 70.2102 21.3953 68.3135C22.6126 64.8666 23.3432 64.2707 23.4116 64.1334C23.4718 64.0122 23.3446 64.7218 22.5087 66.5536C21.8073 68.0905 20.3646 70.7761 19.2383 72.6891C18.1119 74.6022 17.2999 75.6397 16.7914 76.2644C16.2829 76.8891 16.1025 77.0695 16.3253 75.2228C16.5481 73.376 17.1796 69.4966 17.505 67.3853C17.8303 65.2741 17.8303 65.0485 17.8303 65.3383C17.8303 66.4401 17.695 67.9984 17.3771 69.4529C17.0547 70.9286 16.1954 72.8689 15.3301 74.8722C14.9933 75.652 14.9159 75.9732 14.8469 75.9104C14.4577 75.5558 14.7314 74.3452 15.1381 72.1711C15.4375 70.5705 16.1763 68.0121 16.5474 66.8905C16.8075 66.1046 16.3335 68.7585 15.1053 72.4902C14.5861 74.0678 14.1477 74.959 13.9386 75.3561C13.7824 75.6525 14.1805 74.1251 15.3828 71.2627C16.0355 69.7085 17.1714 68.1297 17.9314 67.0224C20.0699 63.9071 22.1116 62.7657 22.4075 62.8334C22.538 62.8632 22.5682 63.0364 22.6591 65.4292C22.75 67.8221 22.8853 72.4684 22.8873 75.9896C22.8894 79.5109 22.7541 81.7664 22.6843 82.6802C22.6146 83.594 22.6146 83.0978 23.0657 80.2709C23.5168 77.4441 24.419 72.3016 24.8838 69.4043C25.3485 66.5071 25.3485 66.0109 25.326 66.2289C25.3034 66.4469 25.2583 67.3942 24.987 68.8972C24.7156 70.4002 24.2194 72.4301 23.4225 74.6261C22.6256 76.8221 21.5429 79.1227 20.5792 80.8492C19.6155 82.5756 18.8036 83.6583 18.4078 83.7198C18.0121 83.7813 18.0572 82.7889 18.2834 81.1273C18.5097 79.4658 18.9157 77.1652 19.5082 74.6945C20.1008 72.2237 20.8677 69.6524 21.3529 68.1474C21.8382 66.6424 22.0186 66.2815 22.1341 66.1858C22.2497 66.0902 22.2948 66.2706 22.318 67.5138C22.3412 68.7571 22.3412 71.0577 22.2285 73.0999C22.1157 75.1421 21.8901 76.8563 21.6837 78.01C21.2969 79.705 21.0208 80.6687 20.8841 81.3741C20.8376 81.6734 20.8376 81.8539 20.8376 82.0398" stroke="#F6DF8F" stroke-width="4" stroke-linecap="round"/>
<path d="M14.1383 63.7225C14.0932 63.7225 14.0481 63.7225 13.9572 63.6549C13.7134 63.4734 13.5915 62.5005 13.9975 60.0072C14.2755 58.3 15.2155 55.7997 15.6338 54.4081C16.0521 53.0166 16.0521 52.8361 16.0746 52.8785C16.0972 52.9209 16.1423 53.1915 16.0076 55.7443C15.873 58.2971 15.5572 63.1238 15.372 65.272C15.1868 67.4202 15.1417 66.7435 14.8929 65.2672C14.2619 61.5231 13.6831 59.0763 13.6148 58.781C13.5783 58.6236 13.5915 58.4406 13.569 58.4153C13.483 58.3189 13.0038 61.1007 12.3203 64.8592C12.08 66.1803 12.0879 66.317 12.1781 66.4544C12.2683 66.5918 12.4488 66.7271 12.6094 66.8419C12.77 66.9568 12.9053 67.047 12.9751 66.6424C13.4621 63.8154 12.364 61.7705 11.9977 60.3783C11.9208 60.086 11.9512 59.8541 12.0414 59.8506C12.9134 59.8176 12.9518 61.8908 13.2033 62.7636C13.2907 63.0667 13.5902 63.3562 13.8629 63.6747C13.9896 63.8226 14.1356 63.903 14.2955 63.7465C14.4555 63.5899 14.6359 63.184 14.977 62.1628C15.318 61.1417 15.8142 59.5178 16.363 56.5611C16.9119 53.6043 17.4983 49.3641 17.7778 46.2324C18.0574 43.1007 18.0123 41.2061 17.9439 39.9594M12.5328 46.1483C11.9061 49.0893 11.861 49.7659 11.8603 50.0469C11.8596 50.3278 11.9047 50.1924 12.0858 48.7469C12.267 47.3013 16.8599 47.1494 17 44.7621M10.9021 51.2238C11.1771 53.8647 11.9485 55.1053 12.269 55.7026C12.4516 56.0429 12.7249 54.4341 12.839 52.3262C12.9164 50.8969 12.8179 48.7298 12.5465 46.6219M10.5097 49.4953C10.8563 51.2805 10.9916 51.5512 11.0388 51.5778C11.0859 51.6045 11.0408 51.3789 10.5665 49.932M9.26172 51.5307C9.36075 51.7777 9.48795 52.1417 9.62533 52.3727C9.76271 52.6037 9.89804 52.694 9.96775 52.0863M10.127 50.5055C10.5715 51.3975 10.7647 52.8225 11.198 54.0138C11.5812 55.0674 11.9949 56.2016 12.6094 57.2254C12.8794 57.6753 13.2252 58.1604 13.3407 58.4133C13.9304 59.7043 12.1371 56.0293 11.5657 55.1135C11.1164 54.3933 10.7674 53.7465 10.2904 53.3125C10.145 53.1803 9.94998 53.063 9.92469 53.1061C9.50641 53.8183 10.4913 54.7881 10.8105 55.6534C11.3475 57.1093 11.9047 57.6587 12.3141 58.4796C12.4692 58.7906 12.5431 59.0735 12.5212 59.0305C11.8526 57.7141 11.9977 56.8003 11.9054 56.2966C11.7765 55.5926 13.8567 58.9683 14.7275 61.3878C15.5605 63.7023 15.9154 65.9479 15.8928 67.1317C15.8713 68.2585 15.1881 69.0509 14.9366 69.5984C14.8726 69.7378 14.7781 69.8711 14.6639 69.9183C14.4334 70.0135 14.1397 69.8287 13.9572 69.6702C13.3289 69.1242 15.4096 68.0995 17.2208 67.306C18.5555 66.7213 20.8364 66.0163 22.2013 65.6212C23.5662 65.2262 23.9722 65.2262 24.1137 65.0909C24.728 64.5033 23.6168 63.7253 23.0939 63.0644C22.885 62.8003 22.7515 62.4485 22.4788 62.1977C22.3652 62.0932 22.2061 62.1724 22.0462 62.3084C21.199 63.0289 20.4755 64.1272 18.3615 66.289C17.402 67.2702 16.8736 67.4584 16.6009 67.5268C16.4657 67.5607 16.3282 67.55 16.2585 67.4372C15.7201 66.5663 17.0499 64.9583 17.8715 63.7499C18.6432 62.6147 19.3765 62.4021 19.7176 62.2879C19.8715 62.2364 20.0135 62.3091 20.0832 62.5128C20.5208 63.7913 19.3341 64.8599 19.1065 65.043C19.0346 65.1009 18.9691 64.8653 19.0136 64.6596C19.2419 63.6024 20.4673 62.454 21.3347 61.6058C21.5901 61.356 21.9286 61.3987 22.1562 61.4664C22.3911 61.5362 22.3401 62.2599 22.3401 62.8532C22.3401 63.4849 22.0229 60.8574 21.2752 58.0469C20.7878 56.2148 19.628 52.9892 19.0477 51.2033C18.3968 49.1999 18.3308 48.8241 18.1948 48.6642C18.0422 48.4847 17.6938 49.9505 17.4662 52.9448C17.3245 54.8083 17.3288 57.3826 17.3732 58.7523C17.4177 60.122 17.553 60.2122 17.6904 60.1459C18.4469 59.7808 18.3294 58.8494 18.3308 55.8687C18.332 53.1122 17.9713 47.8358 17.7642 44.7109C17.5571 41.5861 17.4218 40.7741 17.3295 39.9724M14.7425 40.3401C13.0386 44.4527 12.5445 45.5366 12.5205 46.5864C12.5153 46.8171 12.5882 46.9965 12.7017 47.0443C12.8151 47.0922 12.9956 47.002 13.1787 46.775C13.6129 46.2372 14.2244 44.4622 15.292 40.9682M17.8066 44.0794C17.7403 47.3792 17.5147 50.4467 17.376 51.9592C17.2372 53.4718 17.1921 53.3364 16.8982 51.7104C16.6043 50.0844 16.063 46.9719 15.6263 44.8722C15.1895 42.7726 14.8738 41.7802 14.5758 40.6374M43.48 27.3581C44.1259 28.1749 45.2502 30.3525 46.1914 32.3004C46.4115 32.7559 46.3985 33.1465 46.3308 33.3748C46.1707 33.915 45.4443 32.1951 44.4656 29.6498C44.0252 28.5046 43.8477 27.7744 43.7561 27M37.2939 29.3327C35.678 31.0829 34.9652 33.0522 34.2606 34.0747C33.5485 35.108 33.0953 36.106 32.8219 36.7888C32.7133 37.0598 32.7289 37.2009 32.8868 36.8646C33.4147 35.7403 33.776 34.3836 33.9578 32.5266M30.2007 30.2868C29.0652 32.3027 27.3951 34.8552 26.1675 36.9829C23.9733 40.786 23.6619 41.8499 23.5936 41.9873C23.5333 42.1084 23.6605 41.3086 24.3611 38.9342C24.9443 36.9576 26.0992 33.4472 26.7929 31.3866M24.6803 37.503C23.625 40.1016 22.7228 41.906 22.258 42.9708C21.7933 44.0357 21.7933 44.3063 21.8835 44.0849C21.9737 43.8634 22.1541 43.1417 22.2697 41.3038C22.3852 39.4659 22.4303 36.5338 22.3858 34.4595M19.1769 37.0991C18.9254 40.2916 18.6547 45.84 18.6055 48.563C18.5563 51.286 18.7368 51.0153 18.9425 50.6278C19.1482 50.2403 19.3738 49.7441 20.3245 48.3156C21.2752 46.8871 22.9442 44.5414 24.7288 42.3632C26.5134 40.185 28.3629 38.2453 29.7667 36.8851C31.1706 35.525 32.0728 34.8033 33.6653 33.7774C35.2578 32.7515 37.5132 31.4433 38.9233 30.6792C41.5756 29.2418 43.5169 29.412 44.5503 29.2309C45.0692 29.1399 45.4402 28.8201 45.7129 28.7518C46.9113 28.4514 41.1165 30.7297 40.0237 31.4597C39.5089 31.8035 39.155 32.0994 39.0852 32.1459C37.6661 33.092 43.1998 29.7373 44.186 29.1174C44.3529 29.0126 44.482 28.8679 44.5066 28.8884C45.0046 29.3034 42.7624 30.0463 39.4659 30.9566C38.2502 31.2924 36.6794 31.8616 33.588 33.6742C30.4967 35.4867 25.9406 38.5542 23.3455 40.4727C20.0998 42.8721 19.5624 44.0808 19.1086 45.281C18.2552 47.5378 18.1025 49.5472 18.0574 50.4111C18.0164 51.1955 17.8291 51.7822 17.8291 52.0337C17.8291 52.1882 18.3704 49.7085 19.6868 45.6412C20.371 43.527 21.4543 41.4385 22.597 39.3764C23.7398 37.3144 25.0029 35.3746 25.6761 34.4656C26.3493 33.5566 26.3944 33.737 26.1921 35.2058C25.9898 36.6746 25.5387 39.4263 24.8553 42.0618C24.1718 44.6973 23.2696 47.1332 22.4439 49.1324C20.2584 54.4242 20.1078 54.9727 20.0846 54.9747C19.5359 55.0231 20.7858 52.2128 21.6053 48.9376C22.235 46.4208 22.2034 43.0132 22.2485 43.6105C22.4633 46.4556 22.3838 54.4929 22.5205 57.4339C22.6572 60.3749 22.8376 57.9841 23.2915 55.4668C23.7453 52.9496 24.467 50.3783 25.2448 48.1516C26.0226 45.9248 26.8346 44.1204 27.4108 42.9428C28.2443 41.2391 29.034 40.2615 29.9649 39.2841C30.9894 38.2085 32.0427 37.6165 32.7686 37.0259C34.964 35.2398 36.8708 34.0186 37.9186 33.2654C39.4423 32.1701 40.2417 31.5116 41.5184 30.8042C41.9943 30.5405 42.2962 30.2786 42.2983 30.3675C42.3034 30.5907 41.759 30.9977 39.971 32.5608C38.1831 34.1239 35.0254 36.7853 33.2183 38.3819C30.9834 40.3565 30.5431 41.0297 30.3155 41.0318C29.7591 41.0368 30.1317 39.7134 30.4475 38.2869C30.6877 37.2019 31.3948 35.4621 32.0584 33.9243C33.2887 31.0734 34.1861 29.4161 34.3002 28.9137C34.3222 28.8169 34.279 29.0429 33.7596 30.2868C33.2401 31.5308 32.2477 33.7862 31.4433 35.4218C30.1486 38.0542 29.3129 39.0709 29.2206 39.0272C28.7119 38.786 30.7591 36.9425 32.9627 34.5784C35.1897 32.189 37.2344 31.0551 38.1673 30.5548C39.8314 29.6624 41.4747 28.5016 42.3851 28.5228C43.2526 28.543 43.7985 29.0921 44.4587 29.2521C45.5912 29.5264 46.3944 29.0019 47.032 29.0696C47.2721 29.095 47.3088 29.2726 47.2644 29.3874C47.0133 30.0366 45.9911 30.4563 44.4 31.6401C43.4359 32.3574 42.8471 32.8731 42.2094 33.2374C41.0574 33.8955 40.66 34.467 40.1125 34.765C39.5457 35.0735 38.9294 35.4703 38.3355 36.0622C38.1975 36.1997 38.0628 36.2905 37.9705 36.2468C37.7329 36.1341 37.9671 33.9872 38.2856 30.9594M36.5899 27.5673C35.7048 29.427 34.3064 32.4494 32.8642 35.1115C31.4221 37.7737 29.9786 39.984 29.0094 41.3933C28.0403 42.8027 27.5892 43.344 27.3342 43.4875C27.0793 43.6311 27.0342 43.3604 27.0109 42.9278C26.8752 40.4011 27.5345 38.3901 27.557 38.2295C27.5924 37.9775 27.6712 39.835 27.5358 42.2204C27.2977 46.418 26.6241 46.9965 26.1696 47.9534C25.9583 48.3982 25.6672 48.6847 25.508 48.7544C25.4207 48.7926 25.3938 48.4181 25.4608 48.1659C25.7878 46.9349 26.892 45.5038 27.8954 44.2024C28.3234 43.6472 29.7995 41.8212 31.962 39.3621C33.7798 37.295 35.5503 36.9767 36.2577 36.8851C36.9669 36.7933 37.4203 35.9761 38.1263 35.201C38.2061 35.1134 38.0628 35.1969 36.933 36.2809C35.8032 37.3649 33.683 39.44 31.3052 42.4261C28.9274 45.4122 26.3562 49.2465 24.5579 52.575C22.7597 55.9036 21.8124 58.6101 21.3019 60.5683C20.7913 62.5265 20.7462 63.6542 20.7906 63.987C20.835 64.3199 20.9704 63.8237 21.7167 61.8314C22.4631 59.839 23.8164 56.3656 24.5361 54.4184C25.595 51.5533 25.9379 50.2416 26.4389 49.0093C26.5548 48.7242 26.7116 48.5083 26.849 48.4373C27.0918 48.3116 27.3513 50.3988 27.4203 53.7875C27.5042 57.9017 26.9877 58.7509 26.9877 59.39C26.9877 59.4727 27.123 58.8042 27.5311 57.8303C28.2856 56.0292 29.0791 53.8449 29.7852 52.2511C30.1244 51.4853 30.1317 51.1479 30.1542 51.1008C30.6053 50.1578 29.995 54.2304 30.1536 55.4046C30.1768 55.577 30.3121 55.745 30.3812 55.7026C31.7765 54.8461 30.4516 51.6961 30.3825 51.1486C30.3126 50.5938 30.2233 50.1911 30.1775 50.0537C30.0173 49.5732 30.7687 51.2341 31.4501 52.871C32.041 54.2905 32.4993 54.9248 32.8417 55.4518C33.7594 56.8642 31.228 50.9689 30.93 50.0564C30.5745 48.9679 30.3149 47.8686 30.2007 47.2986C30.1666 47.1283 29.9977 46.9582 29.8604 46.8202C29.6095 46.5681 30.0346 48.7093 30.9683 52.1711C31.5649 54.3833 31.772 56.2863 31.3647 57.4981C30.6653 59.5786 29.4961 60.2559 28.3198 61.7049C27.4091 62.8267 25.7 64.5974 24.2989 66.0231C21.8692 68.4955 20.4742 69.7344 20.2903 70.0092C20.267 70.044 20.6478 69.7426 21.9156 68.1822C23.1835 66.6219 25.3938 63.78 26.6227 62.2257C28.3326 60.0631 28.8085 59.1706 29.0149 58.4167C29.0577 58.2602 29.0381 58.1208 28.9705 58.1638C28.6864 58.3446 28.2672 59.2061 27.3821 61.154C26.7611 62.5207 26.1812 64.8161 25.7424 66.6772C24.981 69.9065 24.9373 71.6481 25.0049 71.968C25.0222 72.0499 25.2079 71.8368 25.5934 70.5484C25.9789 69.2601 26.6104 66.8693 27.0485 65.3444C27.6597 63.2174 28.0348 62.4937 28.194 62.4465C28.5965 62.3273 28.3547 63.9426 28.1968 67.969C28.0689 71.2298 27.7231 76.9574 27.7409 79.232C27.7587 81.5066 28.1195 80.1533 28.531 77.2458C28.9424 74.3383 29.3935 69.9176 29.6485 66.7606C29.9034 63.6036 29.9485 61.8443 29.9943 61.0057C30.0401 60.1671 30.0852 60.3024 30.1761 62.0637C30.267 63.8251 30.4024 67.2083 30.3818 71.5675C30.3613 75.9267 30.1809 81.1594 30.1556 83.7423C30.1303 86.3251 30.2657 86.0996 30.9669 82.5776C31.6682 79.0557 32.9312 72.2441 33.6721 73.0657C34.413 73.8872 34.5934 82.5482 34.7315 87.2806C34.8696 92.013 34.9598 92.5544 35.0514 92.946C35.1429 93.3376 35.2332 93.5632 35.2796 93.138C35.3261 92.7129 35.3261 91.6303 35.1682 89.9899C35.0104 88.3496 34.6946 86.1843 34.3289 84.4148C33.6868 81.3075 32.8232 79.3578 32.1644 78.1528C31.55 77.0293 30.863 76.3915 30.4987 76.2083C29.9709 75.9429 30.3135 77.4796 31.0585 80.1465C31.7069 82.4676 33.1117 86.6928 33.899 89.0577C34.8127 91.802 35.0978 92.3808 35.2339 92.8353C35.3794 93.3217 36.0506 95.3265 36.7566 98.1507C37.1483 99.7172 37.2399 100.444 37.3533 101.67C37.5531 103.828 37.4217 105.413 37.5351 105.686C37.5941 105.828 37.6937 105.959 37.7176 105.938C38.3484 105.398 36.8325 103.96 35.0384 100.67C34.3977 99.4951 33.8799 98.0167 33.3071 96.2581C32.7344 94.4995 32.1931 92.4696 31.8916 91.2434C31.1703 88.3088 31.4084 85.6895 31.3394 84.7771C31.2689 83.8447 30.8616 82.9556 30.3846 81.7493C30.215 81.3203 30.0442 80.7302 29.8836 80.4732C29.723 80.2162 29.5876 80.3064 29.4954 80.4206C28.848 81.2214 29.6287 83.3547 30.1276 86.0709C30.5086 88.145 30.8972 91.674 31.2198 93.8024C31.6402 96.5761 31.999 97.3483 32.2259 97.7563C33.165 99.4451 33.9127 101.038 34.2312 101.585C34.6823 102.361 35.0527 103.361 35.4157 104.022C35.7401 104.613 35.9631 105.275 36.2816 105.823C36.5897 106.352 36.6466 106.916 37.1011 107.304C37.3257 107.497 37.6035 107.6 37.7402 107.873C37.8052 108.003 37.7866 108.146 37.7415 108.013C37.3804 106.945 37.2863 106.194 36.9002 104.807C36.7302 104.197 36.5154 103.247 36.2639 102.375C36.0123 101.504 35.7417 100.737 35.309 98.0864C34.8764 95.4359 34.29 90.9249 33.9879 84.9472C33.6858 78.9696 33.6858 71.6618 33.8437 73.1976C34.0015 74.7334 34.3173 85.3341 34.0514 86.8705C33.7856 88.407 32.9285 80.558 32.487 76.3792C32.0454 72.2004 32.0454 71.9297 32.0003 71.9482C31.9552 71.9666 31.865 72.2824 31.2546 75.3772C30.6443 78.472 29.5166 84.3362 28.9356 87.4474C28.3547 90.5586 28.3547 90.739 28.3772 90.5162C28.3998 90.2934 28.4449 89.6619 29.2124 87.0134C29.98 84.3649 31.4686 79.7186 33.07 75.7237C34.6714 71.7288 36.3404 68.526 38.4858 65.2522C40.6313 61.9783 43.2025 58.7304 44.5271 56.9896C45.8517 55.2488 45.8517 55.1135 45.6261 55.4046C45.4006 55.6958 44.9495 56.4175 43.0029 58.7742C41.0564 61.1308 37.6281 65.1004 35.5011 67.3709C32.8076 70.2462 31.6832 70.6024 31.2963 70.558C30.8958 70.512 30.997 68.973 31.5164 66.0928C31.8541 64.2203 32.8929 61.6338 33.5381 59.9703C34.4443 57.6339 35.5025 56.3929 36.4135 55.5714C36.6929 55.3195 36.7833 55.652 36.6261 56.8967C36.4689 58.1413 36.108 60.3516 35.5387 62.5729C34.9693 64.7942 34.2025 66.9595 33.7623 67.9847C33.3222 69.0099 33.2319 68.8295 33.208 68.4433C33.1479 67.4724 33.5012 66.1448 34.6549 63.7656C35.4838 62.0563 37.2071 59.5369 38.6075 57.6485C40.9518 54.4873 42.5682 53.1095 42.9783 52.653C43.0913 52.5271 43.1178 52.7377 43.0501 52.9209C42.9058 53.3115 42.5272 53.6508 41.2614 55.0068C40.1696 56.1765 38.1913 58.3477 37.0786 59.5308C35.9659 60.7139 35.7854 60.8492 36.0985 60.4678C36.4115 60.0864 37.2235 59.1843 39.0852 57.6143C40.947 56.0444 43.834 53.834 45.8175 52.4472C47.8009 51.0604 48.7934 50.5642 48.2671 51.1657C47.7408 51.7672 45.6658 53.4813 43.4916 54.9959C41.3175 56.5105 39.1071 57.7736 37.9008 58.4242C36.6944 59.0749 36.5591 59.0749 36.4217 58.9396C36.0733 58.5964 36.0096 58.0743 36.0322 57.643C36.062 57.0732 36.3267 56.4353 36.8482 55.6411C38.601 52.9718 40.8814 51.7863 41.4979 51.5348C41.659 51.4691 41.8383 51.3762 41.8636 51.42C42.1937 51.991 40.1651 52.9154 38.5904 54.1716C37.4593 55.074 36.6944 55.7026 36.4894 55.7033C36.4067 55.7036 36.4197 55.5236 36.5325 55.3636C36.6452 55.2037 36.8708 55.0233 37.7313 54.5469C38.5918 54.0705 40.0804 53.3036 42.6967 52.1417C45.3131 50.9798 49.0121 49.4461 51.1657 48.4755C53.8694 47.2571 54.4621 46.7272 54.5995 46.6589C54.7206 46.5986 54.1012 46.7709 51.9777 47.585C50.0955 48.3065 46.516 49.4816 43.9359 50.109C41.3558 50.7365 39.8671 50.7365 39.2356 50.6237C38.6041 50.5109 38.8747 50.2854 39.1269 50.1241C39.5818 49.8332 40.0626 49.7345 40.472 49.6662C40.6548 49.6356 40.7912 49.6429 40.8835 49.7782C40.9757 49.9136 41.0209 50.1842 40.999 50.4364C40.8664 51.9649 38.3444 54.0992 36.5844 55.1538C36.3008 55.3237 36.149 55.3376 36.0117 55.3609C35.8743 55.3841 35.7389 55.3841 35.7369 55.2262C35.7231 54.1653 37.5023 52.8881 39.1939 51.5833C40.2556 50.7644 41.2423 49.7386 42.7446 48.7141C43.4734 48.217 44.8675 47.6062 46.9179 46.8516C48.9683 46.097 51.6749 45.2851 53.2045 44.7766C54.7341 44.2681 55.0048 44.0876 55.1217 44.0849C55.2385 44.0821 55.1934 44.2626 55.0574 44.4683C54.9214 44.674 54.6959 44.8996 53.3843 45.7375C52.0727 46.5755 49.6819 48.019 47.3676 49.2362C45.0534 50.4535 42.8881 51.4008 41.6148 51.9339C40.3415 52.467 40.0257 52.5573 39.8405 52.5135C39.6553 52.4698 39.6102 52.2893 39.5869 52.0836C39.4666 51.0186 40.1979 49.4679 41.1316 48.1215C41.39 47.7488 41.7891 47.4175 42.8546 46.7354C43.9202 46.0533 45.6794 45.0609 47.5105 44.2113C49.3415 43.3618 51.191 42.6851 52.4595 42.2463C55.2164 41.2927 56.1448 41.0776 56.8304 40.8951C57.5917 40.6924 58.1515 40.6675 58.7215 40.5985C59.5651 40.4963 60.6558 40.3941 61.3413 40.3251C61.7494 40.2574 62.1622 40.1658 62.5032 40.0749C62.6638 40.0291 62.7992 39.984 63.0753 40.0742" stroke="#F6DF8F" stroke-width="4" stroke-linecap="round"/>
<path d="M38.0055 70.6873C38.0055 71.2497 38.0055 71.8206 38.3429 74.5807C38.6465 77.0639 39.3553 81.7275 39.7029 85.6508C40.0506 89.574 40.0506 92.611 40.0506 94.0631C40.0506 95.5151 40.0506 95.2901 40.1068 94.8087C40.1631 94.3272 40.2756 93.5961 40.3616 91.4478C40.4477 89.2996 40.5039 85.7564 39.9424 80.2193C39.3808 74.6821 38.1998 67.2583 37.7038 68.6081C37.2079 69.9579 37.4328 80.3062 37.6331 86.0871C37.8333 91.868 38.0021 92.7678 38.1171 93.3157C38.2321 93.8637 38.2884 94.0324 38.5704 93.107C38.8525 92.1815 39.3587 90.1569 39.9287 85.1207C40.4988 80.0846 41.1175 72.0984 41.4643 68.0687C41.8111 64.0389 41.8674 64.2076 42.0369 67.2472C42.2065 70.2868 42.4877 76.1921 42.2108 82.6087C41.9338 89.0252 41.0902 95.7741 40.6556 99.1103C40.221 102.446 40.221 102.165 40.3898 101.683C40.5585 101.201 40.8959 100.526 41.2666 99.5312C41.6373 98.5368 42.031 97.2432 44.0897 92.415C46.1485 87.5868 49.0074 77.0001 51.0602 72.2622C53.486 66.6634 54.5369 67.4543 54.4244 67.8403C54.1728 68.7036 54.087 71.0384 53.6055 73.8572C53.1241 76.6761 52.3929 79.9381 51.0602 83.9525C49.7274 87.9669 47.8153 92.6349 46.8021 95.1521C45.7889 97.6693 45.7326 97.8942 45.6474 97.8695C45.2976 97.7681 45.2776 96.8802 45.2205 95.9463C45.1463 94.7321 45.84 91.9549 46.7757 88.352C47.1731 86.8215 47.5426 85.9303 48.6444 83.7514C49.7462 81.5725 51.6021 78.1418 52.4458 76.5432C53.2894 74.9445 53.0644 75.282 52.8079 75.7933C52.2239 76.9574 51.2494 78.7434 48.6512 82.7808C46.7533 85.73 43.8034 90.5863 42.1273 93.3873C40.104 96.7683 39.6552 97.7255 39.2862 98.2641C39.1196 98.5074 39.086 98.7464 39.0289 97.8499C38.9718 96.9535 38.9156 94.9288 39.3928 90.8488C39.8699 86.7688 40.8823 80.6948 42.4161 75.2036C43.95 69.7124 45.9746 64.9882 47.2426 62.1608C48.8803 58.509 49.7053 57.3974 50.1314 57.2235C50.3337 57.141 50.2762 58.062 49.1514 62.7121C48.0266 67.3622 45.7769 75.9671 44.5337 80.6249C43.2904 85.2827 43.1217 85.7326 44.1315 81.0714C45.1413 76.4102 47.3347 66.6243 48.4927 61.7237C49.6508 56.823 49.707 57.1042 49.7078 58.9926C49.7087 60.8809 49.6525 64.3678 49.3423 67.9639C49.0321 71.5599 48.4697 75.1593 47.8144 78.2227C47.1591 81.2861 46.428 83.7045 46.0513 84.5004C45.6747 85.2963 45.6747 84.3964 46.2652 81.4583C46.8558 78.5201 48.0368 73.5709 49.6013 68.7154C51.1659 63.86 53.078 59.2482 54.0631 56.9568C55.0482 54.6654 55.0482 54.8342 54.8232 55.7084C54.5983 56.5827 54.1483 58.1575 53.1573 60.7965C52.1663 63.4356 50.6478 67.0913 49.6968 69.1432C48.7458 71.1952 48.4083 71.5326 48.2064 71.6221C48.0044 71.7115 47.9482 71.5428 47.9473 71.0903C47.9451 69.9054 48.4544 67.9161 49.8945 64.4105C50.8437 62.0997 52.6281 58.8801 54.3409 56.1873C56.0537 53.4946 57.7409 51.4699 58.7226 50.2301C59.7042 48.9902 59.9292 48.5965 60.0732 48.5062C60.2776 48.378 59.769 50.2224 58.6075 52.7456C58.0567 53.9423 57.3898 54.8751 55.6932 56.8861C53.9966 58.8971 51.2408 61.9341 49.54 63.7518C47.8391 65.5694 47.2767 66.0755 47.0151 65.8864C46.1171 65.237 47.2051 62.8579 48.0257 60.6491C48.992 58.0485 50.4398 55.5874 51.7998 53.4332C54.6424 48.9307 57.7767 46.9962 57.4086 47.4487C56.9041 48.0688 55.5151 50.3315 52.6281 54.0706C51.072 56.086 48.9537 58.0348 47.3483 59.4434C44.7408 61.7311 43.0655 62.5051 42.4971 62.5076C41.8144 62.5107 42.8865 60.4139 43.99 58.46C44.5999 57.38 45.4872 56.2248 46.9623 54.6041C48.4373 52.9833 50.5182 50.9586 53.1368 48.7346C55.7555 46.5105 58.8487 44.1484 61.0046 42.6222C64.2038 40.3575 66.2316 39.5588 67.6214 39.1327C68.2139 38.9511 68.6176 38.9879 68.8766 39.1285C69.1357 39.2691 69.2482 39.5503 69.1093 39.8076C68.9704 40.065 68.5767 40.2899 67.1647 40.7433C65.7527 41.1966 63.3343 41.8715 60.9918 42.7253C58.6493 43.5792 56.4559 44.5915 55.3822 44.9443C54.3085 45.2971 54.421 44.9596 54.9851 44.3077C56.4586 42.6049 58.5607 41.096 61.2185 39.7369C62.8708 38.8919 65.3386 38.1528 68.5247 37.4651C71.7108 36.7774 75.5915 36.2712 78.153 36.0105C80.7145 35.7497 81.8393 35.7497 82.4469 35.8341C83.0545 35.9185 83.1107 36.0872 82.9991 36.3147C82.8874 36.5422 82.6062 36.8234 82.2926 37.0245C81.9791 37.2256 81.6416 37.3381 77.784 38.0428C73.9264 38.7476 66.5588 40.0411 61.976 40.7356C57.3933 41.4301 55.8185 41.4863 55.1479 41.4309C54.4772 41.3755 54.7585 41.2068 57.9966 40.3606C61.2347 39.5145 67.4212 37.996 70.8894 37.1012C74.94 36.0562 76.1181 35.581 77.3647 35.2129C79.4831 34.5874 80.4929 34.3318 81.3204 34.1588C81.4219 34.1376 81.3519 34.3829 81.2104 34.5542C80.8921 34.9396 79.7124 35.4617 77.5897 36.2269C76.3874 36.6604 74.8484 36.9359 72.5195 37.2785C70.1906 37.621 67.0974 37.9585 65.3914 38.1323C62.9493 38.3812 62.0391 38.5891 61.0447 38.5345C60.8609 38.5244 60.9552 38.1971 61.0404 37.9968C61.377 37.2059 62.5402 36.4928 63.6505 35.5827C64.2997 35.0506 65.2124 34.7851 68.425 34.4179C71.1814 34.1027 76.2493 33.7694 80.9096 33.5947C85.57 33.42 89.6755 33.4762 91.8749 33.5333C94.2449 33.5949 94.6418 33.7609 95.0389 33.9304C95.2284 34.0114 95.3235 34.2125 95.269 34.3838C94.9299 35.4486 92.2132 35.068 88.624 34.8712C86.2115 34.7389 82.6165 34.2807 80.481 34.0778C78.3456 33.875 77.7831 33.875 77.5778 33.9313C77.3724 33.9875 77.5411 34.1 79.709 34.1298C81.8768 34.1597 86.0386 34.1034 89.1668 34.1588C92.295 34.2142 94.2634 34.3829 95.7555 34.5823C98.2183 34.9114 99.7512 35.4634 100.463 35.8043C100.621 35.8802 99.4785 35.4702 97.3541 34.2219C95.1341 32.9173 92.7211 32.3429 90.4868 32.0873C87.2042 31.7117 84.9888 31.9441 84.0293 31.8589C80.5152 31.5468 78.3558 32.0003 77.0077 32.198C75.7829 32.3777 74.4803 32.965 73.5421 33.0229C73.463 33.0278 74.3576 32.9104 77.15 32.6838C79.3756 32.5031 83.2607 32.4571 86.6939 32.4554C90.1272 32.4537 92.9955 32.5662 95.9916 32.8491C98.9877 33.132 102.025 33.5819 103.87 33.898C107.127 34.4558 107.877 35.235 109.747 37.0757C111.94 39.2349 111.857 40.1791 111.857 40.4067C111.858 40.6308 110.728 39.9576 109.508 39.2767C108.768 38.8639 106.706 37.5222 103.697 35.7335C101.198 34.248 98.686 34.3863 96.283 34.8081C92.3297 35.5021 89.7062 37.2239 88.8839 37.7625C88.5052 38.0105 88.2303 38.2448 88.0573 38.4732C87.8844 38.7015 87.8281 38.9265 87.9116 39.183C88.1035 39.7724 88.958 40.1791 90.4561 40.5191C91.4377 40.7419 92.9103 40.8591 96.8693 41.1429C100.828 41.4267 107.24 41.8203 110.402 42.0513C113.564 42.2822 113.283 42.3384 109.904 41.9456C106.526 41.5528 100.058 40.7092 93.7172 40.3027C87.3765 39.8962 81.3587 39.9525 78.1743 40.0096C74.9898 40.0667 74.8211 40.1229 74.9873 40.18C75.1535 40.2371 75.6596 40.2933 80.5603 40.0973C85.4609 39.9013 94.7406 39.4514 99.3805 39.3321C104.02 39.2128 103.739 39.4378 103.313 39.638C102.887 39.8383 102.325 40.007 97.4794 40.9657C92.6342 41.9243 83.5231 43.6678 78.8296 44.4816C74.136 45.2954 74.136 45.1266 74.2766 44.8991C74.624 44.3369 76.113 43.3695 78.689 41.8962C84.0429 38.834 85.8921 38.5345 86.3471 38.4485C86.5389 38.4122 85.9551 39.0424 82.239 41.4079C78.8247 43.5813 72.2238 47.5978 67.6811 50.7243C63.1384 53.8508 60.8325 55.9317 59.6446 56.835C58.4567 57.7382 58.4567 57.4008 58.6254 56.9457C58.7942 56.4907 59.1316 55.9283 61.5832 53.4171C64.0348 50.9058 68.5903 46.4628 68.0126 46.8735C67.4348 47.2842 61.5858 52.6834 58.4039 55.5491C55.222 58.4148 54.8846 58.5836 54.6826 58.5299C53.3152 58.1664 55.6106 54.3382 57.0814 51.7332C57.9118 50.2625 59.2271 48.6783 60.5112 47.1632C61.7954 45.6481 63.0889 44.2984 64.627 42.8719C66.1651 41.4454 67.9086 39.9831 68.8068 39.4267C69.7049 38.8703 69.7049 39.2639 68.2989 41.3789C66.8929 43.4939 64.0808 47.3183 62.0135 49.9634C58.8209 54.0482 57.153 55.5176 56.6706 55.6888C56.4811 55.7562 56.3571 55.5227 56.3835 55.1546C56.4515 54.2062 57.3711 52.576 59.602 49.579C61.1029 47.5628 63.8013 44.8949 65.2747 43.2502C66.748 41.6056 67.0292 41.1557 67.1741 40.7271C67.3189 40.2984 67.3189 39.9047 67.2627 39.6176C67.2064 39.3304 67.094 39.1617 66.9517 39.0185C66.2095 38.272 63.5286 38.3061 62.0391 37.8818C60.6023 37.4724 57.6762 40.2865 56.2727 41.1446C56.0757 41.2651 55.9037 41.3159 55.8168 41.2605C55.7299 41.2051 55.7299 41.0364 55.8142 40.8651C56.5128 39.4469 59.0191 38.5345 60.1278 37.9397C62.4056 36.7177 65.3232 36.4314 66.3466 36.6002C66.6796 36.6551 66.4702 37.1063 66.2708 37.4208C65.4926 38.6479 64.2001 39.5503 63.2602 40.2644C62.6823 40.7034 62.0374 40.5217 61.7536 40.4092C61.4018 40.2698 61.5244 39.3901 61.5525 38.5959C61.5974 37.3291 63.6718 35.927 65.1264 35.0143C66.9797 33.8516 68.7846 33.4797 70.1267 33.0527C71.9816 32.4627 74.9745 31.9458 77.1381 31.7737C78.7785 31.6432 81.6161 31.4891 84.5968 31.5172C86.6366 31.5364 87.6509 31.772 90.601 31.8862C90.7848 31.8933 88.0769 32.1708 84.584 32.1427C83.1696 32.1313 81.9296 32.0003 80.2825 31.916C79.6985 31.8861 79.6476 31.6629 82.2338 31.576C84.8201 31.4891 90.0505 31.4891 92.9418 31.5172C96.2277 31.5491 97.9822 31.6595 100.168 31.6876C101.862 31.7094 102.764 31.9424 104.296 32.3114C105.27 32.5462 106.285 33.132 107.167 33.8444C107.837 34.3851 108.671 34.7817 109.412 35.1234C110.33 35.547 111.115 36.2031 112.392 36.9112C113.435 37.49 114.014 37.9073 114.354 38.0778C114.516 38.1588 114.694 38.1357 114.725 38.0514C114.99 37.3212 113.396 36.6053 112.485 35.7813C111.547 34.9315 110.669 33.8784 109.702 33.5632C108.617 33.209 107.771 33.1388 107.031 32.7119C106.291 32.2852 104.878 32.1708 103.935 32.3403C102.888 32.5287 101.299 32.7366 100.243 32.9087C100.043 32.965 99.8739 33.0774 99.6745 33.2197C99.4751 33.3621 99.2501 33.5308 98.6775 34.0455" stroke="#F6DF8F" stroke-width="4" stroke-linecap="round"/>
<path d="M56.0703 65.9155C56.0703 65.3531 56.9139 63.3761 58.4452 60.4823C59.0948 59.2547 59.6391 58.6008 60.2373 57.9156C60.8355 57.2305 61.5103 56.5556 64.5857 54.7176C67.6611 52.8795 73.1164 49.8987 78.9075 46.6572" stroke="#F6DF8F" stroke-width="4" stroke-linecap="round"/>
<path d="M54.707 65.7449C54.707 65.2933 54.932 64.2724 56.6022 62.0901C57.5525 60.8484 59.2983 59.7305 62.66 57.6385C64.9651 56.204 68.665 54.3092 71.3356 52.9577C75.5329 50.8336 77.5971 50.0111 78.3061 49.5858C79.3593 48.9868 80.3802 48.6476 81.3746 48.3903C81.6873 48.3613 82.081 48.3613 82.4866 48.3613" stroke="#F6DF8F" stroke-width="4" stroke-linecap="round"/>
<path d="M114.016 43.0781C114.072 43.4173 114.411 44.0973 115.347 45.119C115.849 45.6678 116.398 46.2566 117.585 47.5263C119.949 50.0568 121.342 52.2778 121.992 53.4077C124.053 56.9949 124.807 57.561 126.421 59.1767C127.879 60.6357 128.782 61.3104 129.381 61.993C129.955 62.6476 130.148 63.1868 130.15 63.1612C130.277 61.2529 128.335 59.9606 128.02 57.9164C127.625 55.3551 128.16 53.5321 128.5 53.3336C128.665 53.2369 128.84 53.1913 129.095 53.3029C129.747 53.5876 130.261 54.3229 130.714 55.0873C131.243 55.9795 132.074 59.0165 133.237 63.0752C134.151 66.2616 134.523 66.9362 134.665 67.1075C134.719 67.1732 134.862 66.9413 134.864 66.7419C134.873 65.7628 134.242 64.6712 133.928 63.6751C133.594 62.6111 133.444 61.716 133.303 60.6926C133.271 60.4637 133.274 60.2947 133.415 60.4046C134.555 61.2963 135.029 64.1906 135.772 67.4398C135.929 68.1307 137.364 69.1528 137.42 70.2623C137.429 70.4453 136.342 68.7104 136.117 66.1062C135.829 62.7709 134.81 60.6918 134.441 59.8439C133.398 57.4409 133.332 56.5453 132.879 55.665C132.29 54.5214 131.348 53.3685 130.182 52.2548C130.034 52.1134 129.923 52.5027 129.923 52.8163C129.921 53.4697 130.823 55.5023 132.101 58.1993C133.145 60.4048 133.84 62.892 133.984 64.321C134.025 64.7257 134.126 66.4675 133.957 69.9221C133.865 71.8072 133.451 73.9391 133.277 75.6587C133.104 77.3783 133.104 78.6156 133.104 78.4375C133.104 76.6284 133.047 74.4418 132.962 72.7469C132.902 71.5593 132.933 69.7022 132.989 68.9149C133.046 68.1275 133.158 68.4649 133.272 69.0043C133.387 69.5437 135.005 71.0486 135.147 72.7469C135.289 74.4452 137.277 72.3217 137.42 73.9646C137.683 76.9858 134.692 82.549 135.147 84.2303C135.602 85.91 136.393 88.1663 136.739 89.6021C136.935 90.4176 137.477 91.2476 137.987 92.1296C138.103 92.3295 140.975 92.6707 140.92 92.7857C140.865 92.9008 137.879 92.7849 137.708 92.7857C136.935 92.7896 136.175 92.1066 135.068 91.6234C134.181 91.2364 133.901 90.2898 133.248 89.3533C132.08 87.6773 131.854 85.8008 131.825 85.6568C131.561 84.3404 132.592 88.0675 132.79 88.75C132.843 88.9338 132.988 89.09 133.074 89.0363C133.383 88.8438 133.218 86.837 133.076 84.1698C132.988 82.5055 132.594 80.6419 132.282 78.4571C132.089 77.1054 131.686 74.9088 131.317 70.1862C131.084 67.2128 131.116 63.0454 131.256 63.4603C131.396 63.8753 131.733 68.9933 132.02 72.2203C132.412 76.6406 132.763 78.1827 132.847 79.3407C133.14 83.362 133.387 84.9418 133.36 85.4855C133.315 86.4192 131.805 82.8013 131.174 81.3995C130.61 80.1489 130.094 78.7042 129.442 76.8866C128.848 75.2305 128.673 73.4789 128.249 70.6208C128.003 68.9621 127.769 66.0312 127.568 64.2716C127.223 61.2485 127.082 60.6338 126.997 60.6313C125.24 60.5785 127.534 64.2605 128.437 67.9272C129.158 70.8527 130.24 75.9808 130.82 78.7579C131.667 82.8177 131.967 84.6027 131.94 84.8881C131.9 85.3008 131.231 83.984 130.3 81.673C129.51 79.7107 128.189 76.1001 127.437 73.9646C126.496 71.2924 126.288 70.2936 125.33 67.335C124.502 64.7819 123.134 60.0458 122.409 57.7527C121.685 55.4596 121.685 55.7409 122.135 57.4042C122.585 59.0676 123.485 62.1046 124.005 63.9784C124.692 66.4563 124.921 67.6707 125.205 68.8322C125.497 70.0268 125.828 72.2058 126.537 74.7315C127.289 77.4086 128.441 80.4971 128.87 82.244C128.995 82.7501 129.24 83.1268 129.353 83.2418C129.602 83.4937 129.356 81.8861 128.763 79.8784C128.382 78.5884 127.664 76.8022 126.247 73.7661C124.831 70.7299 122.694 66.5118 121.34 63.6359C119.986 60.7599 119.48 59.3539 119.022 58.1797C117.733 54.8717 116.746 54.1593 116.12 53.815C115.32 53.3755 116.738 56.7566 118.545 59.8967C119.695 61.8946 121.927 64.3304 123.027 65.7747C124.571 67.8019 124.354 69.0342 124.524 73.4235C124.646 76.5529 125.434 77.1601 125.745 78.3233C125.83 78.6382 125.888 78.9189 125.804 78.8951C125.721 78.8712 125.496 78.5338 124.48 76.8414C123.464 75.1491 121.665 72.1121 120.681 70.407C119.548 68.4418 119.413 67.7935 119.187 66.8604C118.833 65.3945 117.378 62.6397 115.422 59.405C114.109 57.235 112.039 56.0936 109.997 55.0157C109.09 54.5369 108.405 54.2752 105.583 54.0741C102.761 53.873 97.8116 53.7605 91.6626 54.5462C85.5136 55.3318 78.3147 57.0191 73.9595 57.9445C68.3415 59.1382 66.753 59.1545 66.2715 59.296C65.7219 59.4575 65.1066 59.947 64.7922 60.2614C64.3755 60.6781 66.7393 58.6517 69.1185 57.1213C71.6122 55.5172 73.3945 54.9518 75.0579 54.2479C76.4636 53.6531 78.9146 52.363 80.9487 51.4163C82.9827 50.4695 84.5012 49.8509 85.9303 49.3916C88.6164 48.5282 90.9979 48.3614 92.6161 48.3895C94.1661 48.4164 95.5483 50.2872 96.2326 51.0856C96.7467 51.6856 97.0293 52.2795 97.0021 52.5632C96.9683 52.9145 95.9556 52.7925 93.5015 52.5675C91.5488 52.3885 88.1791 51.8926 84.9222 51.6608C81.6653 51.429 78.6283 51.429 76.8107 51.4853C74.4819 51.5573 73.5155 51.9386 72.7494 52.2505C72.428 52.3814 72.2646 52.5061 75.1584 52.4797C78.0523 52.4533 84.0138 52.2846 88.4347 52.3383C92.8556 52.392 95.5551 52.6732 97.1989 52.8743C99.3555 53.1381 100.095 53.4162 101.308 54.2615C104.125 56.2257 105.948 58.1848 106.118 59.0071C106.195 59.3761 106.176 59.6607 106.036 59.7774C105.01 60.6287 102.72 58.1371 100.224 56.7753C99.2435 56.2404 97.6855 55.7579 94.1474 54.9339C90.6093 54.1099 85.0977 53.0413 81.3304 52.4346C77.5632 51.8278 75.7072 51.7154 74.8917 51.5731C74.0762 51.4308 74.3574 51.262 74.9803 51.0908C75.6032 50.9195 76.5593 50.7508 80.0045 50.7201C83.4497 50.6894 89.355 50.8019 94.9561 51.0848C100.557 51.3677 105.675 51.8176 108.48 52.1056C111.632 52.4292 112.477 52.7345 113.356 52.9893C114.458 53.3085 114.977 54.7728 115.35 55.6872C115.416 55.848 115.379 56.0272 115.267 56.1422C114.613 56.8109 113.113 56.259 108.171 55.3531C105.131 54.7959 99.7511 54.7865 95.7332 54.8384C91.7154 54.8904 89.1846 55.2841 87.5715 55.4869C84.2683 55.9022 82.7765 55.8602 81.6952 56.0297C80.9117 56.1526 80.2747 56.5419 78.9453 56.6833C74.9897 56.7685 73.8598 56.8827 72.7767 57.0242C72.4367 57.0531 71.9305 57.0531 71.409 57.0531" stroke="#F6DF8F" stroke-width="4" stroke-linecap="round"/>
<path d="M61.9385 58.7622C61.7136 59.3246 61.1478 60.5704 59.4537 65.8153C58.0812 70.0648 58.8913 75.6417 57.7639 80.7622C56.6365 85.8827 53.7614 90.356 53.5339 92.1361C53.1671 95.0065 52.623 96.2544 52.3401 96.5101C51.7313 97.0602 50.0768 97.2753 48.7909 97.6468C47.7876 97.9367 47.1148 98.0729 46.0079 98.159C45.2156 98.2206 44.5584 98.5842 43.7344 99.0094C43.3055 99.2307 43.0228 99.6067 42.6547 99.7772C42.4663 99.8644 42.2304 99.8351 42.1145 99.6383C41.4942 98.5847 43.5188 95.4858 45.2035 92.9396C45.5219 92.4583 45.7991 91.8932 47.2937 89.6913C48.7884 87.4894 51.4879 83.665 53.0192 81.4418C54.8777 78.7435 55.5714 77.0098 56.3937 74.5455C57.814 70.289 57.6779 68.9367 57.8193 66.7859C57.8972 65.6019 57.8483 63.5751 57.7639 62.8695C57.6796 62.1639 57.5108 62.8388 56.2991 67.2077C55.0874 71.5766 52.8377 79.6191 51.5945 84.2402C50.0998 89.7958 50.0086 91.2524 49.868 92.2153C49.5681 94.2692 48.1953 94.8893 47.4855 95.26C47.2532 95.3813 47.1693 95.012 48.0402 93.3205C48.9111 91.6291 50.7108 88.5358 51.7504 86.6892C53.0608 84.3617 53.6967 82.0153 54.4628 78.7823C55.0376 76.3562 55.1215 74.3938 55.1777 72.5804C55.2961 68.7626 55.3498 65.8145 55.2638 64.7024C55.2218 64.1598 55.0652 63.7063 54.9519 63.535C54.8948 63.5325 54.8385 63.7012 54.8096 63.8725C54.7806 64.0437 54.7806 64.2125 54.7806 64.3863" stroke="#F6DF8F" stroke-width="8" stroke-linecap="round"/>
<path d="M62.3758 59.7797C62.7133 60.3421 62.9433 61.0818 63.1129 62.0728C63.3142 63.2492 63.6813 65.8384 63.8798 68.9333C63.9999 70.8047 64.1926 71.7062 64.5044 73.0943C65.0146 75.3647 65.2151 76.0248 65.3856 76.1407C66.8478 77.135 66.1235 71.5528 66.3791 68.1016C66.7422 63.2009 66.4661 60.5722 66.5223 61.2232C66.6612 62.8313 67.1478 64.0335 67.3455 65.5401C67.6734 68.0396 68.3408 71.8698 68.4822 73.3244C68.5236 73.7503 68.5674 74.2626 68.6526 76.1799C68.8477 80.5676 68.6254 83.7503 68.5402 84.4575C68.3322 86.1838 68.3408 87.5491 68.4822 88.8043C68.6925 90.6699 68.3408 91.5882 68.0579 92.4693C67.6131 93.8545 67.8295 94.8263 67.6318 95.5949C67.5778 95.8049 67.4341 96.0193 67.3761 95.9383C67.0978 95.5495 67.4307 94.4957 67.6573 93.5029C67.8236 92.7749 68.3936 90.477 68.962 86.4813C69.2406 84.5223 69.0804 82.6544 68.9952 81.2765C68.91 79.8986 68.7975 79.055 68.7396 77.1863C68.6816 75.3175 68.6816 72.4492 68.5691 70.6061C68.346 66.9503 67.492 65.7515 66.979 64.0463C66.8173 63.5085 66.5802 63.1899 66.4107 62.9624C66.3344 62.86 66.1286 62.9599 66.0136 63.1013C65.4183 63.8333 65.331 65.0578 64.9075 68.4962C64.547 71.4227 64.0903 76.7713 63.7733 79.7205C63.3506 83.6529 63.1155 84.3178 62.6903 85.6488C62.2257 87.1031 62.2054 88.5205 62.0648 90.1302C61.6121 95.3122 61.2408 96.0772 61.1266 96.5067C61.0105 96.9435 60.842 93.8838 61.0107 88.6253C61.1199 85.2203 61.5169 80.3298 61.6063 77.9216C61.6958 75.5135 61.5271 75.7385 61.0184 76.9229C60.5096 78.1074 59.666 80.2446 59.0065 82.3297C58.3469 84.4149 57.897 86.3833 57.5246 88.7753C57.1522 91.1672 56.871 93.923 56.7262 95.9895C56.3783 100.951 56.9222 101.872 57.1761 102.893C57.6175 104.667 58.1697 105.28 58.681 105.991C59.3271 106.889 60.0444 107.438 60.6971 107.839C61.0713 108.069 61.522 108.067 61.8057 108.236C62.4827 108.641 62.7712 109.711 63.3958 110.196C63.5472 110.314 63.7358 110.339 63.9071 110.368C64.0784 110.397 64.2471 110.397 64.0809 110.087C62.7525 107.614 61.7521 105.461 61.355 103.645C61.0019 102.031 60.675 99.2796 60.1356 95.7381C59.5924 92.1722 59.8757 89.6675 60.2702 87.7459C60.9557 84.4071 61.8645 82.2215 61.8927 81.7963C61.906 81.5945 61.977 81.4273 61.9779 81.8185C61.9787 82.2096 61.9225 83.1657 61.2467 85.8235C60.571 88.4813 59.2775 92.8119 58.583 95.3521C57.4837 99.3727 57.6039 100.338 57.632 100.962C57.6449 101.249 57.7163 101.473 57.8859 101.026C58.0555 100.58 58.3367 99.4551 58.9034 93.2234C59.47 86.9918 60.3136 75.6873 60.8326 70.0326C61.3515 64.3778 61.5203 64.7153 62.0852 67.2231C62.6502 69.7309 63.6063 74.3989 64.2394 78.7158C64.8726 83.0328 65.1538 86.8571 65.3268 88.9398C65.6681 93.0497 65.6702 96.476 65.7554 96.7325C65.7689 96.7732 65.7844 96.5953 65.8687 96.5365C65.9531 96.4777 66.1218 96.534 66.2087 96.6473C66.3883 96.8815 66.4081 97.2719 66.6348 97.4432C67.7022 98.2498 68.0544 93.0845 68.5095 91.3428C68.9848 89.5233 68.9645 88.1916 69.135 85.6497C69.2561 83.842 69.1929 80.9706 69.1648 79.3243C69.1182 76.5958 68.91 75.3499 68.8239 72.2899C68.8045 71.5985 68.7396 71.3176 68.6825 69.6824C68.6254 68.0471 68.5691 65.0663 68.4839 63.109C68.2822 58.4765 68.2828 56.3166 68.5657 55.9758C68.6974 55.8172 68.9611 55.8599 69.2176 56.0005C70.3512 56.6219 70.7813 57.3903 71.5755 58.3839C72.3671 59.3743 73.7297 60.3966 74.4463 61.311C74.925 61.9217 75.7203 62.8985 76.886 63.5555C78.2633 64.3318 80.9933 64.2653 82.6524 64.4093C82.9381 64.4341 83.219 64.4937 87.2164 64.4946C91.2138 64.4954 98.9188 64.4392 102.522 64.4102C106.126 64.3812 105.395 64.3812 104.642 64.3812" stroke="#F6DF8F" stroke-width="4" stroke-linecap="round"/>
<path d="M73.1133 58.9278C74.0745 58.984 76.0004 59.3232 77.2002 59.4672C77.658 59.5222 78.279 59.6657 79.4941 59.7791C81.5471 59.9706 84.5711 60.2316 87.4658 60.6576C88.6138 60.8266 89.1232 60.8025 90.4526 60.9431C91.7819 61.0837 93.9191 61.3649 96.5948 61.5379C99.2705 61.7109 102.42 61.7671 104.239 61.768C106.453 61.769 108.658 61.6546 112.031 61.7671C116.506 61.9163 117.363 62.7897 117.908 62.8476C118.547 62.9157 116.236 62.7914 114.682 62.4531C112.006 61.8706 109.425 60.6934 107.609 59.9274C106.275 59.364 105.215 59.2124 104.308 59.071C103.391 58.9279 101.082 58.5324 98.0451 58.1353C94.8034 57.7115 91.4172 57.2235 90.018 57.0821C89.0732 56.9866 86.1476 56.7122 83.6006 57.0514C82.324 57.2214 81.2427 57.5644 80.1332 57.7058C78.4149 57.9249 75.6766 58.0757 74.9071 58.0757C74.4955 58.0757 77.2462 58.3006 80.6419 58.6977C82.6256 58.9297 85.1625 58.9823 88.4347 59.4621C91.7069 59.9418 95.6438 60.7855 97.6437 61.3044C99.6437 61.8234 99.5875 61.9921 99.446 62.1352C99.132 62.453 96.4295 62.8442 91.528 63.3555C89.0522 63.6137 86.5702 63.5293 84.8455 63.3887C82.1961 63.1727 80.394 62.5085 78.3838 62.1966C77.2775 62.0249 75.9799 61.9409 75.2854 61.7705C74.5909 61.6001 74.5347 61.3751 74.5338 61.1186C74.532 60.5781 75.772 59.4476 78.0106 57.9726C79.0796 57.2681 80.1929 56.9474 82.4587 56.7446C84.7245 56.5418 88.1552 56.5418 91.6379 56.823C95.1206 57.1042 98.5513 57.6666 101.218 58.2094C105.715 59.1245 107.821 59.9487 108.359 60.2324C109.171 60.6601 110.314 61.6478 111.738 62.3346C113.356 63.1149 114.524 62.7897 115.262 62.9039C115.792 62.9857 116.342 63.2447 116.796 63.2174C116.988 63.2059 117.026 62.909 117.055 62.6806C117.179 61.7024 115.952 60.6934 114.93 59.6146C112.924 57.4962 109.603 57.9052 107.101 57.9896C106.846 57.9982 108.272 58.754 110.643 59.8839C112.425 60.7333 115.488 61.9137 117.671 62.9166C121.156 64.5176 122.479 65.5727 122.706 65.9409C123.213 66.7644 123.444 67.7286 123.588 68.4692C123.724 69.1669 124.013 69.8317 124.185 70.3737C124.596 71.666 121.576 69.0409 120.807 68.6157C119.886 68.1063 119.19 67.3946 118.365 67.1373C117.303 66.8059 116.126 66.9379 115.211 66.7964C114.476 66.6827 113.566 66.372 111.241 65.8037C109.893 65.4741 108.736 65.6869 107.771 65.773C106.798 65.8597 105.443 66.0278 104.589 66.1139C103.036 66.2702 101.125 66.7674 100.356 66.937C99.4256 67.1423 98.5104 67.2208 94.1219 67.2506C91.9205 67.2656 89.7641 66.9958 86.6742 66.9097C85.0428 66.8643 83.4583 66.655 82.3777 66.5408C80.9345 66.3883 80.0497 66.1437 77.5257 65.3503C76.3601 64.984 75.5607 64.6678 74.8202 64.3542C73.9783 63.9977 73.0622 62.7965 72.2356 61.8285C72.0388 61.5979 71.8113 61.3751 71.5829 61.3155C71.3545 61.2558 71.1296 61.3683 70.9855 61.5387C70.8415 61.7092 70.7853 61.9341 70.8969 62.1344C71.4038 63.0436 72.6532 62.9601 74.2143 63.4986C76.424 64.261 78.2773 64.8348 79.5563 65.3452C80.5706 65.75 82.0778 65.9698 83.5903 66.4249C84.475 66.691 85.0398 67.3912 85.7224 67.6468C86.5435 67.9544 87.4258 68.1309 89.3755 68.2723C92.7174 68.5148 95.0967 68.245 96.7303 68.1598C98.1934 68.0835 100.951 68.1309 102.596 68.159C104.691 68.1948 106.503 68.3013 108.858 68.3575C111.415 68.4186 112.646 68.7546 113.813 68.8407C114.705 68.9064 115.601 69.208 116.399 69.4934C117.262 69.802 118.386 70.5134 119.352 70.9131C120.528 71.3994 121.17 72.0473 121.57 72.7579C122.122 73.7398 122.875 74.8286 123.557 75.599C124.292 76.4281 125.656 77.443 127.501 78.5797C128.609 79.2627 129.351 79.7165 129.864 80.399C130.357 81.0548 130.66 81.7616 131.085 82.416C131.195 82.5853 131.396 82.6717 131.567 82.7296C131.739 82.7876 131.907 82.7876 132.107 82.6751C133 82.1712 133.496 80.4698 134.096 79.3816C134.5 78.6503 134.58 77.5657 134.779 76.4017C135.025 74.968 134.978 74.1572 135.12 73.4167C135.249 72.741 135.432 72.0541 135.631 71.0895C135.92 69.6934 136.055 68.9864 136.341 67.9647C136.828 66.2215 130.498 65.0027 130.5 64.2622C130.502 63.4725 135.55 62.5937 135.378 61.7671C135.191 60.8709 136.004 59.4425 135.378 58.4489C134.873 57.6481 130.17 57.546 130 57.2622C129.375 56.9767 133.446 56.3151 132.038 56.2299C130.798 56.201 119.172 52.2622 116.796 52.2622" stroke="#F6DF8F" stroke-width="4" stroke-linecap="round"/>
<path d="M87.0885 68.6423C86.8073 68.8127 85.8989 68.9252 84.567 68.8144C82.1591 68.6141 79.6647 67.2243 77.8045 67.0803C77.0287 67.0203 76.5254 65.9768 75.8428 65.3777C75.1546 64.7737 74.1974 64.61 72.9498 64.27C70.3883 63.417 69.5958 63.0761 68.0356 62.3961C67.607 62.224 67.2133 62.1115 66.4668 61.8252" stroke="#F6DF8F" stroke-width="4" stroke-linecap="round"/>
<path d="M32.3262 114.339C32.7516 114.813 33.3193 115.096 33.8892 115.406C34.1394 115.542 34.4591 115.335 34.6725 115.406C34.7451 115.617 34.792 115.903 34.8397 116.187C34.8404 116.33 34.7935 116.471 34.6028 116.758" stroke="#F6DF8F" stroke-width="4" stroke-linecap="round"/>
<path d="M42.0215 48.0043C41.754 47.8448 41.219 47.0955 40.5471 45.9417C39.4945 44.1344 39.3917 42.3708 38.988 40.6248C38.9063 40.2712 38.8535 40.1116 38.7463 40.0826C38.6392 40.0536 38.4796 40.16 38.3443 40.4806C37.3969 42.725 38.0993 45.4744 38.582 46.8981C38.6841 47.1993 38.7439 47.3565 38.7181 47.3323C38.1492 46.7989 37.7803 45.4873 37.6441 44.3021C37.4721 42.8049 37.4563 41.238 37.2694 41.0229C37.1744 40.9135 36.9229 41.0204 36.7602 41.1542C36.0625 41.7275 35.6854 42.8413 35.4421 43.9452C35.2374 44.8734 34.7733 45.9578 34.2085 47.0334C33.8822 47.655 33.3215 47.9495 33.0266 48.0309C32.8939 48.0675 32.7849 47.8464 32.7301 47.6313C32.1855 45.4929 33.8548 41.9937 34.0716 41.2912C34.5773 39.6517 31.6053 45.6355 31.3056 46.5524C30.96 47.6096 32.9363 43.8243 34.8176 41.9124C35.0684 41.6575 35.1987 42.142 35.1995 42.5199C35.2039 44.5496 33.7001 47.0826 33.0266 48.1888C32.468 49.1062 32.3546 49.8284 32.0863 50.2305C31.9651 50.4121 31.9244 50.5793 32.1097 50.3424C33.4366 48.6463 34.2287 47.6337 34.8748 46.612C35.7842 45.1742 36.1656 44.5688 36.247 44.4326C36.8068 43.4958 35.3631 46.4928 34.4245 48.026C33.9644 48.7775 33.5906 49.4513 33.2941 50.0967C33.2185 50.2611 33.1071 50.4182 33.0789 50.3408C32.7725 49.5004 33.7453 48.8132 34.4188 48.0341C35.04 47.3156 35.1456 46.3945 35.3059 46.0996C35.3884 45.9479 35.5726 45.8579 35.7079 45.8829C36.3468 46.0008 36.5394 47.0342 37.1848 47.4927C37.4689 47.6945 37.8302 47.7884 38.1251 48.0293C38.2729 48.15 38.3668 48.3233 38.1823 48.4055C36.9802 48.941 36.1172 48.3266 35.4703 47.9793C34.6322 47.5295 35.7338 45.6452 37.5547 41.6344C38.2851 40.0254 38.7858 37.7364 39.1411 36.7454C39.4964 35.7544 39.5496 36.0734 39.4175 37.0089C39.0652 39.5024 38.2121 42.1919 37.4877 44.203C36.9457 45.7079 36.8118 46.8183 36.8375 47.3565C36.8926 48.5062 38.7407 44.4173 39.2273 41.7851C39.5868 39.8409 39.1758 38.3391 38.9083 37.8025C38.7875 37.5602 38.5344 37.4786 38.3185 37.5301C37.1741 37.8034 36.0689 41.0011 35.2817 43.3256C35.1739 43.6441 35.1472 43.8114 35.1464 43.8138C35.094 43.9709 35.9448 42.5352 37.3645 40.3138C38.1502 39.0845 38.8374 37.5076 39.3007 36.8461C39.7239 36.2417 40.7259 39.4364 41.746 43.4392C42.0784 44.7435 42.2342 44.5172 42.3156 42.2806C42.397 40.0439 42.4501 35.7898 42.4775 34.0769C42.5049 32.364 42.5049 33.3211 42.7708 35.8084C43.0367 38.2956 43.5685 42.2838 43.8956 44.1788C44.2227 46.0738 44.3291 45.7548 44.3838 44.6066C44.4386 43.4585 44.4386 41.491 44.3854 40.0254C44.2993 37.652 43.6378 35.2887 42.886 32.9803C42.6029 32.1109 42.5597 31.8419 42.4526 31.6783C42.3454 31.5148 42.1859 31.4616 42.0771 31.5139C41.9683 31.5663 41.9152 31.7258 41.808 33.9351C41.7008 36.1443 41.5413 40.3984 41.4325 40.4895C41.3238 40.5805 41.2706 36.3796 41.2698 34.4548C41.269 32.5299 41.3222 33.0085 41.5623 34.6111C41.8024 36.2136 42.2278 38.9256 42.7394 41.1204C43.251 43.3151 43.836 44.9104 44.2436 45.6524C44.6513 46.3945 44.864 46.235 45.1066 45.5413C45.3491 44.8475 45.615 43.6245 45.8317 41.6118C46.0484 39.5992 46.2079 36.834 46.3167 35.2766C46.4255 33.7192 46.4787 33.4533 46.639 34.8584C46.7993 36.2636 47.0652 39.3478 47.2554 41.0696C47.476 43.0671 47.7146 43.5439 47.8218 43.7864C47.8898 43.9403 48.0901 42.0566 48.2246 39.4292C48.4288 35.443 47.3956 32.7572 46.9129 31.8419C46.701 31.44 46.0533 36.0444 45.5698 39.4477C45.5423 39.6415 45.4055 35.5127 45.7245 34.0986C45.9451 33.1209 48.2432 37.0789 49.6926 40.3549C50.2072 41.518 50.3976 41.6102 50.5064 41.5852C51.1417 41.4394 50.5104 39.8989 50.1076 37.8371C49.2952 33.6795 48.6831 32.8603 48.1739 32.2149C47.9247 31.8992 47.7694 31.5695 47.7154 31.4076C47.4514 30.6156 50.0109 35.7834 51.1775 37.8492C51.6696 38.7205 52.2249 39.567 52.5214 40.2671C52.6665 40.6095 52.8711 40.9125 52.9783 41.234C53.2334 41.9994 52.9275 37.3207 52.7648 35.897C52.6662 35.0348 52.067 34.259 51.9848 33.7433C51.7119 32.0307 53.6752 37.2046 53.9451 37.85C54.011 38.0075 54.0523 38.1715 54.1594 38.2005C55.4848 38.5592 54.2714 34.2042 53.9467 33.504C53.8042 33.1966 53.7316 32.8587 53.5979 32.5372C53.5284 32.3702 53.4109 32.2157 52.9839 32.1335C52.5569 32.0514 51.8124 32.0514 51.3757 32.1843C50.939 32.3172 50.8327 32.5831 50.7779 33.0657C50.5471 35.099 51.1517 35.8607 51.5272 36.6946C51.6167 36.8934 51.7415 37.0435 51.5836 36.78C50.4046 34.8129 49.5984 33.6692 49.1399 32.4316C48.8233 31.577 48.5751 31.0861 48.4679 30.9242C47.8149 29.9372 48.5187 34.8874 49.1093 36.1032C49.3721 36.6443 49.7547 37.0451 50.1027 37.3134C50.2751 37.4463 50.504 37.4754 50.6401 37.423C50.7763 37.3706 50.8295 37.2111 50.8037 37.0225C50.6554 35.9385 49.3824 35.1163 48.7653 34.6844C47.9847 34.1382 46.6463 35.4869 45.0904 36.6382C43.8745 37.538 41.7669 39.2366 39.5126 41.1961C38.3632 42.1951 37.5675 42.7366 36.2582 44.2312C33.8104 47.0255 32.3562 49.4513 31.474 50.4399C30.0345 52.0529 28.9191 54.118 28.2753 55.8607C27.5029 57.9517 27.3061 58.6364 26.9298 59.4678C26.5268 60.3585 26.0701 61.0019 25.7486 61.2162C25.5867 61.3242 25.4272 61.4305 25.2918 61.3258C24.906 61.0272 24.9405 59.6693 24.9405 58.4857C24.9405 57.6834 24.5119 60.4605 24.2968 61.2952C23.9358 62.6958 23.7062 64.1151 23.5176 65.0812C23.31 66.145 23.168 68.7173 22.7136 71.2021C22.5076 72.3285 21.3471 73.616 19.0259 76.8211C17.3406 79.1481 14.2053 82.5787 12.4312 84.493C10.657 86.4074 10.2316 86.6201 9.9327 86.6765C9.63378 86.7329 9.47425 86.6265 9.36548 86.4388C8.90063 85.6365 8.88125 84.9087 8.5058 84.1304C8.07555 82.8123 5.58082 82.8975 5.50025 82.7621C5.47286 82.7863 7.69848 82.4304 8.02076 82.9718" stroke="#F6DF8F" stroke-width="4" stroke-linecap="round"/>
<path d="M54.8784 101.348C54.7617 101.348 54.4098 101.348 53.8802 101.29C53.4345 101.24 53.0536 100.644 52.6708 99.9678C52.3496 99.4003 52.4029 98.8157 52.4612 98.5788C52.6607 97.7687 53.9306 100.163 55.0217 101.109C55.8402 101.819 56.6449 101.76 56.8226 101.819C57.9171 102.184 54.2914 99.9368 52.2932 99.7273C50.9725 99.5888 49.6974 99.1093 46.5508 99.1075C44.611 99.1064 43.7419 100.227 43.0045 100.726C41.9315 101.453 41.0931 102.989 40.5564 103.998C40.3817 104.326 40.3203 104.706 40.2319 104.854C40.0981 105.079 40.3769 104.121 40.6422 103.854C40.7611 103.735 42.0161 103.243 44.3493 101.883C46.1397 100.839 47.7382 99.9368 49.1263 99.6097C50.5951 99.2635 52.0386 100.867 53.0783 101.729C53.6891 102.235 55.0446 103.226 56.4363 104.174C57.7997 105.104 59.1187 106.532 60.1788 107.298C61.165 108.01 60.9382 109.79 62 110.762C62.6776 111.383 64.8338 110.306 65.6622 111.099C66.139 111.555 66.312 112.133 66.5764 112.427C66.7032 112.568 66.8991 112.605 66.4349 112.635C65.9707 112.665 64.862 112.665 64.2909 112.577C63.7197 112.49 63.7197 112.315 63.8073 112.195C63.9948 111.94 64.542 111.957 64.9841 111.637C65.7726 111.064 64.9009 108.962 64.5473 106.408C63.7728 100.814 64.6039 99.8201 64.809 98.905C64.904 98.4812 65.1927 98.1668 65.3395 98.0182C65.5722 97.7827 65.6648 99.2772 65.8107 100.018C66.2105 102.048 66.9592 97.2844 67.4313 96.7513C67.5099 96.6626 67.6665 96.9237 67.8433 96.8096C69.1072 95.9944 69.5479 91.4209 69.9962 88.3883C70.3579 85.941 70.8494 84.9101 71.2923 84.0216C71.4629 83.6793 71.6752 83.255 71.9987 82.5804C72.481 81.575 72.3842 78.677 72.3551 75.289C72.3377 73.277 71.8538 72.3519 71.6778 71.6437C71.4709 70.811 71.2066 69.8763 70.9705 69.3724C70.6261 68.6372 70.9095 71.3405 70.9988 77.8044C71.0293 80.0132 71.2632 80.8325 71.2649 82.8333C71.2652 83.1421 71.0899 82.9615 71.0006 82.7838C70.8289 82.4421 70.7344 82.0756 70.646 82.0438C70.0713 81.8369 70.6743 83.5432 70.7627 85.5918C70.9567 90.087 70.4091 95.2904 70.1147 95.2621C69.7503 95.2271 70.0855 90.6393 70.1147 87.9851C70.1306 86.5365 70.204 92.6816 70.0864 92.801C69.8289 93.0623 69.792 90.6357 69.4984 87.7535C69.089 83.7328 68.1439 81.7944 67.7585 80.3383C67.5382 79.5064 66.846 78.8945 66.2563 78.0395C66.1203 77.8423 66.0786 77.6567 66.0194 77.7416C65.9601 77.8265 65.9018 78.1766 65.8134 79.9616C65.725 81.7467 65.6082 84.9561 65.519 86.6969C65.3962 89.0909 65.1945 90.0275 64.9292 91.0875C64.7781 91.6916 63.2432 95.496 63.1265 95.7621C62.7791 96.5542 62.6093 91.1556 61.4245 90.886C60.0977 90.584 58.1851 90.6216 57.0048 90.092C55.8828 89.7375 54.9421 89.3838 53.1464 89.3529C52.7583 89.3821 52.5832 89.4404 52.226 89.3237" stroke="#F6DF8F" stroke-width="4" stroke-linecap="round"/>
<path d="M9.73793 60.4933C9.73793 60.7462 9.73793 64.4171 9.73793 69.5604C9.73793 71.1631 9.73793 70.7205 9.57987 69.386C9.15889 65.832 8.77997 63.1162 8.74836 62.2243C8.67799 60.239 8.65352 56.8992 8.55772 56.2621C8.46287 55.6313 8.01743 60.0795 7.44266 65.1519C7.21219 67.1858 7.24723 68.1378 7.24723 68.4999C7.24723 69.0635 8.20136 63.7848 8.46001 60.4665C8.48204 60.1838 8.77997 62.9648 8.90642 65.2065C9.06772 68.0658 9.79924 59.8687 9.96113 57.7219C10.0168 56.9832 10.1211 56.3453 10.1843 55.7715C10.2134 55.5078 10.374 55.3241 10.4708 55.4161C11.3853 56.2854 10.443 58.7556 9.90174 62.2847C9.56517 64.4792 9.29727 67.5209 9.13441 69.5901C8.79557 73.8954 8.77997 75.1731 8.55772 75.9797C7.90212 78.3591 7.24723 69.5652 7.24723 69.3391C7.24723 67.9046 7.05564 72.0463 6.7376 73.6423C6.33732 75.6509 6.9905 76.7096 7.46852 77.6369C8.11758 78.8961 8.77614 79.6487 9.32122 80.6066C9.85623 81.5469 10.1824 82.9019 10.535 84.0237C10.8817 85.1271 11.7765 87.1131 12.3867 89.0022C12.8193 90.3415 12.9299 91.0177 13.0266 91.4325C13.064 91.5928 12.8072 91.6577 12.6147 91.627C12.2066 91.562 11.9106 91.1499 11.7506 90.9574C11.3059 90.4221 12.6099 92.5486 13.5928 95.2423C14.4109 97.4846 15.7769 101.54 16.5567 103.751C17.3365 105.962 17.4629 106.215 17.5281 106.187C19.455 105.365 16.2521 100.417 16.093 98.7858C16.0525 98.3698 16.0605 97.9265 16.0289 97.825C15.7663 96.9817 15.8037 102.17 16.2482 107.236C16.6696 112.038 17.53 114.141 17.2761 113.569C16.2688 111.3 15.2979 108.407 14.4674 106.419C13.4364 103.952 13.2517 102.904 12.6463 101.881C12.0404 100.857 11.5274 99.9651 11.081 99.1661C10.8172 98.694 10.5694 98.2388 10.4095 98.1095C9.59906 97.4544 11.2668 100.275 12.3187 101.805C14.4812 104.951 15.3554 106.786 15.5173 108.45C15.6752 110.073 16.2521 114.116 15.8076 115.955C15.443 117.464 14.34 118.159 13.9223 119.117C13.3688 120.386 11.3473 124.263 10.3462 126.43C9.91357 127.366 9.67662 128.313 9.57795 130.543C9.54365 131.318 9.99083 131.827 10.3424 132.084C10.9587 132.534 10.1863 130.302 10.4372 128.613C10.9348 125.265 12.7996 124.428 13.3753 123.022C14.263 120.855 15.8612 119.45 18.1277 115.4C19.3059 113.294 20.4633 111.974 21.199 110.791C22.2971 109.025 22.8275 107.054 23.5613 106.128C23.9538 105.632 24.6783 105.454 25.4111 105.39C26.6184 105.284 27.9928 106.912 29.881 109.118C30.7391 110.121 31.7672 110.369 32.4081 110.722C33.0156 111.057 31.8362 109.035 31.8659 107.407C31.8704 107.158 32.1504 107.303 32.3429 107.431C33.0992 107.936 33.6831 109.782 34.1324 111.007C34.3973 111.73 35.0894 112.411 35.5693 113.178C35.6836 113.361 35.7293 113.56 35.7303 113.532C35.7807 112.018 33.9475 109.801 32.8602 107.824C32.4742 106.669 32.2826 106.094 32.1235 105.712C32.0277 105.519 31.9013 105.33 31.5794 105.134" stroke="#F6DF8F" stroke-width="2" stroke-linecap="round"/>
<path d="M39.1224 113.764C37.1224 122.964 48.9187 128.26 55.4183 124.262C66.4183 137.264 100.42 150.462 122.42 133.262C129.92 129.262 136.418 117.262 136.418 109.762C136.418 101.26 132.418 104.262 130.918 93.7622C129.418 83.2622 120.931 73.801 114.622 71.2644C105.918 67.7644 87.6225 72.2644 81.6225 71.2644C75.6225 70.2644 70.6225 63.7644 72.6225 67.7644C74.6225 71.7644 74.1225 85.2644 73.6225 91.2644C73.2225 96.0644 67.7252 101.931 65.0266 104.264C67.4231 108.395 70.0692 111.978 69.6225 113.764C69.1758 115.551 65.4948 116.388 61.1224 113.764C58.6224 112.264 56.1225 104.264 52.1225 102.764C48.1225 101.264 41.6224 102.264 39.1224 113.764Z" fill="#FFF2E5"/>
<path d="M39.1224 113.764C37.1224 122.964 48.9187 128.26 55.4183 124.262C66.4183 137.264 100.42 150.462 122.42 133.262C129.92 129.262 136.418 117.262 136.418 109.762C136.418 101.26 132.418 104.262 130.918 93.7622M39.1224 113.764C41.6224 102.264 48.1225 101.264 52.1225 102.764C56.1225 104.264 58.6224 112.264 61.1224 113.764C65.4948 116.388 69.1758 115.551 69.6225 113.764C70.0692 111.978 67.4231 108.395 65.0266 104.264M39.1224 113.764C32.9558 106.431 25.4183 92.2645 26.9176 74.2622M63.6225 88.7644C59.4727 93.1908 62.0581 99.148 65.0266 104.264M65.0266 104.264C67.7252 101.931 73.2225 96.0644 73.6225 91.2644C74.1225 85.2644 74.6225 71.7644 72.6225 67.7644C70.6225 63.7644 75.6225 70.2644 81.6225 71.2644C87.6225 72.2644 105.918 67.7644 114.622 71.2644C120.931 73.801 129.418 83.2622 130.918 93.7622M130.918 93.7622C140.918 94.2622 137.43 96.6619 143.122 94.7645C149.122 92.7645 140.122 91.2645 138.122 88.7645C136.122 86.2645 139.622 76.7622 139.622 71.7645C139.622 61.6451 127.123 40.7035 118.418 37.2644M112.918 33.7622C103.213 26.7599 74.1225 27.2645 63.6225 31.7645C60.9733 32.8998 58.4318 34.6113 56.6225 35.8231M54.1224 37.2644C54.4638 37.2644 55.3668 36.6641 56.6225 35.8231M56.6225 35.8231C56.1225 33.4702 54.3225 29.1645 51.1225 30.7645C47.956 24.4312 31.5471 27.415 25.4183 31.7645C9.91829 42.7645 7.12211 50.7645 4.62227 65.7645M36.6227 49.6077C36.6227 49.6077 29.6227 59.7645 29.1227 62.7645M46.4176 60.2645C41.7125 64.2622 40.1127 78.0645 43.7125 77.2645M34.6224 76.7645C34.6224 82.2622 37.918 89.7622 36.6227 94.7645M77.6227 54.2645C77.456 55.4311 78.8227 58.0645 85.6227 59.2645C94.1227 60.7645 102.622 56.7645 110.622 56.7645C117.622 56.7645 125.622 66.7645 127.623 69.2645M69.6225 47.7645C79.6225 43.9311 102.023 37.9645 111.623 44.7645M16.6225 60.2645C14.9558 64.4311 13.6225 68.2645 14.6225 76.7645C15.6224 85.2645 22.6225 94.2645 21.1225 97.7645M4.62468 71.2644C4.62482 79.2644 -1.77997 80.1623 5.42003 89.7622M7.12232 94.7645C7.12232 99.7622 12.2224 105.162 8.62241 110.762C4.12241 117.762 2.62237 121.262 4.62237 126.262C6.62237 131.262 14.9174 142.262 12.4175 138.262C9.91756 134.262 16.9175 118.764 22.9175 117.764C28.9175 116.764 29.1227 134.762 34.6224 117.764" stroke="#714B50" stroke-width="4" stroke-linecap="round"/>
<path d="M90.9199 129.762C90.9199 134.18 86.7859 136.762 82.9199 136.762C79.0539 136.762 76.9199 134.18 76.9199 129.762C76.9199 125.344 80.0539 121.762 83.9199 121.762C87.7859 121.762 90.9199 125.344 90.9199 129.762Z" fill="#FFC0B8" fill-opacity="0.45"/>
<path d="M108.287 111.782C108.666 112.898 107.989 113.73 106.42 114.262C104.851 114.795 102.985 114.828 102.606 113.712C102.227 112.596 103.192 111.26 104.761 110.727C106.329 110.194 107.908 110.667 108.287 111.782Z" fill="#FFC0B8" fill-opacity="0.45"/>
<path d="M132.92 116.762C131.42 120.262 130.92 121.762 128.42 123.762C125.42 124.762 120.92 121.18 120.92 116.762C120.92 112.344 124.054 108.762 127.92 108.762C131.786 108.762 134.42 113.262 132.92 116.762Z" fill="#FFC0B8" fill-opacity="0.45"/>
<rect x="78.0009" y="95" width="7.44039" height="3.64968" rx="1.82484" transform="rotate(15.9173 78.0009 95)" fill="#714B50"/>
<rect x="114" y="96.3318" width="7.44039" height="3.64968" rx="1.82484" transform="rotate(-35.606 114 96.3318)" fill="#714B50"/>
<path d="M102.339 128.532C104.005 126.246 108.867 124.976 111.075 126.147" stroke="#714B50" stroke-width="3" stroke-linecap="round"/>
<path d="M26.7842 110.064C26.8943 109.092 27.0489 108.562 27.1593 108.351C27.2985 108.086 26.9845 109.745 26.9059 110.67C26.8954 110.793 26.8731 110.858 26.8837 110.739C26.8943 110.62 26.9381 110.313 26.9606 110.1C26.9832 109.888 26.9832 109.778 27.0495 109.533" stroke="#F6DF8F" stroke-width="2" stroke-linecap="round"/>
<path d="M10.5317 118.688C10.8183 119.239 11.0398 119.769 11.0952 120.708C11.1201 121.129 11.6143 119.706 11.7251 119.518C11.9978 119.053 11.3065 120.873 11.0853 121.384C10.9304 121.694 10.5781 122.266 10.2245 122.918C10.0899 123.175 10.0461 123.285 10.001 123.398" stroke="#F6DF8F" stroke-width="2" stroke-linecap="round"/>
<ellipse cx="81.4008" cy="111.291" rx="3" ry="4" transform="rotate(-5.98632 81.4008 111.291)" fill="#714B50"/>
<ellipse cx="121.401" cy="106.291" rx="3" ry="4" transform="rotate(-5.98632 121.401 106.291)" fill="#714B50"/>
<path d="M32.2122 49.8188C37.4336 52.9236 48.1146 49.2473 48.9826 47.259C49.8505 45.2707 47.5308 35.2214 38.214 33.867C28.8971 32.5125 5.87539 30.312 9.65868 34.299C13.442 38.286 26.9907 46.714 32.2122 49.8188Z" fill="#3667B4" stroke="#714B50" stroke-width="4" stroke-linecap="round"/>
<path d="M42.2496 47.0743C36.8841 47.0708 29.0052 43.7829 29.1091 40.1199C32.8033 36.8491 41.5348 40.963 45.4388 43.4288C46.0675 45.1967 47.6151 47.0778 42.2496 47.0743Z" fill="#1A55B1" stroke="#3B71C4" stroke-width="3" stroke-linecap="round"/>
<path d="M41.6418 31.4866C41.7557 37.5604 50.5099 44.6992 52.657 44.3887C54.8042 44.0782 62.1213 36.8099 58.3613 28.1785C54.6012 19.5472 44.3361 -1.1765 42.9422 4.14012C41.5483 9.45674 41.528 25.4128 41.6418 31.4866Z" fill="#3667B4" stroke="#714B50" stroke-width="4" stroke-linecap="round"/>
<path d="M49.2648 38.5698C46.4396 34.0084 45.0806 25.5798 48.2482 23.7374C52.975 25.1526 54.0815 34.7411 54.0439 39.3584C52.873 40.8246 52.0901 43.1312 49.2648 38.5698Z" fill="#1A55B1" stroke="#3B71C4" stroke-width="3" stroke-linecap="round"/>
</svg>
